NotoSerifTamilSlanted-ExtraBold.ufo
<glyph name="exclam" format="2">
  <advance width="420.1904761904762"/>
  <unicode hex="0021"/>
  <outline>
    <contour>
      <point x="158.30952380952382" y="233.47619047619048" type="line"/>
      <point x="234.71428571428572" y="233.47619047619048" type="line"/>
      <point x="411.3809523809524" y="714.0" type="line"/>
      <point x="213.83333333333334" y="714.0" type="line"/>
    </contour>
    <contour>
      <point x="172.7857142857143" y="-8.0" type="curve" smooth="yes"/>
      <point x="218.61904761904762" y="-8.0"/>
      <point x="268.0" y="16.095238095238095"/>
      <point x="268.0" y="87.47619047619047" type="curve" smooth="yes"/>
      <point x="268.0" y="139.21428571428572"/>
      <point x="230.2619047619048" y="163.85714285714286"/>
      <point x="179.33333333333334" y="163.85714285714286" type="curve" smooth="yes"/>
      <point x="121.40476190476191" y="163.85714285714286"/>
      <point x="84.11904761904762" y="125.66666666666667"/>
      <point x="84.11904761904762" y="68.38095238095238" type="curve" smooth="yes"/>
      <point x="84.11904761904762" y="16.095238095238095"/>
      <point x="120.4047619047619" y="-8.0"/>
    </contour>
  </outline>
</glyph>
<glyph name="quotedbl" format="2">
  <advance width="529.9047619047619"/>
  <unicode hex="0022"/>
  <outline>
    <contour>
      <point x="141.04761904761904" y="423.11904761904765" type="line"/>
      <point x="215.26190476190476" y="423.11904761904765" type="line"/>
      <point x="342.95238095238096" y="714.0" type="line"/>
      <point x="166.69047619047618" y="714.0" type="line"/>
    </contour>
    <contour>
      <point x="371.6428571428571" y="423.11904761904765" type="line"/>
      <point x="445.85714285714283" y="423.11904761904765" type="line"/>
      <point x="573.0" y="714.0" type="line"/>
      <point x="397.2857142857143" y="714.0" type="line"/>
    </contour>
  </outline>
</glyph>
<glyph name="numbersign" format="2">
  <advance width="559.0"/>
  <unicode hex="0023"/>
  <outline>
    <contour>
      <point x="63.523809523809526" y="0.0" type="line"/>
      <point x="138.90476190476193" y="0.0" type="line"/>
      <point x="197.90476190476193" y="198.9047619047619" type="line"/>
      <point x="304.0952380952381" y="198.9047619047619" type="line"/>
      <point x="246.64285714285714" y="0.0" type="line"/>
      <point x="322.0238095238095" y="0.0" type="line"/>
      <point x="379.4761904761905" y="198.9047619047619" type="line"/>
      <point x="500.6428571428571" y="198.9047619047619" type="line"/>
      <point x="507.6428571428571" y="271.73809523809524" type="line"/>
      <point x="401.5714285714286" y="271.73809523809524" type="line"/>
      <point x="452.9285714285714" y="446.7142857142857" type="line"/>
      <point x="558.6428571428572" y="446.7142857142857" type="line"/>
      <point x="567.7380952380952" y="521.0952380952381" type="line"/>
      <point x="475.5714285714286" y="521.0952380952381" type="line"/>
      <point x="532.0238095238095" y="714.0" type="line"/>
      <point x="456.64285714285717" y="714.0" type="line"/>
      <point x="400.1904761904762" y="521.0952380952381" type="line"/>
      <point x="293.45238095238096" y="521.0952380952381" type="line"/>
      <point x="348.90476190476187" y="714.0" type="line"/>
      <point x="272.5238095238095" y="714.0" type="line"/>
      <point x="218.07142857142856" y="521.0952380952381" type="line"/>
      <point x="96.73809523809524" y="521.0952380952381" type="line"/>
      <point x="87.64285714285714" y="446.7142857142857" type="line"/>
      <point x="195.42857142857144" y="446.7142857142857" type="line"/>
      <point x="143.07142857142856" y="271.73809523809524" type="line"/>
      <point x="37.19047619047619" y="271.73809523809524" type="line"/>
      <point x="30.19047619047619" y="198.9047619047619" type="line"/>
      <point x="122.52380952380952" y="198.9047619047619" type="line"/>
    </contour>
    <contour>
      <point x="217.9047619047619" y="271.73809523809524" type="line"/>
      <point x="270.8095238095238" y="446.7142857142857" type="line"/>
      <point x="378.54761904761904" y="446.7142857142857" type="line"/>
      <point x="325.64285714285717" y="271.73809523809524" type="line"/>
    </contour>
  </outline>
</glyph>
<glyph name="percent" format="2">
  <advance width="917.3571428571429"/>
  <unicode hex="0025"/>
  <outline>
    <contour>
      <point x="194.88095238095238" y="0.0" type="line"/>
      <point x="274.5238095238095" y="0.0" type="line"/>
      <point x="765.3333333333334" y="714.0" type="line"/>
      <point x="688.6904761904761" y="714.0" type="line"/>
    </contour>
    <contour>
      <point x="220.11904761904762" y="279.45238095238096" type="curve" smooth="yes"/>
      <point x="388.59523809523813" y="279.45238095238096"/>
      <point x="462.33333333333337" y="460.0"/>
      <point x="462.33333333333337" y="579.3809523809524" type="curve" smooth="yes"/>
      <point x="462.33333333333337" y="660.547619047619"/>
      <point x="416.69047619047615" y="724.547619047619"/>
      <point x="312.4047619047619" y="724.547619047619" type="curve" smooth="yes"/>
      <point x="146.38095238095238" y="724.547619047619"/>
      <point x="74.19047619047619" y="551.0"/>
      <point x="74.19047619047619" y="420.5238095238095" type="curve"/>
      <point x="74.19047619047619" y="330.45238095238096"/>
      <point x="131.38095238095238" y="279.45238095238096"/>
    </contour>
    <contour>
      <point x="234.4047619047619" y="334.8333333333333" type="curve" smooth="yes"/>
      <point x="205.69047619047618" y="334.8333333333333"/>
      <point x="194.23809523809524" y="367.1904761904762"/>
      <point x="194.23809523809524" y="415.26190476190476" type="curve" smooth="yes"/>
      <point x="194.23809523809524" y="490.42857142857144"/>
      <point x="234.69047619047618" y="667.6190476190476"/>
      <point x="309.95238095238096" y="667.6190476190476" type="curve" smooth="yes"/>
      <point x="340.2142857142857" y="667.6190476190476"/>
      <point x="350.11904761904765" y="636.8095238095239"/>
      <point x="350.11904761904765" y="588.1904761904761" type="curve" smooth="yes"/>
      <point x="350.11904761904765" y="511.4761904761905"/>
      <point x="309.66666666666663" y="334.8333333333333"/>
    </contour>
    <contour>
      <point x="646.6190476190476" y="-10.547619047619047" type="curve" smooth="yes"/>
      <point x="815.0952380952382" y="-10.547619047619047"/>
      <point x="888.8333333333334" y="169.45238095238093"/>
      <point x="888.8333333333334" y="288.8333333333333" type="curve" smooth="yes"/>
      <point x="888.8333333333334" y="370.0"/>
      <point x="843.1904761904761" y="434.0"/>
      <point x="738.9047619047619" y="434.0" type="curve" smooth="yes"/>
      <point x="572.8809523809523" y="434.0"/>
      <point x="500.6904761904762" y="260.45238095238096"/>
      <point x="500.6904761904762" y="129.97619047619048" type="curve"/>
      <point x="500.6904761904762" y="40.45238095238095"/>
      <point x="557.8809523809524" y="-10.547619047619047"/>
    </contour>
    <contour>
      <point x="660.3571428571429" y="44.28571428571429" type="curve" smooth="yes"/>
      <point x="631.6428571428571" y="44.28571428571429"/>
      <point x="620.1904761904761" y="76.64285714285714"/>
      <point x="620.1904761904761" y="124.71428571428571" type="curve" smooth="yes"/>
      <point x="620.1904761904761" y="199.88095238095238"/>
      <point x="660.6428571428571" y="377.07142857142856"/>
      <point x="735.9047619047619" y="377.07142857142856" type="curve" smooth="yes"/>
      <point x="766.1666666666667" y="377.07142857142856"/>
      <point x="776.0714285714286" y="346.26190476190476"/>
      <point x="776.0714285714286" y="298.1904761904762" type="curve" smooth="yes"/>
      <point x="776.0714285714286" y="221.47619047619048"/>
      <point x="735.6190476190477" y="44.28571428571429"/>
    </contour>
  </outline>
</glyph>
<glyph name="quotesingle" format="2">
  <advance width="307.5238095238095"/>
  <unicode hex="0027"/>
  <outline>
    <contour>
      <point x="150.9047619047619" y="423.11904761904765" type="line"/>
      <point x="225.11904761904762" y="423.11904761904765" type="line"/>
      <point x="338.42857142857144" y="714.0" type="line"/>
      <point x="162.71428571428572" y="714.0" type="line"/>
    </contour>
  </outline>
</glyph>
<glyph name="parenleft" format="2">
  <advance width="421.9047619047619"/>
  <unicode hex="0028"/>
  <outline>
    <contour>
      <point x="290.8095238095238" y="-143.38095238095238" type="curve"/>
      <point x="304.9047619047619" y="-72.26190476190476" type="line"/>
      <point x="241.54761904761904" y="-25.80952380952381"/>
      <point x="220.0952380952381" y="58.095238095238095"/>
      <point x="220.0952380952381" y="139.0" type="curve" smooth="yes"/>
      <point x="220.0952380952381" y="275.45238095238096"/>
      <point x="268.54761904761904" y="593.8095238095237"/>
      <point x="472.3571428571429" y="706.8095238095239" type="curve"/>
      <point x="482.3571428571429" y="776.9285714285714" type="line"/>
      <point x="185.11904761904762" y="710.3809523809524"/>
      <point x="42.0" y="436.1904761904762"/>
      <point x="42.0" y="186.0" type="curve" smooth="yes"/>
      <point x="42.0" y="39.80952380952381"/>
      <point x="115.02380952380952" y="-86.83333333333333"/>
    </contour>
  </outline>
</glyph>
<glyph name="parenright" format="2">
  <advance width="421.9047619047619"/>
  <unicode hex="0029"/>
  <outline>
    <contour>
      <point x="-42.35714285714286" y="-138.54761904761904" type="line"/>
      <point x="255.42857142857144" y="-72.54761904761905"/>
      <point x="398.0" y="202.19047619047618"/>
      <point x="398.0" y="451.8333333333333" type="curve" smooth="yes"/>
      <point x="398.0" y="598.0238095238096"/>
      <point x="324.9761904761905" y="724.6666666666666"/>
      <point x="149.73809523809524" y="781.2142857142857" type="curve"/>
      <point x="135.64285714285714" y="710.0952380952381" type="line"/>
      <point x="198.45238095238093" y="664.1904761904763"/>
      <point x="219.9047619047619" y="579.7380952380952"/>
      <point x="219.9047619047619" y="498.8333333333333" type="curve" smooth="yes"/>
      <point x="219.9047619047619" y="362.3809523809524"/>
      <point x="172.0" y="44.023809523809526"/>
      <point x="-32.35714285714286" y="-68.42857142857142" type="curve"/>
    </contour>
  </outline>
</glyph>
<glyph name="asterisk" format="2">
  <advance width="623.4761904761905"/>
  <unicode hex="002A"/>
  <outline>
    <contour>
      <point x="390.3095238095238" y="351.9761904761905" type="line"/>
      <point x="386.5714285714286" y="520.1666666666666" type="line"/>
      <point x="508.8333333333333" y="383.33333333333337" type="line"/>
      <point x="579.8571428571429" y="478.0" type="line"/>
      <point x="440.23809523809524" y="545.6190476190476" type="line"/>
      <point x="593.6666666666667" y="548.8809523809524" type="line"/>
      <point x="568.4761904761905" y="665.1904761904763" type="line"/>
      <point x="402.11904761904765" y="589.8095238095239" type="line"/>
      <point x="474.4047619047619" y="739.8095238095237" type="line"/>
      <point x="354.5476190476191" y="765.0" type="line"/>
      <point x="354.73809523809524" y="596.8095238095237" type="line"/>
      <point x="234.47619047619048" y="738.1904761904763" type="line"/>
      <point x="164.0" y="639.9761904761904" type="line"/>
      <point x="304.1666666666667" y="574.452380952381" type="line"/>
      <point x="148.64285714285714" y="568.6428571428572" type="line"/>
      <point x="174.83333333333334" y="453.88095238095235" type="line"/>
      <point x="340.73809523809524" y="531.8095238095239" type="line"/>
      <point x="271.45238095238096" y="377.1666666666667" type="line"/>
    </contour>
  </outline>
</glyph>
<glyph name="plus" format="2">
  <advance width="564.4761904761905"/>
  <unicode hex="002B"/>
  <outline>
    <contour>
      <point x="243.54761904761904" y="138.61904761904762" type="line"/>
      <point x="319.92857142857144" y="138.61904761904762" type="line"/>
      <point x="319.92857142857144" y="319.8095238095238" type="line"/>
      <point x="502.2142857142857" y="319.8095238095238" type="line"/>
      <point x="502.2142857142857" y="395.1904761904762" type="line"/>
      <point x="319.92857142857144" y="395.1904761904762" type="line"/>
      <point x="319.92857142857144" y="576.3809523809524" type="line"/>
      <point x="243.54761904761904" y="576.3809523809524" type="line"/>
      <point x="243.54761904761904" y="395.1904761904762" type="line"/>
      <point x="62.26190476190476" y="395.1904761904762" type="line"/>
      <point x="62.26190476190476" y="319.8095238095238" type="line"/>
      <point x="243.54761904761904" y="319.8095238095238" type="line"/>
    </contour>
  </outline>
</glyph>
<glyph name="comma" format="2">
  <advance width="325.9047619047619"/>
  <unicode hex="002C"/>
  <outline>
    <contour>
      <point x="-11.07142857142857" y="-153.19047619047618" type="line"/>
      <point x="143.6904761904762" y="-123.54761904761904"/>
      <point x="224.26190476190476" y="-37.80952380952381"/>
      <point x="224.26190476190476" y="68.57142857142857" type="curve" smooth="yes"/>
      <point x="224.26190476190476" y="128.76190476190476"/>
      <point x="184.16666666666669" y="162.85714285714286"/>
      <point x="133.97619047619048" y="162.85714285714286" type="curve" smooth="yes"/>
      <point x="91.23809523809524" y="162.85714285714286"/>
      <point x="53.5" y="134.66666666666666"/>
      <point x="53.5" y="90.02380952380952" type="curve" smooth="yes"/>
      <point x="53.5" y="29.833333333333336"/>
      <point x="106.21428571428571" y="31.380952380952383"/>
      <point x="106.21428571428571" y="-12.80952380952381" type="curve" smooth="yes"/>
      <point x="106.21428571428571" y="-51.80952380952381"/>
      <point x="71.21428571428572" y="-79.26190476190476"/>
      <point x="2.666666666666668" y="-95.80952380952381" type="curve"/>
    </contour>
  </outline>
</glyph>
<glyph name="hyphen" format="2">
  <advance width="310.0"/>
  <unicode hex="002D"/>
  <outline>
    <contour>
      <point x="8.357142857142858" y="213.97619047619048" type="line"/>
      <point x="268.3571428571429" y="213.97619047619048" type="line"/>
      <point x="294.0952380952381" y="331.0238095238095" type="line"/>
      <point x="34.095238095238095" y="331.0238095238095" type="line"/>
    </contour>
  </outline>
</glyph>
<glyph name="period" format="2">
  <advance width="325.9047619047619"/>
  <unicode hex="002E"/>
  <outline>
    <contour>
      <point x="125.95238095238095" y="-8.0" type="curve" smooth="yes"/>
      <point x="171.78571428571428" y="-8.0"/>
      <point x="221.16666666666669" y="16.095238095238095"/>
      <point x="221.16666666666669" y="87.47619047619047" type="curve" smooth="yes"/>
      <point x="221.16666666666669" y="139.21428571428572"/>
      <point x="183.42857142857144" y="163.85714285714286"/>
      <point x="132.5" y="163.85714285714286" type="curve" smooth="yes"/>
      <point x="74.57142857142858" y="163.85714285714286"/>
      <point x="37.285714285714285" y="125.66666666666667"/>
      <point x="37.285714285714285" y="68.38095238095238" type="curve" smooth="yes"/>
      <point x="37.285714285714285" y="16.095238095238095"/>
      <point x="73.57142857142857" y="-8.0"/>
    </contour>
  </outline>
</glyph>
<glyph name="slash" format="2">
  <advance width="288.0"/>
  <unicode hex="002F"/>
  <outline>
    <contour>
      <point x="-107.38095238095238" y="-121.0" type="line"/>
      <point x="-23.357142857142858" y="-121.0" type="line"/>
      <point x="408.6666666666667" y="760.0" type="line"/>
      <point x="324.64285714285717" y="760.0" type="line"/>
    </contour>
  </outline>
</glyph>
<glyph name="zero" format="2">
  <advance width="564.4761904761905"/>
  <unicode hex="0030"/>
  <outline>
    <contour>
      <point x="251.02380952380952" y="-11.0" type="curve" smooth="yes"/>
      <point x="479.04761904761904" y="-11.0"/>
      <point x="578.7857142857143" y="294.0"/>
      <point x="578.7857142857143" y="496.0" type="curve" smooth="yes"/>
      <point x="578.7857142857143" y="655.0"/>
      <point x="486.59523809523813" y="725.0"/>
      <point x="369.3095238095238" y="725.0" type="curve" smooth="yes"/>
      <point x="140.7380952380952" y="725.0"/>
      <point x="37.0" y="438.0"/>
      <point x="37.0" y="231.0" type="curve" smooth="yes"/>
      <point x="37.0" y="73.0"/>
      <point x="123.19047619047619" y="-11.0"/>
    </contour>
    <contour>
      <point x="255.92857142857142" y="62.47619047619048" type="curve" smooth="yes"/>
      <point x="216.04761904761907" y="62.47619047619048"/>
      <point x="189.8809523809524" y="102.28571428571429"/>
      <point x="189.8809523809524" y="182.52380952380952" type="curve" smooth="yes"/>
      <point x="189.8809523809524" y="350.33333333333337"/>
      <point x="263.35714285714283" y="652.5238095238095"/>
      <point x="365.95238095238096" y="652.5238095238095" type="curve" smooth="yes"/>
      <point x="408.38095238095235" y="652.5238095238095"/>
      <point x="432.54761904761904" y="612.7142857142858"/>
      <point x="432.54761904761904" y="534.4761904761905" type="curve" smooth="yes"/>
      <point x="432.54761904761904" y="369.76190476190476"/>
      <point x="363.61904761904765" y="62.47619047619048"/>
    </contour>
  </outline>
</glyph>
<glyph name="one" format="2">
  <advance width="564.4761904761905"/>
  <unicode hex="0031"/>
  <outline>
    <contour>
      <point x="43.285714285714285" y="0.0" type="line"/>
      <point x="472.7142857142857" y="0.0" type="line"/>
      <point x="484.8095238095238" y="57.38095238095238" type="line"/>
      <point x="437.45238095238096" y="57.38095238095238" type="line" smooth="yes"/>
      <point x="394.4523809523809" y="57.38095238095238"/>
      <point x="361.3571428571429" y="60.833333333333336"/>
      <point x="361.3571428571429" y="87.64285714285714" type="curve" smooth="yes"/>
      <point x="361.3571428571429" y="96.19047619047619"/>
      <point x="366.4523809523809" y="117.3809523809524"/>
      <point x="368.4523809523809" y="125.3809523809524" type="curve" smooth="yes"/>
      <point x="494.3571428571429" y="718.0" type="line"/>
      <point x="363.1904761904762" y="718.0" type="line"/>
      <point x="282.1904761904762" y="666.0" type="line" smooth="yes"/>
      <point x="206.19047619047618" y="617.0"/>
      <point x="155.45238095238096" y="601.0"/>
      <point x="109.45238095238095" y="589.0" type="curve"/>
      <point x="109.45238095238095" y="535.4285714285714"/>
      <point x="132.73809523809524" y="506.7857142857143"/>
      <point x="160.73809523809524" y="506.7857142857143" type="curve" smooth="yes"/>
      <point x="203.73809523809524" y="506.7857142857143"/>
      <point x="242.19047619047618" y="545.7857142857143"/>
      <point x="303.54761904761904" y="610.7857142857143" type="curve"/>
      <point x="307.54761904761904" y="610.7857142857143" type="line"/>
      <point x="295.54761904761904" y="567.5238095238095"/>
      <point x="285.6428571428571" y="525.2619047619048"/>
      <point x="276.1904761904762" y="482.0" type="curve" smooth="yes"/>
      <point x="199.73809523809524" y="119.64285714285714" type="line" smooth="yes"/>
      <point x="190.83333333333334" y="77.66666666666666"/>
      <point x="164.66666666666666" y="57.38095238095238"/>
      <point x="117.11904761904762" y="57.38095238095238" type="curve" smooth="yes"/>
      <point x="55.38095238095238" y="57.38095238095238" type="line"/>
    </contour>
  </outline>
</glyph>
<glyph name="two" format="2">
  <advance width="564.4761904761905"/>
  <unicode hex="0032"/>
  <outline>
    <contour>
      <point x="-13.45238095238095" y="0.0" type="line"/>
      <point x="475.9761904761905" y="0.0" type="line"/>
      <point x="528.8095238095239" y="225.88095238095238" type="line"/>
      <point x="462.6904761904762" y="225.88095238095238" type="line"/>
      <point x="456.23809523809524" y="206.7857142857143" type="line" smooth="yes"/>
      <point x="441.3333333333333" y="163.5952380952381"/>
      <point x="415.14285714285717" y="122.04761904761905"/>
      <point x="349.5" y="122.04761904761905" type="curve" smooth="yes"/>
      <point x="116.50000000000001" y="122.04761904761905" type="line"/>
      <point x="315.42857142857144" y="273.9761904761905" type="line" smooth="yes"/>
      <point x="510.45238095238096" y="419.0952380952381"/>
      <point x="581.8095238095239" y="489.42857142857144"/>
      <point x="581.8095238095239" y="587.7380952380952" type="curve" smooth="yes"/>
      <point x="581.8095238095239" y="672.0952380952381"/>
      <point x="501.8809523809524" y="724.0"/>
      <point x="360.5" y="724.0" type="curve" smooth="yes"/>
      <point x="204.57142857142856" y="724.0"/>
      <point x="119.92857142857143" y="658.547619047619"/>
      <point x="119.92857142857143" y="575.7142857142858" type="curve" smooth="yes"/>
      <point x="119.92857142857143" y="511.23809523809524"/>
      <point x="176.5952380952381" y="480.95238095238096"/>
      <point x="252.45238095238096" y="480.95238095238096" type="curve"/>
      <point x="255.71428571428572" y="581.9761904761904"/>
      <point x="290.5238095238095" y="657.0714285714286"/>
      <point x="348.3095238095238" y="657.0714285714286" type="curve" smooth="yes"/>
      <point x="387.8333333333333" y="657.0714285714286"/>
      <point x="409.5476190476191" y="619.1666666666666"/>
      <point x="409.5476190476191" y="565.8095238095237" type="curve" smooth="yes"/>
      <point x="409.5476190476191" y="482.9047619047619"/>
      <point x="377.09523809523813" y="415.0"/>
      <point x="240.0" y="302.73809523809524" type="curve" smooth="yes"/>
      <point x="7.5476190476190474" y="111.76190476190476" type="line"/>
    </contour>
  </outline>
</glyph>
<glyph name="three" format="2">
  <advance width="564.4761904761905"/>
  <unicode hex="0033"/>
  <outline>
    <contour>
      <point x="218.76190476190476" y="-10.0" type="curve" smooth="yes"/>
      <point x="358.1428571428571" y="-10.0"/>
      <point x="527.0714285714286" y="48.0"/>
      <point x="527.0714285714286" y="225.0" type="curve" smooth="yes"/>
      <point x="527.0714285714286" y="311.0"/>
      <point x="469.0714285714286" y="360.3571428571429"/>
      <point x="377.0714285714286" y="370.3571428571429" type="curve"/>
      <point x="511.0714285714286" y="394.3571428571429"/>
      <point x="578.0714285714286" y="488.0"/>
      <point x="578.0714285714286" y="581.0" type="curve" smooth="yes"/>
      <point x="578.0714285714286" y="672.0"/>
      <point x="492.7857142857143" y="724.0"/>
      <point x="364.8571428571429" y="724.0" type="curve" smooth="yes"/>
      <point x="222.83333333333334" y="724.0"/>
      <point x="109.45238095238095" y="655.6190476190476"/>
      <point x="109.45238095238095" y="573.6190476190476" type="curve" smooth="yes"/>
      <point x="109.45238095238095" y="524.6190476190476"/>
      <point x="165.57142857142858" y="509.6190476190476"/>
      <point x="238.33333333333334" y="509.6190476190476" type="curve"/>
      <point x="251.23809523809524" y="588.6190476190476"/>
      <point x="277.6904761904762" y="658.6190476190476"/>
      <point x="343.0238095238095" y="658.6190476190476" type="curve" smooth="yes"/>
      <point x="389.92857142857144" y="658.6190476190476"/>
      <point x="407.09523809523813" y="623.1666666666666"/>
      <point x="407.09523809523813" y="574.8095238095239" type="curve" smooth="yes"/>
      <point x="407.09523809523813" y="471.54761904761904"/>
      <point x="324.09523809523813" y="402.1904761904762"/>
      <point x="208.8095238095238" y="402.1904761904762" type="curve" smooth="yes"/>
      <point x="176.8095238095238" y="402.1904761904762" type="line"/>
      <point x="166.8095238095238" y="335.8095238095238" type="line"/>
      <point x="209.8095238095238" y="335.8095238095238" type="line" smooth="yes"/>
      <point x="302.09523809523813" y="335.8095238095238"/>
      <point x="354.09523809523813" y="293.4523809523809"/>
      <point x="354.09523809523813" y="219.64285714285714" type="curve" smooth="yes"/>
      <point x="354.09523809523813" y="118.92857142857143"/>
      <point x="292.19047619047615" y="67.57142857142857"/>
      <point x="233.95238095238093" y="67.57142857142857" type="curve" smooth="yes"/>
      <point x="160.8809523809524" y="67.57142857142857"/>
      <point x="124.33333333333334" y="121.83333333333333"/>
      <point x="124.33333333333334" y="206.95238095238096" type="curve"/>
      <point x="44.38095238095238" y="206.95238095238096"/>
      <point x="0.6428571428571432" y="171.21428571428572"/>
      <point x="0.6428571428571432" y="117.57142857142858" type="curve" smooth="yes"/>
      <point x="0.6428571428571432" y="61.023809523809526"/>
      <point x="57.28571428571429" y="-10.0"/>
    </contour>
  </outline>
</glyph>
<glyph name="four" format="2">
  <advance width="564.4761904761905"/>
  <unicode hex="0034"/>
  <outline>
    <contour>
      <point x="128.45238095238096" y="0.0" type="line"/>
      <point x="489.3095238095238" y="0.0" type="line"/>
      <point x="501.4047619047619" y="57.38095238095238" type="line"/>
      <point x="485.04761904761904" y="57.38095238095238" type="line" smooth="yes"/>
      <point x="446.1428571428571" y="57.38095238095238"/>
      <point x="421.78571428571433" y="63.38095238095238"/>
      <point x="421.78571428571433" y="97.3809523809524" type="curve" smooth="yes"/>
      <point x="421.78571428571433" y="103.3809523809524"/>
      <point x="423.78571428571433" y="121.47619047619048"/>
      <point x="425.78571428571433" y="129.47619047619048" type="curve" smooth="yes"/>
      <point x="550.6904761904763" y="714.0" type="line"/>
      <point x="389.33333333333337" y="714.0" type="line"/>
      <point x="21.11904761904762" y="252.38095238095238" type="line"/>
      <point x="4.92857142857143" y="182.16666666666666" type="line"/>
      <point x="532.9285714285714" y="182.16666666666666" type="line"/>
      <point x="547.4761904761905" y="252.0" type="line"/>
      <point x="61.11904761904762" y="252.0" type="line"/>
      <point x="77.66666666666667" y="228.28571428571428" type="line"/>
      <point x="253.1190476190476" y="449.28571428571433" type="line" smooth="yes"/>
      <point x="284.8571428571429" y="489.2142857142857"/>
      <point x="337.59523809523813" y="564.1428571428571"/>
      <point x="369.3333333333333" y="613.5238095238095" type="curve"/>
      <point x="350.3333333333333" y="551.5238095238095"/>
      <point x="332.88095238095235" y="472.88095238095235"/>
      <point x="321.88095238095235" y="422.07142857142856" type="curve" smooth="yes"/>
      <point x="258.9761904761905" y="129.38095238095238" type="line" smooth="yes"/>
      <point x="243.8809523809524" y="59.19047619047619"/>
      <point x="198.78571428571428" y="57.38095238095238"/>
      <point x="162.52380952380952" y="57.38095238095238" type="curve" smooth="yes"/>
      <point x="139.54761904761907" y="57.38095238095238" type="line"/>
    </contour>
  </outline>
</glyph>
<glyph name="five" format="2">
  <advance width="564.4761904761905"/>
  <unicode hex="0035"/>
  <outline>
    <contour>
      <point x="209.40476190476193" y="-10.0" type="curve" smooth="yes"/>
      <point x="406.42857142857144" y="-10.0"/>
      <point x="521.4285714285714" y="101.54761904761904"/>
      <point x="521.4285714285714" y="248.64285714285714" type="curve" smooth="yes"/>
      <point x="521.4285714285714" y="370.1904761904762"/>
      <point x="429.14285714285717" y="436.73809523809524"/>
      <point x="287.3095238095238" y="436.73809523809524" type="curve" smooth="yes"/>
      <point x="236.66666666666666" y="436.73809523809524"/>
      <point x="205.11904761904762" y="428.28571428571433"/>
      <point x="180.02380952380952" y="420.73809523809524" type="curve"/>
      <point x="232.09523809523807" y="593.5" type="line"/>
      <point x="440.0238095238095" y="593.5" type="line" smooth="yes"/>
      <point x="479.1190476190476" y="593.5"/>
      <point x="490.11904761904765" y="583.5"/>
      <point x="490.11904761904765" y="567.952380952381" type="curve" smooth="yes"/>
      <point x="490.11904761904765" y="559.952380952381"/>
      <point x="488.6666666666667" y="536.4047619047619"/>
      <point x="487.11904761904765" y="519.4047619047619" type="curve"/>
      <point x="555.7857142857143" y="519.4047619047619" type="line"/>
      <point x="585.8809523809523" y="714.0" type="line"/>
      <point x="189.80952380952382" y="714.0" type="line"/>
      <point x="90.0" y="370.8333333333333" type="line"/>
      <point x="135.2857142857143" y="344.3571428571429" type="line"/>
      <point x="160.19047619047618" y="355.3571428571429"/>
      <point x="189.1904761904762" y="366.3571428571429"/>
      <point x="236.0952380952381" y="366.3571428571429" type="curve" smooth="yes"/>
      <point x="303.45238095238096" y="366.3571428571429"/>
      <point x="353.8095238095238" y="325.45238095238096"/>
      <point x="353.8095238095238" y="241.64285714285714" type="curve" smooth="yes"/>
      <point x="353.8095238095238" y="124.3809523809524"/>
      <point x="301.73809523809524" y="66.02380952380953"/>
      <point x="220.76190476190476" y="66.02380952380953" type="curve" smooth="yes"/>
      <point x="132.21428571428572" y="66.02380952380953"/>
      <point x="112.76190476190476" y="141.5"/>
      <point x="111.76190476190476" y="201.23809523809524" type="curve"/>
      <point x="42.833333333333336" y="201.23809523809524"/>
      <point x="11.642857142857144" y="160.85714285714286"/>
      <point x="11.642857142857144" y="114.11904761904762" type="curve" smooth="yes"/>
      <point x="11.642857142857144" y="46.28571428571429"/>
      <point x="66.57142857142857" y="-10.0"/>
    </contour>
  </outline>
</glyph>
<glyph name="six" format="2">
  <advance width="564.4761904761905"/>
  <unicode hex="0036"/>
  <outline>
    <contour>
      <point x="264.4761904761905" y="-10.0" type="curve" smooth="yes"/>
      <point x="453.0476190476191" y="-10.0"/>
      <point x="543.3333333333334" y="121.54761904761905"/>
      <point x="543.3333333333334" y="261.5476190476191" type="curve" smooth="yes"/>
      <point x="543.3333333333334" y="358.0952380952381"/>
      <point x="490.3333333333333" y="439.6428571428571"/>
      <point x="374.3333333333333" y="439.6428571428571" type="curve" smooth="yes"/>
      <point x="304.6904761904762" y="439.6428571428571"/>
      <point x="258.8809523809524" y="414.2857142857143"/>
      <point x="228.8809523809524" y="390.1904761904762" type="curve"/>
      <point x="267.1428571428571" y="573.452380952381"/>
      <point x="327.76190476190476" y="660.6190476190476"/>
      <point x="407.73809523809524" y="660.6190476190476" type="curve" smooth="yes"/>
      <point x="457.45238095238096" y="660.6190476190476"/>
      <point x="463.45238095238096" y="593.8809523809524"/>
      <point x="463.45238095238096" y="526.6904761904761" type="curve"/>
      <point x="551.7619047619047" y="526.6904761904761"/>
      <point x="603.7857142857143" y="560.3333333333334"/>
      <point x="603.7857142857143" y="615.5238095238095" type="curve" smooth="yes"/>
      <point x="603.7857142857143" y="673.8095238095239"/>
      <point x="544.5952380952381" y="724.0"/>
      <point x="432.3095238095238" y="724.0" type="curve" smooth="yes"/>
      <point x="193.64285714285714" y="724.0"/>
      <point x="48.26190476190476" y="481.0"/>
      <point x="48.26190476190476" y="232.0" type="curve" smooth="yes"/>
      <point x="48.26190476190476" y="70.0"/>
      <point x="145.0952380952381" y="-10.0"/>
    </contour>
    <contour>
      <point x="281.76190476190476" y="58.83333333333333" type="curve" smooth="yes"/>
      <point x="234.14285714285714" y="58.83333333333333"/>
      <point x="203.8809523809524" y="102.28571428571429"/>
      <point x="203.8809523809524" y="202.19047619047618" type="curve" smooth="yes"/>
      <point x="203.8809523809524" y="237.0952380952381"/>
      <point x="207.33333333333334" y="276.5476190476191"/>
      <point x="215.33333333333331" y="325.0" type="curve"/>
      <point x="239.5952380952381" y="348.9047619047619"/>
      <point x="278.76190476190476" y="374.8095238095238"/>
      <point x="317.92857142857144" y="374.8095238095238" type="curve" smooth="yes"/>
      <point x="363.0952380952381" y="374.8095238095238"/>
      <point x="385.35714285714283" y="331.3571428571429"/>
      <point x="385.35714285714283" y="253.0" type="curve" smooth="yes"/>
      <point x="385.35714285714283" y="143.1904761904762"/>
      <point x="343.73809523809524" y="58.83333333333333"/>
    </contour>
  </outline>
</glyph>
<glyph name="seven" format="2">
  <advance width="564.4761904761905"/>
  <unicode hex="0037"/>
  <outline>
    <contour>
      <point x="105.09523809523809" y="0.0" type="line"/>
      <point x="196.11904761904762" y="0.0" type="line"/>
      <point x="614.8571428571429" y="642.952380952381" type="line"/>
      <point x="627.5" y="714.0" type="line"/>
      <point x="142.2857142857143" y="714.0" type="line"/>
      <point x="96.90476190476191" y="492.5" type="line"/>
      <point x="165.57142857142858" y="492.5" type="line"/>
      <point x="179.57142857142858" y="542.5" type="line" smooth="yes"/>
      <point x="188.57142857142858" y="575.5"/>
      <point x="212.57142857142858" y="593.5"/>
      <point x="248.57142857142858" y="593.5" type="curve" smooth="yes"/>
      <point x="504.4761904761905" y="593.5" type="line"/>
    </contour>
  </outline>
</glyph>
<glyph name="eight" format="2">
  <advance width="564.4761904761905"/>
  <unicode hex="0038"/>
  <outline>
    <contour>
      <point x="262.3333333333333" y="-10.0" type="curve" smooth="yes"/>
      <point x="423.9761904761905" y="-10.0"/>
      <point x="536.4285714285714" y="56.0"/>
      <point x="536.4285714285714" y="202.0" type="curve" smooth="yes"/>
      <point x="536.4285714285714" y="283.0"/>
      <point x="484.4285714285714" y="339.5476190476191"/>
      <point x="415.42857142857144" y="381.3571428571429" type="curve"/>
      <point x="513.8809523809524" y="427.5476190476191"/>
      <point x="583.4285714285714" y="477.0"/>
      <point x="583.4285714285714" y="578.0" type="curve" smooth="yes"/>
      <point x="583.4285714285714" y="662.0"/>
      <point x="506.14285714285717" y="724.0"/>
      <point x="376.8571428571429" y="724.0" type="curve" smooth="yes"/>
      <point x="189.92857142857144" y="724.0"/>
      <point x="118.38095238095238" y="636.8095238095239"/>
      <point x="118.38095238095238" y="540.0952380952381" type="curve" smooth="yes"/>
      <point x="118.38095238095238" y="465.8095238095238"/>
      <point x="157.92857142857144" y="403.9047619047619"/>
      <point x="213.28571428571428" y="360.9047619047619" type="curve"/>
      <point x="102.92857142857143" y="317.9047619047619"/>
      <point x="16.833333333333336" y="274.0"/>
      <point x="16.833333333333336" y="162.0" type="curve" smooth="yes"/>
      <point x="16.833333333333336" y="62.0"/>
      <point x="116.30952380952382" y="-10.0"/>
    </contour>
    <contour>
      <point x="265.95238095238096" y="51.833333333333336" type="curve" smooth="yes"/>
      <point x="204.42857142857144" y="51.833333333333336"/>
      <point x="167.71428571428572" y="91.64285714285714"/>
      <point x="167.71428571428572" y="157.45238095238096" type="curve" smooth="yes"/>
      <point x="167.71428571428572" y="235.61904761904762"/>
      <point x="209.33333333333334" y="288.07142857142856"/>
      <point x="279.3095238095238" y="317.9761904761905" type="curve"/>
      <point x="347.73809523809524" y="277.6190476190476"/>
      <point x="384.0" y="234.61904761904762"/>
      <point x="384.0" y="172.35714285714286" type="curve" smooth="yes"/>
      <point x="384.0" y="92.19047619047619"/>
      <point x="329.92857142857144" y="51.833333333333336"/>
    </contour>
    <contour>
      <point x="350.14285714285717" y="417.8333333333333" type="curve"/>
      <point x="300.1666666666667" y="450.1904761904762"/>
      <point x="273.35714285714283" y="494.73809523809524"/>
      <point x="273.35714285714283" y="544.547619047619" type="curve" smooth="yes"/>
      <point x="273.35714285714283" y="617.3571428571428"/>
      <point x="316.42857142857144" y="662.7142857142858"/>
      <point x="370.76190476190476" y="662.7142857142858" type="curve" smooth="yes"/>
      <point x="418.1904761904762" y="662.7142857142858"/>
      <point x="442.64285714285717" y="622.8095238095237"/>
      <point x="442.64285714285717" y="571.0" type="curve" smooth="yes"/>
      <point x="442.64285714285717" y="509.1904761904762"/>
      <point x="417.8333333333333" y="456.1904761904762"/>
    </contour>
  </outline>
</glyph>
<glyph name="nine" format="2">
  <advance width="564.4761904761905"/>
  <unicode hex="0039"/>
  <outline>
    <contour>
      <point x="183.28571428571428" y="-10.0" type="curve" smooth="yes"/>
      <point x="464.4047619047619" y="-10.0"/>
      <point x="571.8809523809524" y="329.1666666666667"/>
      <point x="571.8809523809524" y="527.0" type="curve" smooth="yes"/>
      <point x="571.8809523809524" y="653.0"/>
      <point x="493.6904761904762" y="724.0"/>
      <point x="370.4047619047619" y="724.0" type="curve" smooth="yes"/>
      <point x="212.3809523809524" y="724.0"/>
      <point x="77.45238095238095" y="608.0"/>
      <point x="77.45238095238095" y="441.0" type="curve" smooth="yes"/>
      <point x="77.45238095238095" y="344.0"/>
      <point x="138.54761904761904" y="275.0"/>
      <point x="247.1904761904762" y="275.0" type="curve" smooth="yes"/>
      <point x="315.09523809523813" y="275.0"/>
      <point x="361.45238095238096" y="308.0"/>
      <point x="394.9047619047619" y="343.0" type="curve"/>
      <point x="345.0" y="159.28571428571428"/>
      <point x="291.1904761904762" y="58.476190476190474"/>
      <point x="195.38095238095238" y="58.476190476190474" type="curve" smooth="yes"/>
      <point x="136.47619047619048" y="58.476190476190474"/>
      <point x="113.02380952380953" y="118.66666666666666"/>
      <point x="112.02380952380953" y="171.85714285714286" type="curve"/>
      <point x="58.095238095238095" y="171.85714285714286"/>
      <point x="26.357142857142858" y="145.21428571428572"/>
      <point x="26.357142857142858" y="98.47619047619048" type="curve" smooth="yes"/>
      <point x="26.357142857142858" y="37.547619047619044"/>
      <point x="76.83333333333333" y="-10.0"/>
    </contour>
    <contour>
      <point x="302.0238095238095" y="354.11904761904765" type="curve" smooth="yes"/>
      <point x="261.4047619047619" y="354.11904761904765"/>
      <point x="236.23809523809524" y="386.4761904761905"/>
      <point x="236.23809523809524" y="449.2857142857143" type="curve" smooth="yes"/>
      <point x="236.23809523809524" y="548.452380952381"/>
      <point x="284.76190476190476" y="652.0714285714286"/>
      <point x="352.09523809523813" y="652.0714285714286" type="curve" smooth="yes"/>
      <point x="390.7142857142857" y="652.0714285714286"/>
      <point x="418.4285714285714" y="617.1666666666666"/>
      <point x="418.4285714285714" y="533.0" type="curve" smooth="yes"/>
      <point x="418.4285714285714" y="506.5476190476191"/>
      <point x="411.9761904761904" y="459.73809523809524"/>
      <point x="403.9761904761905" y="428.8333333333333" type="curve"/>
      <point x="382.7142857142857" y="392.4761904761904"/>
      <point x="349.0952380952381" y="354.11904761904765"/>
    </contour>
  </outline>
</glyph>
<glyph name="colon" format="2">
  <advance width="387.0238095238095"/>
  <unicode hex="003A"/>
  <outline>
    <contour>
      <point x="224.5" y="369.14285714285717" type="curve" smooth="yes"/>
      <point x="270.3333333333333" y="369.14285714285717"/>
      <point x="319.7142857142857" y="393.7857142857143"/>
      <point x="319.7142857142857" y="464.6190476190476" type="curve" smooth="yes"/>
      <point x="319.7142857142857" y="516.9047619047619"/>
      <point x="281.9761904761905" y="541.0"/>
      <point x="231.04761904761904" y="541.0" type="curve" smooth="yes"/>
      <point x="173.11904761904762" y="541.0"/>
      <point x="135.83333333333334" y="502.8095238095238"/>
      <point x="135.83333333333334" y="445.5238095238095" type="curve" smooth="yes"/>
      <point x="135.83333333333334" y="393.7857142857143"/>
      <point x="172.11904761904762" y="369.14285714285717"/>
    </contour>
    <contour>
      <point x="137.5952380952381" y="-8.0" type="curve" smooth="yes"/>
      <point x="183.42857142857144" y="-8.0"/>
      <point x="232.80952380952382" y="16.095238095238095"/>
      <point x="232.80952380952382" y="87.47619047619047" type="curve" smooth="yes"/>
      <point x="232.80952380952382" y="139.21428571428572"/>
      <point x="195.07142857142856" y="163.85714285714286"/>
      <point x="144.14285714285714" y="163.85714285714286" type="curve" smooth="yes"/>
      <point x="86.21428571428572" y="163.85714285714286"/>
      <point x="48.92857142857143" y="125.66666666666667"/>
      <point x="48.92857142857143" y="68.38095238095238" type="curve" smooth="yes"/>
      <point x="48.92857142857143" y="16.095238095238095"/>
      <point x="85.21428571428572" y="-8.0"/>
    </contour>
  </outline>
</glyph>
<glyph name="semicolon" format="2">
  <advance width="387.0238095238095"/>
  <unicode hex="003B"/>
  <outline>
    <contour>
      <point x="-12.095238095238097" y="-153.19047619047618" type="line"/>
      <point x="142.66666666666666" y="-123.54761904761904"/>
      <point x="223.23809523809524" y="-37.80952380952381"/>
      <point x="223.23809523809524" y="68.57142857142857" type="curve" smooth="yes"/>
      <point x="223.23809523809524" y="128.76190476190476"/>
      <point x="183.14285714285714" y="162.85714285714286"/>
      <point x="132.95238095238096" y="162.85714285714286" type="curve" smooth="yes"/>
      <point x="90.21428571428572" y="162.85714285714286"/>
      <point x="52.476190476190474" y="134.66666666666666"/>
      <point x="52.476190476190474" y="90.02380952380952" type="curve" smooth="yes"/>
      <point x="52.476190476190474" y="29.833333333333336"/>
      <point x="104.64285714285714" y="31.380952380952383"/>
      <point x="104.64285714285714" y="-12.80952380952381" type="curve" smooth="yes"/>
      <point x="104.64285714285714" y="-51.80952380952381"/>
      <point x="69.64285714285714" y="-79.26190476190476"/>
      <point x="1.6428571428571432" y="-95.80952380952381" type="curve"/>
    </contour>
    <contour>
      <point x="224.5" y="369.14285714285717" type="curve" smooth="yes"/>
      <point x="270.3333333333333" y="369.14285714285717"/>
      <point x="319.7142857142857" y="393.7857142857143"/>
      <point x="319.7142857142857" y="464.6190476190476" type="curve" smooth="yes"/>
      <point x="319.7142857142857" y="516.9047619047619"/>
      <point x="281.9761904761905" y="541.0"/>
      <point x="231.04761904761904" y="541.0" type="curve" smooth="yes"/>
      <point x="173.11904761904762" y="541.0"/>
      <point x="135.83333333333334" y="502.8095238095238"/>
      <point x="135.83333333333334" y="445.5238095238095" type="curve" smooth="yes"/>
      <point x="135.83333333333334" y="393.7857142857143"/>
      <point x="172.11904761904762" y="369.14285714285717"/>
    </contour>
  </outline>
</glyph>
<glyph name="equal" format="2">
  <advance width="564.4761904761905"/>
  <unicode hex="003D"/>
  <outline>
    <contour>
      <point x="59.71428571428572" y="421.73809523809524" type="line"/>
      <point x="505.30952380952385" y="421.73809523809524" type="line"/>
      <point x="505.30952380952385" y="496.1190476190476" type="line"/>
      <point x="59.71428571428572" y="496.1190476190476" type="line"/>
    </contour>
    <contour>
      <point x="59.71428571428572" y="217.88095238095238" type="line"/>
      <point x="505.30952380952385" y="217.88095238095238" type="line"/>
      <point x="505.30952380952385" y="292.26190476190476" type="line"/>
      <point x="59.71428571428572" y="292.26190476190476" type="line"/>
    </contour>
  </outline>
</glyph>
<glyph name="greater" format="2">
  <advance width="564.4761904761905"/>
  <unicode hex="003E"/>
  <outline>
    <contour>
      <point x="62.26190476190476" y="96.33333333333334" type="line"/>
      <point x="502.2142857142857" y="335.9047619047619" type="line"/>
      <point x="502.2142857142857" y="379.0952380952381" type="line"/>
      <point x="62.26190476190476" y="619.6666666666666" type="line"/>
      <point x="62.26190476190476" y="536.2857142857143" type="line"/>
      <point x="389.73809523809524" y="357.0" type="line"/>
      <point x="62.26190476190476" y="179.71428571428572" type="line"/>
    </contour>
  </outline>
</glyph>
<glyph name="question" format="2">
  <advance width="549.2380952380953"/>
  <unicode hex="003F"/>
  <outline>
    <contour>
      <point x="196.80952380952382" y="233.47619047619048" type="line"/>
      <point x="273.76190476190476" y="233.47619047619048" type="line"/>
      <point x="308.30952380952385" y="317.0" type="line"/>
      <point x="451.4047619047619" y="368.0"/>
      <point x="558.4047619047618" y="442.0"/>
      <point x="558.4047619047618" y="558.0" type="curve" smooth="yes"/>
      <point x="558.4047619047618" y="673.0"/>
      <point x="471.57142857142856" y="724.0"/>
      <point x="331.45238095238096" y="724.0" type="curve" smooth="yes"/>
      <point x="183.42857142857142" y="724.0"/>
      <point x="88.95238095238095" y="667.6428571428572"/>
      <point x="88.95238095238095" y="594.547619047619" type="curve" smooth="yes"/>
      <point x="88.95238095238095" y="538.6190476190476"/>
      <point x="136.52380952380952" y="510.9761904761904"/>
      <point x="232.76190476190476" y="510.9761904761904" type="curve"/>
      <point x="240.11904761904762" y="586.9761904761904"/>
      <point x="262.4761904761905" y="658.6190476190476"/>
      <point x="317.26190476190476" y="658.6190476190476" type="curve" smooth="yes"/>
      <point x="352.23809523809524" y="658.6190476190476"/>
      <point x="379.40476190476187" y="622.1666666666666"/>
      <point x="379.40476190476187" y="557.8095238095239" type="curve" smooth="yes"/>
      <point x="379.40476190476187" y="447.1666666666667"/>
      <point x="303.5" y="395.54761904761904"/>
      <point x="187.14285714285714" y="353.0952380952381" type="curve"/>
    </contour>
    <contour>
      <point x="210.83333333333331" y="-8.0" type="curve" smooth="yes"/>
      <point x="256.6666666666667" y="-8.0"/>
      <point x="306.04761904761904" y="16.095238095238095"/>
      <point x="306.04761904761904" y="87.47619047619047" type="curve" smooth="yes"/>
      <point x="306.04761904761904" y="139.21428571428572"/>
      <point x="268.3095238095238" y="163.85714285714286"/>
      <point x="217.38095238095238" y="163.85714285714286" type="curve" smooth="yes"/>
      <point x="159.45238095238096" y="163.85714285714286"/>
      <point x="122.16666666666667" y="125.66666666666667"/>
      <point x="122.16666666666667" y="68.38095238095238" type="curve" smooth="yes"/>
      <point x="122.16666666666667" y="16.095238095238095"/>
      <point x="158.45238095238096" y="-8.0"/>
    </contour>
  </outline>
</glyph>
<glyph name="bracketleft" format="2">
  <advance width="435.9047619047619"/>
  <unicode hex="005B"/>
  <outline>
    <contour>
      <point x="27.571428571428573" y="-128.0" type="line"/>
      <point x="326.4761904761905" y="-128.0" type="line"/>
      <point x="338.0238095238095" y="-70.6190476190476" type="line"/>
      <point x="295.0238095238095" y="-70.6190476190476" type="line" smooth="yes"/>
      <point x="258.66666666666663" y="-70.6190476190476"/>
      <point x="227.11904761904765" y="-64.6190476190476"/>
      <point x="227.11904761904765" y="-20.88095238095238" type="curve" smooth="yes"/>
      <point x="227.11904761904765" y="-13.333333333333332"/>
      <point x="227.5714285714286" y="-7.523809523809522"/>
      <point x="229.5714285714286" y="3.0238095238095255" type="curve"/>
      <point x="362.3809523809524" y="630.6190476190476" type="line"/>
      <point x="375.3809523809524" y="693.6190476190476"/>
      <point x="416.92857142857144" y="702.6190476190476"/>
      <point x="460.3809523809524" y="702.6190476190476" type="curve" smooth="yes"/>
      <point x="503.3809523809524" y="702.6190476190476" type="line"/>
      <point x="515.4761904761905" y="760.0" type="line"/>
      <point x="216.57142857142858" y="760.0" type="line"/>
    </contour>
  </outline>
</glyph>
<glyph name="backslash" format="2">
  <advance width="288.0"/>
  <unicode hex="005C"/>
  <outline>
    <contour>
      <point x="164.73809523809524" y="-121.0" type="line"/>
      <point x="239.11904761904762" y="-121.0" type="line"/>
      <point x="180.73809523809524" y="760.0" type="line"/>
      <point x="105.80952380952381" y="760.0" type="line"/>
    </contour>
  </outline>
</glyph>
<glyph name="bracketright" format="2">
  <advance width="435.9047619047619"/>
  <unicode hex="005D"/>
  <outline>
    <contour>
      <point x="-55.73809523809524" y="-128.0" type="line"/>
      <point x="242.16666666666669" y="-128.0" type="line"/>
      <point x="431.1666666666667" y="760.0" type="line"/>
      <point x="132.26190476190476" y="760.0" type="line"/>
      <point x="120.71428571428571" y="702.6190476190476" type="line"/>
      <point x="163.71428571428572" y="702.6190476190476" type="line" smooth="yes"/>
      <point x="200.07142857142858" y="702.6190476190476"/>
      <point x="231.07142857142856" y="696.6190476190476"/>
      <point x="231.07142857142856" y="652.8809523809524" type="curve" smooth="yes"/>
      <point x="231.07142857142856" y="645.3333333333334"/>
      <point x="230.61904761904762" y="639.5238095238095"/>
      <point x="228.61904761904762" y="628.9761904761904" type="curve" smooth="yes"/>
      <point x="96.35714285714285" y="1.3809523809523832" type="line"/>
      <point x="83.35714285714285" y="-61.619047619047606"/>
      <point x="43.357142857142854" y="-70.6190476190476"/>
      <point x="-0.6428571428571432" y="-70.6190476190476" type="curve" smooth="yes"/>
      <point x="-43.642857142857146" y="-70.6190476190476" type="line"/>
    </contour>
  </outline>
</glyph>
<glyph name="asciicircum" format="2">
  <advance width="564.4761904761905"/>
  <unicode hex="005E"/>
  <outline>
    <contour>
      <point x="41.07142857142857" y="249.40476190476193" type="line"/>
      <point x="123.45238095238095" y="249.40476190476193" type="line"/>
      <point x="280.73809523809524" y="597.8809523809524" type="line"/>
      <point x="439.4761904761905" y="249.40476190476193" type="line"/>
      <point x="521.8571428571429" y="249.40476190476193" type="line"/>
      <point x="304.38095238095235" y="714.0" type="line"/>
      <point x="258.09523809523813" y="714.0" type="line"/>
    </contour>
  </outline>
</glyph>
<glyph name="braceleft" format="2">
  <advance width="447.4761904761905"/>
  <unicode hex="007B"/>
  <outline>
    <contour>
      <point x="240.73809523809524" y="-123.9047619047619" type="curve" smooth="yes"/>
      <point x="347.23809523809524" y="-123.9047619047619" type="line"/>
      <point x="360.33333333333337" y="-66.52380952380952" type="line"/>
      <point x="318.04761904761904" y="-66.52380952380952" type="line" smooth="yes"/>
      <point x="278.6904761904762" y="-66.52380952380952"/>
      <point x="265.3333333333333" y="-49.16666666666667"/>
      <point x="265.3333333333333" y="-17.904761904761905" type="curve" smooth="yes"/>
      <point x="265.3333333333333" y="-4.357142857142858"/>
      <point x="266.33333333333337" y="11.19047619047619"/>
      <point x="270.3333333333333" y="28.190476190476193" type="curve" smooth="yes"/>
      <point x="307.33333333333337" y="199.19047619047618" type="line" smooth="yes"/>
      <point x="309.33333333333337" y="208.64285714285714"/>
      <point x="310.33333333333337" y="217.0952380952381"/>
      <point x="310.33333333333337" y="225.54761904761904" type="curve" smooth="yes"/>
      <point x="310.33333333333337" y="268.4523809523809"/>
      <point x="282.8809523809524" y="296.8095238095238"/>
      <point x="222.33333333333331" y="315.54761904761904" type="curve"/>
      <point x="225.42857142857142" y="325.1904761904762" type="line"/>
      <point x="306.9761904761905" y="344.8333333333333"/>
      <point x="345.8809523809524" y="382.1904761904762"/>
      <point x="358.33333333333337" y="440.0" type="curve" smooth="yes"/>
      <point x="395.33333333333337" y="609.452380952381" type="line" smooth="yes"/>
      <point x="408.7857142857143" y="670.2619047619048"/>
      <point x="424.4047619047619" y="703.1666666666666"/>
      <point x="480.30952380952385" y="703.1666666666666" type="curve" smooth="yes"/>
      <point x="523.1428571428571" y="703.1666666666666" type="line"/>
      <point x="535.2380952380952" y="760.0" type="line"/>
      <point x="428.1904761904762" y="760.0" type="line" smooth="yes"/>
      <point x="299.6428571428571" y="760.0"/>
      <point x="236.78571428571428" y="717.8333333333334"/>
      <point x="215.2380952380952" y="613.452380952381" type="curve" smooth="yes"/>
      <point x="179.78571428571428" y="441.45238095238096" type="line" smooth="yes"/>
      <point x="164.88095238095238" y="369.1904761904762"/>
      <point x="111.42857142857143" y="354.8333333333333"/>
      <point x="45.42857142857142" y="353.3809523809524" type="curve"/>
      <point x="30.78571428571428" y="284.7142857142857" type="line"/>
      <point x="86.78571428571428" y="282.7142857142857"/>
      <point x="129.78571428571428" y="272.9047619047619"/>
      <point x="129.78571428571428" y="220.45238095238093" type="curve" smooth="yes"/>
      <point x="129.78571428571428" y="213.54761904761907"/>
      <point x="129.33333333333331" y="204.54761904761904"/>
      <point x="127.33333333333334" y="195.64285714285714" type="curve" smooth="yes"/>
      <point x="100.07142857142857" y="69.88095238095238" type="line" smooth="yes"/>
      <point x="88.33333333333334" y="13.833333333333334"/>
      <point x="87.88095238095238" y="-0.16666666666666607"/>
      <point x="87.88095238095238" y="-11.619047619047617" type="curve" smooth="yes"/>
      <point x="87.88095238095238" y="-80.71428571428571"/>
      <point x="138.61904761904762" y="-123.9047619047619"/>
    </contour>
  </outline>
</glyph>
<glyph name="braceright" format="2">
  <advance width="447.4761904761905"/>
  <unicode hex="007D"/>
  <outline>
    <contour>
      <point x="-55.642857142857146" y="-122.35714285714286" type="line"/>
      <point x="50.85714285714286" y="-122.35714285714286" type="line" smooth="yes"/>
      <point x="179.4047619047619" y="-122.35714285714286"/>
      <point x="241.71428571428572" y="-80.19047619047619"/>
      <point x="263.8095238095238" y="24.190476190476193" type="curve" smooth="yes"/>
      <point x="299.8095238095238" y="195.64285714285714" type="line" smooth="yes"/>
      <point x="315.26190476190476" y="267.9047619047619"/>
      <point x="368.1666666666667" y="281.7142857142857"/>
      <point x="434.1666666666667" y="283.1666666666667" type="curve"/>
      <point x="448.8095238095238" y="351.8333333333333" type="line"/>
      <point x="392.8095238095238" y="353.8333333333333"/>
      <point x="349.8095238095238" y="364.1904761904762"/>
      <point x="349.8095238095238" y="416.6428571428571" type="curve" smooth="yes"/>
      <point x="349.8095238095238" y="423.5476190476191"/>
      <point x="350.26190476190476" y="432.54761904761904"/>
      <point x="352.26190476190476" y="441.45238095238096" type="curve" smooth="yes"/>
      <point x="379.5238095238095" y="567.7619047619047" type="line" smooth="yes"/>
      <point x="390.71428571428567" y="620.5238095238095"/>
      <point x="391.1666666666667" y="637.8095238095239"/>
      <point x="391.1666666666667" y="649.2619047619048" type="curve" smooth="yes"/>
      <point x="391.1666666666667" y="718.3571428571428"/>
      <point x="340.42857142857144" y="761.547619047619"/>
      <point x="238.85714285714286" y="761.547619047619" type="curve" smooth="yes"/>
      <point x="131.80952380952382" y="761.547619047619" type="line"/>
      <point x="118.71428571428571" y="704.1666666666666" type="line"/>
      <point x="161.54761904761907" y="704.1666666666666" type="line" smooth="yes"/>
      <point x="200.9047619047619" y="704.1666666666666"/>
      <point x="213.71428571428572" y="686.8095238095239"/>
      <point x="213.71428571428572" y="655.547619047619" type="curve" smooth="yes"/>
      <point x="213.71428571428572" y="642.0"/>
      <point x="212.71428571428572" y="626.452380952381"/>
      <point x="208.71428571428572" y="609.452380952381" type="curve" smooth="yes"/>
      <point x="171.71428571428572" y="438.4523809523809" type="line" smooth="yes"/>
      <point x="169.71428571428572" y="428.45238095238096"/>
      <point x="169.26190476190476" y="420.0"/>
      <point x="169.26190476190476" y="411.54761904761904" type="curve" smooth="yes"/>
      <point x="169.26190476190476" y="369.1904761904762"/>
      <point x="196.16666666666666" y="339.73809523809524"/>
      <point x="256.7142857142857" y="321.54761904761904" type="curve"/>
      <point x="254.16666666666666" y="311.9047619047619" type="line"/>
      <point x="172.07142857142858" y="291.7142857142857"/>
      <point x="133.71428571428572" y="254.90476190476193"/>
      <point x="121.26190476190476" y="197.0952380952381" type="curve" smooth="yes"/>
      <point x="84.26190476190476" y="28.190476190476193" type="line" smooth="yes"/>
      <point x="70.80952380952381" y="-32.61904761904762"/>
      <point x="55.19047619047619" y="-65.52380952380952"/>
      <point x="-1.261904761904761" y="-65.52380952380952" type="curve" smooth="yes"/>
      <point x="-43.54761904761905" y="-65.52380952380952" type="line"/>
    </contour>
  </outline>
</glyph>
<glyph name="asciitilde" format="2">
  <advance width="564.4761904761905"/>
  <unicode hex="007E"/>
  <outline>
    <contour>
      <point x="39.97619047619047" y="259.26190476190476" type="curve"/>
      <point x="118.45238095238095" y="259.26190476190476" type="line"/>
      <point x="118.9047619047619" y="343.0"/>
      <point x="139.45238095238096" y="375.26190476190476"/>
      <point x="175.6190476190476" y="375.26190476190476" type="curve" smooth="yes"/>
      <point x="199.45238095238096" y="375.26190476190476"/>
      <point x="211.64285714285714" y="362.42857142857144"/>
      <point x="255.45238095238093" y="324.8095238095238" type="curve" smooth="yes"/>
      <point x="311.8333333333333" y="276.26190476190476"/>
      <point x="341.64285714285717" y="259.26190476190476"/>
      <point x="392.3095238095238" y="259.26190476190476" type="curve" smooth="yes"/>
      <point x="491.23809523809524" y="259.26190476190476"/>
      <point x="520.047619047619" y="332.95238095238096"/>
      <point x="523.5" y="453.73809523809524" type="curve"/>
      <point x="443.4761904761905" y="453.73809523809524" type="line"/>
      <point x="442.11904761904765" y="371.90476190476187"/>
      <point x="425.8571428571429" y="337.73809523809524"/>
      <point x="392.5" y="337.73809523809524" type="curve" smooth="yes"/>
      <point x="369.76190476190476" y="337.73809523809524"/>
      <point x="352.4761904761905" y="352.28571428571433"/>
      <point x="310.3809523809524" y="386.73809523809524" type="curve" smooth="yes"/>
      <point x="248.26190476190476" y="437.57142857142856"/>
      <point x="226.54761904761904" y="453.73809523809524"/>
      <point x="178.54761904761904" y="453.73809523809524" type="curve" smooth="yes"/>
      <point x="73.80952380952381" y="453.73809523809524"/>
      <point x="39.976190476190474" y="369.9523809523809"/>
    </contour>
  </outline>
</glyph>
<glyph name="twosuperior" format="2">
  <advance width="400.54761904761904"/>
  <unicode hex="00B2"/>
  <outline>
    <contour>
      <point x="59.0" y="386.0" type="line"/>
      <point x="387.1190476190476" y="386.0" type="line"/>
      <point x="415.1190476190476" y="534.2142857142857" type="line"/>
      <point x="374.4761904761905" y="534.2142857142857" type="line"/>
      <point x="366.4761904761905" y="513.2142857142857" type="line" smooth="yes"/>
      <point x="358.4761904761905" y="491.2142857142857"/>
      <point x="344.4761904761905" y="472.2142857142857"/>
      <point x="313.4761904761905" y="472.2142857142857" type="curve" smooth="yes"/>
      <point x="162.64285714285714" y="472.2142857142857" type="line"/>
      <point x="289.8333333333333" y="560.5714285714286" type="line" smooth="yes"/>
      <point x="403.92857142857144" y="639.9285714285714"/>
      <point x="441.6666666666667" y="681.2857142857142"/>
      <point x="441.6666666666667" y="736.1904761904763" type="curve" smooth="yes"/>
      <point x="441.6666666666667" y="788.547619047619"/>
      <point x="388.1190476190476" y="824.0"/>
      <point x="303.4761904761905" y="824.0" type="curve" smooth="yes"/>
      <point x="205.92857142857144" y="824.0"/>
      <point x="145.83333333333331" y="784.452380952381"/>
      <point x="145.83333333333331" y="728.8095238095239" type="curve" smooth="yes"/>
      <point x="145.83333333333331" y="697.7142857142858"/>
      <point x="177.02380952380952" y="676.1666666666666"/>
      <point x="226.76190476190476" y="676.1666666666666" type="curve"/>
      <point x="232.21428571428572" y="729.2619047619048"/>
      <point x="254.57142857142858" y="776.8095238095237"/>
      <point x="288.2857142857143" y="776.8095238095237" type="curve" smooth="yes"/>
      <point x="316.54761904761904" y="776.8095238095237"/>
      <point x="327.0" y="753.452380952381"/>
      <point x="327.0" y="728.547619047619" type="curve" smooth="yes"/>
      <point x="327.0" y="676.3809523809524"/>
      <point x="302.0" y="629.9285714285714"/>
      <point x="221.54761904761904" y="574.7619047619048" type="curve" smooth="yes"/>
      <point x="76.83333333333334" y="474.9761904761905" type="line"/>
    </contour>
  </outline>
</glyph>
<glyph name="threesuperior" format="2">
  <advance width="400.54761904761904"/>
  <unicode hex="00B3"/>
  <outline>
    <contour>
      <point x="218.92857142857142" y="380.0" type="curve" smooth="yes"/>
      <point x="334.4761904761905" y="380.0"/>
      <point x="421.1190476190476" y="428.0"/>
      <point x="421.1190476190476" y="518.0" type="curve" smooth="yes"/>
      <point x="421.1190476190476" y="573.0"/>
      <point x="381.1190476190476" y="603.0"/>
      <point x="320.1190476190476" y="610.0" type="curve"/>
      <point x="321.1190476190476" y="615.0" type="line"/>
      <point x="394.1190476190476" y="630.0"/>
      <point x="446.57142857142856" y="663.0"/>
      <point x="446.57142857142856" y="733.0" type="curve" smooth="yes"/>
      <point x="446.57142857142856" y="783.0"/>
      <point x="402.0238095238095" y="824.0"/>
      <point x="305.92857142857144" y="824.0" type="curve" smooth="yes"/>
      <point x="206.83333333333331" y="824.0"/>
      <point x="147.28571428571428" y="784.452380952381"/>
      <point x="147.28571428571428" y="737.452380952381" type="curve" smooth="yes"/>
      <point x="147.28571428571428" y="705.452380952381"/>
      <point x="181.47619047619048" y="689.8095238095237"/>
      <point x="234.3095238095238" y="689.8095238095237" type="curve"/>
      <point x="240.21428571428572" y="735.8095238095237"/>
      <point x="258.5714285714286" y="776.8095238095237"/>
      <point x="298.83333333333337" y="776.8095238095237" type="curve" smooth="yes"/>
      <point x="322.0952380952381" y="776.8095238095237"/>
      <point x="333.54761904761904" y="758.3571428571428"/>
      <point x="333.54761904761904" y="732.9047619047619" type="curve" smooth="yes"/>
      <point x="333.54761904761904" y="667.452380952381"/>
      <point x="286.19047619047615" y="630.0"/>
      <point x="230.73809523809524" y="630.0" type="curve" smooth="yes"/>
      <point x="196.1904761904762" y="630.0" type="line"/>
      <point x="188.1904761904762" y="580.8095238095239" type="line"/>
      <point x="221.1904761904762" y="580.8095238095239" type="line" smooth="yes"/>
      <point x="284.19047619047615" y="580.8095238095239"/>
      <point x="312.19047619047615" y="549.9047619047619"/>
      <point x="312.19047619047615" y="514.0" type="curve" smooth="yes"/>
      <point x="312.19047619047615" y="457.1904761904762"/>
      <point x="274.2857142857143" y="434.73809523809524"/>
      <point x="228.47619047619048" y="434.73809523809524" type="curve" smooth="yes"/>
      <point x="167.92857142857142" y="434.73809523809524"/>
      <point x="146.47619047619048" y="483.2857142857143"/>
      <point x="146.47619047619048" y="520.7380952380952" type="curve"/>
      <point x="100.0952380952381" y="520.7380952380952"/>
      <point x="65.35714285714285" y="498.6428571428571"/>
      <point x="65.35714285714285" y="462.6428571428571" type="curve" smooth="yes"/>
      <point x="65.35714285714285" y="411.54761904761904"/>
      <point x="116.45238095238095" y="380.0"/>
    </contour>
  </outline>
</glyph>
<glyph name="multiply" format="2">
  <advance width="564.4761904761905"/>
  <unicode hex="00D7"/>
  <outline>
    <contour>
      <point x="136.92857142857142" y="158.35714285714286" type="line"/>
      <point x="281.73809523809524" y="304.7142857142857" type="line"/>
      <point x="427.54761904761904" y="158.35714285714286" type="line"/>
      <point x="480.8333333333333" y="211.64285714285714" type="line"/>
      <point x="335.0238095238095" y="358.0" type="line"/>
      <point x="480.8333333333333" y="504.3571428571429" type="line"/>
      <point x="426.5476190476191" y="558.6428571428571" type="line"/>
      <point x="281.73809523809524" y="412.8333333333333" type="line"/>
      <point x="136.92857142857142" y="557.6428571428571" type="line"/>
      <point x="82.09523809523809" y="504.3571428571429" type="line"/>
      <point x="226.9047619047619" y="359.0" type="line"/>
      <point x="82.09523809523809" y="212.64285714285714" type="line"/>
    </contour>
  </outline>
</glyph>
<glyph name="divide" format="2">
  <advance width="564.4761904761905"/>
  <unicode hex="00F7"/>
  <outline>
    <contour>
      <point x="62.26190476190476" y="319.8095238095238" type="line"/>
      <point x="502.2142857142857" y="319.8095238095238" type="line"/>
      <point x="502.2142857142857" y="395.1904761904762" type="line"/>
      <point x="62.26190476190476" y="395.1904761904762" type="line"/>
    </contour>
    <contour>
      <point x="282.73809523809524" y="99.33333333333334" type="curve" smooth="yes"/>
      <point x="314.8333333333333" y="99.33333333333334"/>
      <point x="340.3809523809524" y="115.88095238095238"/>
      <point x="340.3809523809524" y="162.52380952380952" type="curve" smooth="yes"/>
      <point x="340.3809523809524" y="210.16666666666666"/>
      <point x="314.8333333333333" y="225.71428571428572"/>
      <point x="282.73809523809524" y="225.71428571428572" type="curve" smooth="yes"/>
      <point x="249.0952380952381" y="225.71428571428572"/>
      <point x="224.54761904761904" y="210.16666666666666"/>
      <point x="224.54761904761904" y="162.52380952380952" type="curve" smooth="yes"/>
      <point x="224.54761904761904" y="115.88095238095238"/>
      <point x="249.0952380952381" y="99.33333333333334"/>
    </contour>
    <contour>
      <point x="282.73809523809524" y="489.2857142857143" type="curve" smooth="yes"/>
      <point x="314.8333333333333" y="489.2857142857143"/>
      <point x="340.3809523809524" y="505.83333333333337"/>
      <point x="340.3809523809524" y="552.4761904761905" type="curve" smooth="yes"/>
      <point x="340.3809523809524" y="600.1190476190477"/>
      <point x="314.8333333333333" y="615.6666666666666"/>
      <point x="282.73809523809524" y="615.6666666666666" type="curve" smooth="yes"/>
      <point x="249.0952380952381" y="615.6666666666666"/>
      <point x="224.54761904761904" y="600.1190476190477"/>
      <point x="224.54761904761904" y="552.4761904761905" type="curve" smooth="yes"/>
      <point x="224.54761904761904" y="505.83333333333337"/>
      <point x="249.0952380952381" y="489.2857142857143"/>
    </contour>
  </outline>
</glyph>
<glyph name="udatta-deva" format="2">
  <unicode hex="0951"/>
  <anchor x="63.19047619047619" y="574.5" name="_vedic"/>
  <outline>
    <contour>
      <point x="101.0952380952381" y="951.9047619047619" type="line"/>
      <point x="185.66666666666669" y="951.9047619047619" type="line"/>
      <point x="230.21428571428572" y="1158.547619047619" type="line"/>
      <point x="145.1904761904762" y="1158.547619047619" type="line"/>
    </contour>
  </outline>
</glyph>
<glyph name="anudatta-deva" format="2">
  <unicode hex="0952"/>
  <anchor x="-59.0" y="0.0" name="_bottom"/>
  <outline>
    <contour>
      <point x="-374.3809523809524" y="-617.8095238095239" type="line"/>
      <point x="-5.928571428571431" y="-617.8095238095239" type="line"/>
      <point x="14.714285714285712" y="-522.4285714285714" type="line"/>
      <point x="-354.2857142857143" y="-522.4285714285714" type="line"/>
    </contour>
  </outline>
</glyph>
<glyph name="danda-deva" format="2">
  <advance width="363.16666666666663"/>
  <unicode hex="0964"/>
  <outline>
    <contour>
      <point x="24.976190476190474" y="0.0" type="line"/>
      <point x="216.0" y="0.0" type="line"/>
      <point x="338.1904761904762" y="574.5" type="line"/>
      <point x="147.16666666666666" y="574.5" type="line"/>
    </contour>
  </outline>
</glyph>
<glyph name="dbldanda-deva" format="2">
  <advance width="676.547619047619"/>
  <unicode hex="0965"/>
  <outline>
    <contour>
      <point x="338.80952380952385" y="0.0" type="line"/>
      <point x="529.3809523809524" y="0.0" type="line"/>
      <point x="651.5714285714287" y="574.5" type="line"/>
      <point x="460.54761904761904" y="574.5" type="line"/>
    </contour>
    <contour>
      <point x="24.976190476190474" y="0.0" type="line"/>
      <point x="216.0" y="0.0" type="line"/>
      <point x="338.1904761904762" y="574.5" type="line"/>
      <point x="147.16666666666666" y="574.5" type="line"/>
    </contour>
  </outline>
</glyph>
<glyph name="anusvara-tamil" format="2">
  <unicode hex="0B82"/>
  <note>
uni0B82
</note>
  <anchor x="63.19047619047619" y="574.5" name="_top"/>
  <outline>
    <contour>
      <point x="104.09523809523809" y="624.3809523809524" type="curve" smooth="yes"/>
      <point x="186.38095238095238" y="624.3809523809524"/>
      <point x="253.11904761904762" y="688.6666666666666"/>
      <point x="253.11904761904762" y="773.952380952381" type="curve" smooth="yes"/>
      <point x="253.11904761904762" y="859.7857142857143"/>
      <point x="186.38095238095238" y="923.5238095238096"/>
      <point x="104.09523809523809" y="923.5238095238096" type="curve" smooth="yes"/>
      <point x="21.80952380952381" y="923.5238095238096"/>
      <point x="-44.92857142857143" y="859.7857142857143"/>
      <point x="-44.92857142857143" y="773.952380952381" type="curve" smooth="yes"/>
      <point x="-44.92857142857143" y="688.6666666666666"/>
      <point x="21.80952380952381" y="624.3809523809524"/>
    </contour>
    <contour>
      <point x="104.09523809523809" y="707.952380952381" type="curve" smooth="yes"/>
      <point x="70.09523809523809" y="707.952380952381"/>
      <point x="40.54761904761905" y="736.952380952381"/>
      <point x="40.54761904761905" y="773.952380952381" type="curve" smooth="yes"/>
      <point x="40.54761904761905" y="809.952380952381"/>
      <point x="70.09523809523809" y="838.952380952381"/>
      <point x="104.09523809523809" y="838.952380952381" type="curve" smooth="yes"/>
      <point x="138.09523809523807" y="838.952380952381"/>
      <point x="167.64285714285714" y="809.952380952381"/>
      <point x="167.64285714285714" y="773.952380952381" type="curve" smooth="yes"/>
      <point x="167.64285714285714" y="736.952380952381"/>
      <point x="138.09523809523807" y="707.952380952381"/>
    </contour>
  </outline>
</glyph>
<glyph name="visarga-tamil" format="2">
  <advance width="938.4285714285714"/>
  <unicode hex="0B83"/>
  <note>
uni0B83
</note>
  <outline>
    <contour>
      <point x="185.38095238095238" y="-5.0" type="curve" smooth="yes"/>
      <point x="309.73809523809524" y="-5.0"/>
      <point x="403.66666666666663" y="77.07142857142857"/>
      <point x="403.66666666666663" y="211.54761904761904" type="curve" smooth="yes"/>
      <point x="403.66666666666663" y="318.1904761904762"/>
      <point x="334.83333333333337" y="376.8333333333333"/>
      <point x="228.64285714285714" y="376.8333333333333" type="curve" smooth="yes"/>
      <point x="107.16666666666667" y="376.8333333333333"/>
      <point x="23.261904761904763" y="282.45238095238096"/>
      <point x="23.261904761904763" y="162.66666666666666" type="curve" smooth="yes"/>
      <point x="23.261904761904763" y="72.28571428571429"/>
      <point x="76.19047619047619" y="-5.0"/>
    </contour>
    <contour>
      <point x="167.0" y="67.33333333333334" type="curve" smooth="yes"/>
      <point x="117.28571428571429" y="67.33333333333334"/>
      <point x="94.73809523809524" y="108.40476190476191"/>
      <point x="94.73809523809524" y="167.4047619047619" type="curve" smooth="yes"/>
      <point x="94.73809523809524" y="239.07142857142858"/>
      <point x="137.9047619047619" y="303.95238095238096"/>
      <point x="200.42857142857142" y="303.95238095238096" type="curve" smooth="yes"/>
      <point x="248.7857142857143" y="303.95238095238096"/>
      <point x="269.3095238095238" y="273.95238095238096"/>
      <point x="269.3095238095238" y="215.07142857142856" type="curve" smooth="yes"/>
      <point x="269.3095238095238" y="128.11904761904762"/>
      <point x="227.95238095238093" y="67.33333333333334"/>
    </contour>
    <contour>
      <point x="657.5952380952381" y="-5.0" type="curve" smooth="yes"/>
      <point x="781.9523809523808" y="-5.0"/>
      <point x="875.8809523809524" y="77.07142857142857"/>
      <point x="875.8809523809524" y="211.54761904761904" type="curve" smooth="yes"/>
      <point x="875.8809523809524" y="318.1904761904762"/>
      <point x="807.047619047619" y="376.8333333333333"/>
      <point x="700.8571428571429" y="376.8333333333333" type="curve" smooth="yes"/>
      <point x="579.3809523809524" y="376.8333333333333"/>
      <point x="495.4761904761905" y="282.45238095238096"/>
      <point x="495.4761904761905" y="162.66666666666666" type="curve" smooth="yes"/>
      <point x="495.4761904761905" y="72.28571428571429"/>
      <point x="548.4047619047619" y="-5.0"/>
    </contour>
    <contour>
      <point x="639.2142857142857" y="67.33333333333334" type="curve" smooth="yes"/>
      <point x="589.5" y="67.33333333333334"/>
      <point x="566.952380952381" y="108.40476190476191"/>
      <point x="566.952380952381" y="167.4047619047619" type="curve" smooth="yes"/>
      <point x="566.952380952381" y="239.07142857142858"/>
      <point x="610.1190476190476" y="303.95238095238096"/>
      <point x="672.6428571428571" y="303.95238095238096" type="curve" smooth="yes"/>
      <point x="721.0" y="303.95238095238096"/>
      <point x="741.5238095238095" y="273.95238095238096"/>
      <point x="741.5238095238095" y="215.07142857142856" type="curve" smooth="yes"/>
      <point x="741.5238095238095" y="128.11904761904762"/>
      <point x="700.1666666666666" y="67.33333333333334"/>
    </contour>
    <contour>
      <point x="507.3095238095238" y="439.0952380952381" type="curve" smooth="yes"/>
      <point x="631.6666666666666" y="439.0952380952381"/>
      <point x="725.5952380952382" y="521.1666666666667"/>
      <point x="725.5952380952382" y="655.6428571428571" type="curve" smooth="yes"/>
      <point x="725.5952380952382" y="762.2857142857142"/>
      <point x="656.7619047619047" y="820.9285714285714"/>
      <point x="550.5714285714286" y="820.9285714285714" type="curve" smooth="yes"/>
      <point x="429.0952380952381" y="820.9285714285714"/>
      <point x="345.1904761904762" y="726.547619047619"/>
      <point x="345.1904761904762" y="606.7619047619047" type="curve" smooth="yes"/>
      <point x="345.1904761904762" y="516.3809523809524"/>
      <point x="398.11904761904765" y="439.0952380952381"/>
    </contour>
    <contour>
      <point x="488.9285714285714" y="511.4285714285714" type="curve" smooth="yes"/>
      <point x="439.2142857142857" y="511.4285714285714"/>
      <point x="416.6666666666667" y="552.5"/>
      <point x="416.6666666666667" y="611.5" type="curve" smooth="yes"/>
      <point x="416.6666666666667" y="683.1666666666666"/>
      <point x="459.83333333333337" y="748.047619047619"/>
      <point x="522.3571428571429" y="748.047619047619" type="curve" smooth="yes"/>
      <point x="570.7142857142857" y="748.047619047619"/>
      <point x="591.2380952380952" y="718.047619047619"/>
      <point x="591.2380952380952" y="659.1666666666666" type="curve" smooth="yes"/>
      <point x="591.2380952380952" y="572.2142857142858"/>
      <point x="549.8809523809523" y="511.4285714285714"/>
    </contour>
  </outline>
</glyph>
<glyph name="a-tamil" format="2">
  <advance width="1417.0"/>
  <unicode hex="0B85"/>
  <note>
uni0B85
</note>
  <anchor x="605.9285714285714" y="0.0" name="bottom"/>
  <anchor x="375.0238095238095" y="-172.90476190476193" name="nukta"/>
  <anchor x="730.0476190476192" y="574.5" name="top"/>
  <anchor x="730.0476190476192" y="574.5" name="vedic"/>
  <outline>
    <contour>
      <point x="1036.0714285714287" y="-248.80952380952382" type="line"/>
      <point x="1223.7380952380952" y="-248.80952380952382" type="line"/>
      <point x="1398.857142857143" y="574.5" type="line"/>
      <point x="1211.1904761904761" y="574.5" type="line"/>
      <point x="1122.2619047619048" y="155.69047619047618" type="line"/>
      <point x="93.45238095238095" y="155.69047619047618" type="line" smooth="yes"/>
      <point x="22.095238095238095" y="155.69047619047618"/>
      <point x="-22.476190476190478" y="117.35714285714286"/>
      <point x="-22.476190476190478" y="47.59523809523809" type="curve" smooth="yes"/>
      <point x="-22.476190476190478" y="-73.02380952380953"/>
      <point x="154.21428571428572" y="-172.90476190476193"/>
      <point x="401.1666666666667" y="-172.90476190476193" type="curve" smooth="yes"/>
      <point x="735.1904761904761" y="-172.90476190476193"/>
      <point x="1018.6428571428571" y="-35.80952380952382"/>
      <point x="1018.6428571428571" y="272.45238095238096" type="curve" smooth="yes"/>
      <point x="1018.6428571428571" y="476.11904761904765"/>
      <point x="862.6190476190476" y="579.5"/>
      <point x="668.0952380952382" y="579.5" type="curve" smooth="yes"/>
      <point x="498.59523809523813" y="579.5"/>
      <point x="374.4761904761905" y="489.1190476190476"/>
      <point x="374.4761904761905" y="358.0" type="curve" smooth="yes"/>
      <point x="374.4761904761905" y="278.07142857142856"/>
      <point x="435.95238095238096" y="212.42857142857144"/>
      <point x="538.5952380952381" y="212.42857142857144" type="curve" smooth="yes"/>
      <point x="649.9761904761905" y="212.42857142857144"/>
      <point x="732.3809523809524" y="273.9761904761905"/>
      <point x="732.3809523809524" y="383.04761904761904" type="curve" smooth="yes"/>
      <point x="732.3809523809524" y="458.14285714285717"/>
      <point x="679.452380952381" y="509.14285714285717"/>
      <point x="609.2142857142858" y="537.2619047619047" type="curve"/>
      <point x="547.0238095238095" y="526.2380952380952" type="line"/>
      <point x="590.952380952381" y="498.92857142857144"/>
      <point x="620.8333333333333" y="453.73809523809524"/>
      <point x="620.8333333333333" y="402.5714285714286" type="curve" smooth="yes"/>
      <point x="620.8333333333333" y="343.1904761904762"/>
      <point x="583.8095238095237" y="302.26190476190476"/>
      <point x="527.1666666666666" y="302.26190476190476" type="curve" smooth="yes"/>
      <point x="489.14285714285717" y="302.26190476190476"/>
      <point x="459.33333333333337" y="325.73809523809524"/>
      <point x="459.33333333333337" y="368.83333333333337" type="curve" smooth="yes"/>
      <point x="459.33333333333337" y="453.4761904761905"/>
      <point x="535.8809523809523" y="510.3809523809524"/>
      <point x="644.9761904761905" y="510.3809523809524" type="curve" smooth="yes"/>
      <point x="751.2619047619048" y="510.3809523809524"/>
      <point x="843.547619047619" y="444.2142857142857"/>
      <point x="843.547619047619" y="306.0952380952381" type="curve" smooth="yes"/>
      <point x="843.547619047619" y="33.92857142857142"/>
      <point x="658.7380952380953" y="-103.78571428571429"/>
      <point x="389.6904761904762" y="-103.78571428571429" type="curve" smooth="yes"/>
      <point x="202.02380952380952" y="-103.78571428571429"/>
      <point x="58.11904761904762" y="-30.52380952380953"/>
      <point x="58.11904761904762" y="44.57142857142857" type="curve" smooth="yes"/>
      <point x="58.11904761904762" y="71.66666666666666"/>
      <point x="69.30952380952381" y="85.92857142857142"/>
      <point x="101.66666666666667" y="85.92857142857142" type="curve" smooth="yes"/>
      <point x="1107.6190476190475" y="85.92857142857142" type="line"/>
    </contour>
  </outline>
</glyph>
<glyph name="aa-tamil" format="2">
  <advance width="1679.5238095238096"/>
  <unicode hex="0B86"/>
  <note>
uni0B86
</note>
  <anchor x="757.1428571428572" y="0.0" name="bottom"/>
  <anchor x="375.0238095238095" y="-172.90476190476193" name="nukta"/>
  <anchor x="881.3571428571429" y="574.5" name="top"/>
  <anchor x="881.2619047619048" y="574.5" name="vedic"/>
  <outline>
    <contour>
      <point x="985.5952380952381" y="-477.5238095238095" type="curve" smooth="yes"/>
      <point x="1298.404761904762" y="-477.5238095238095"/>
      <point x="1582.2619047619048" y="-324.0714285714286"/>
      <point x="1582.2619047619048" y="-56.97619047619048" type="curve" smooth="yes"/>
      <point x="1582.2619047619048" y="49.142857142857146"/>
      <point x="1516.952380952381" y="101.52380952380953"/>
      <point x="1432.7380952380952" y="101.52380952380953" type="curve" smooth="yes"/>
      <point x="1333.3095238095239" y="101.52380952380953"/>
      <point x="1256.642857142857" y="29.833333333333332"/>
      <point x="1212.7142857142858" y="-114.14285714285714" type="curve"/>
      <point x="1248.3809523809523" y="-121.14285714285715" type="line"/>
      <point x="1261.9285714285716" y="-54.66666666666667"/>
      <point x="1299.095238095238" y="-26.095238095238095"/>
      <point x="1335.4761904761906" y="-26.095238095238095" type="curve" smooth="yes"/>
      <point x="1373.0238095238096" y="-26.095238095238095"/>
      <point x="1396.4761904761906" y="-50.738095238095234"/>
      <point x="1396.4761904761906" y="-95.73809523809524" type="curve" smooth="yes"/>
      <point x="1396.4761904761906" y="-276.35714285714283"/>
      <point x="1199.142857142857" y="-406.6666666666667"/>
      <point x="986.1428571428572" y="-406.6666666666667" type="curve" smooth="yes"/>
      <point x="879.4047619047619" y="-406.6666666666667"/>
      <point x="794.8095238095239" y="-377.59523809523813"/>
      <point x="794.8095238095239" y="-303.4047619047619" type="curve" smooth="yes"/>
      <point x="794.8095238095239" y="-248.69047619047618"/>
      <point x="846.9761904761905" y="-218.42857142857142"/>
      <point x="920.3333333333334" y="-204.33333333333334" type="curve"/>
      <point x="910.1428571428571" y="-138.3095238095238" type="line"/>
      <point x="794.0238095238096" y="-163.23809523809524"/>
      <point x="719.2142857142858" y="-217.3095238095238"/>
      <point x="719.2142857142858" y="-311.85714285714283" type="curve" smooth="yes"/>
      <point x="719.2142857142858" y="-416.8809523809524"/>
      <point x="826.8095238095239" y="-477.5238095238095"/>
    </contour>
    <component base="a-tamil"/>
  </outline>
</glyph>
<glyph name="i-tamil" format="2">
  <advance width="1101.6428571428573"/>
  <unicode hex="0B87"/>
  <note>
uni0B87
</note>
  <anchor x="466.33333333333337" y="0.0" name="bottom"/>
  <anchor x="401.5952380952381" y="-295.33333333333337" name="nukta"/>
  <anchor x="616.7380952380952" y="869.5714285714286" name="top"/>
  <anchor x="579.8333333333333" y="574.5" name="vedic"/>
  <outline>
    <contour>
      <point x="130.57142857142858" y="-331.0238095238096" type="curve" smooth="yes"/>
      <point x="496.6904761904762" y="-331.0238095238096"/>
      <point x="868.1904761904761" y="-32.38095238095238"/>
      <point x="868.1904761904761" y="303.16666666666663" type="curve" smooth="yes"/>
      <point x="868.1904761904761" y="489.3571428571429"/>
      <point x="744.3809523809524" y="579.5"/>
      <point x="558.1904761904761" y="579.5" type="curve" smooth="yes"/>
      <point x="405.5238095238095" y="579.5"/>
      <point x="276.8571428571429" y="495.9285714285714"/>
      <point x="276.8571428571429" y="360.35714285714283" type="curve" smooth="yes"/>
      <point x="276.8571428571429" y="282.6904761904762"/>
      <point x="335.3333333333333" y="216.95238095238093"/>
      <point x="431.9047619047619" y="216.95238095238093" type="curve" smooth="yes"/>
      <point x="547.047619047619" y="216.95238095238093"/>
      <point x="629.6190476190477" y="277.42857142857144"/>
      <point x="629.6190476190477" y="386.5714285714286" type="curve" smooth="yes"/>
      <point x="629.6190476190477" y="459.8571428571429"/>
      <point x="577.7142857142858" y="516.9285714285714"/>
      <point x="493.0238095238095" y="541.7857142857143" type="curve"/>
      <point x="442.1666666666667" y="529.2142857142857" type="line"/>
      <point x="486.90476190476187" y="499.8333333333333"/>
      <point x="516.5238095238095" y="453.8095238095238"/>
      <point x="516.5238095238095" y="404.0952380952381" type="curve" smooth="yes"/>
      <point x="516.5238095238095" y="344.9761904761904"/>
      <point x="482.5" y="305.8809523809524"/>
      <point x="423.57142857142856" y="305.8809523809524" type="curve" smooth="yes"/>
      <point x="385.4761904761905" y="305.8809523809524"/>
      <point x="357.64285714285717" y="330.9761904761905"/>
      <point x="357.64285714285717" y="372.9047619047619" type="curve" smooth="yes"/>
      <point x="357.64285714285717" y="447.3333333333333"/>
      <point x="424.95238095238096" y="510.83333333333337"/>
      <point x="540.1904761904761" y="510.83333333333337" type="curve" smooth="yes"/>
      <point x="645.4761904761905" y="510.83333333333337"/>
      <point x="694.7619047619048" y="445.14285714285717"/>
      <point x="694.7619047619048" y="327.14285714285717" type="curve" smooth="yes"/>
      <point x="694.7619047619048" y="14.976190476190473"/>
      <point x="453.0" y="-256.42857142857144"/>
      <point x="144.66666666666666" y="-256.42857142857144" type="curve" smooth="yes"/>
      <point x="70.38095238095238" y="-256.42857142857144"/>
      <point x="24.214285714285715" y="-225.6904761904762"/>
      <point x="24.214285714285715" y="-167.9047619047619" type="curve" smooth="yes"/>
      <point x="24.214285714285715" y="-20.904761904761905"/>
      <point x="280.57142857142856" y="40.52380952380952"/>
      <point x="460.26190476190476" y="40.52380952380952" type="curve" smooth="yes"/>
      <point x="642.9047619047619" y="40.52380952380952"/>
      <point x="858.1666666666666" y="-18.095238095238095"/>
      <point x="858.1666666666666" y="-144.45238095238096" type="curve" smooth="yes"/>
      <point x="858.1666666666666" y="-222.69047619047618"/>
      <point x="798.1904761904763" y="-256.42857142857144"/>
      <point x="703.8333333333334" y="-256.42857142857144" type="curve" smooth="yes"/>
      <point x="422.73809523809524" y="-256.42857142857144"/>
      <point x="142.3809523809524" y="17.166666666666664"/>
      <point x="142.3809523809524" y="293.26190476190476" type="curve" smooth="yes"/>
      <point x="142.3809523809524" y="557.4761904761905"/>
      <point x="320.7857142857143" y="728.4047619047619"/>
      <point x="600.0952380952381" y="728.4047619047619" type="curve" smooth="yes"/>
      <point x="862.2857142857143" y="728.4047619047619"/>
      <point x="1035.2619047619048" y="569.3571428571429"/>
      <point x="977.7380952380953" y="302.2619047619048" type="curve" smooth="yes"/>
      <point x="934.9047619047619" y="102.9047619047619" type="line"/>
      <point x="1012.1190476190477" y="102.9047619047619" type="line"/>
      <point x="1057.5" y="312.26190476190476" type="line" smooth="yes"/>
      <point x="1129.6666666666667" y="643.3809523809524"/>
      <point x="951.6190476190476" y="869.5714285714286"/>
      <point x="616.1904761904761" y="869.5714285714286" type="curve" smooth="yes"/>
      <point x="271.2857142857143" y="869.5714285714286"/>
      <point x="66.14285714285714" y="637.547619047619"/>
      <point x="66.14285714285714" y="313.35714285714283" type="curve" smooth="yes"/>
      <point x="66.14285714285714" y="-27.952380952380956"/>
      <point x="399.1190476190476" y="-330.5714285714286"/>
      <point x="704.047619047619" y="-330.5714285714286" type="curve" smooth="yes"/>
      <point x="840.3809523809524" y="-330.5714285714286"/>
      <point x="940.4047619047619" y="-272.4761904761905"/>
      <point x="940.952380952381" y="-141.54761904761904" type="curve" smooth="yes"/>
      <point x="941.5" y="34.761904761904766"/>
      <point x="699.4761904761905" y="105.9047619047619"/>
      <point x="469.16666666666663" y="105.9047619047619" type="curve" smooth="yes"/>
      <point x="223.33333333333331" y="105.9047619047619"/>
      <point x="-60.47619047619048" y="22.285714285714285"/>
      <point x="-60.47619047619048" y="-183.45238095238096" type="curve" smooth="yes"/>
      <point x="-60.47619047619048" y="-277.2857142857143"/>
      <point x="14.261904761904763" y="-331.0238095238096"/>
    </contour>
  </outline>
</glyph>
<glyph name="ii-tamil" format="2">
  <advance width="913.9047619047619"/>
  <unicode hex="0B88"/>
  <note>
uni0B88
</note>
  <anchor x="405.57142857142856" y="0.0" name="bottom"/>
  <anchor x="406.1190476190476" y="0.0" name="nukta"/>
  <anchor x="530.4047619047619" y="574.5" name="top"/>
  <anchor x="530.3095238095239" y="574.5" name="vedic"/>
  <outline>
    <contour>
      <point x="18.595238095238095" y="0.0" type="line"/>
      <point x="94.71428571428572" y="0.0" type="line"/>
      <point x="202.26190476190476" y="505.83333333333337" type="line"/>
      <point x="489.04761904761904" y="505.83333333333337" type="line"/>
      <point x="380.9523809523809" y="0.0" type="line"/>
      <point x="571.2619047619048" y="0.0" type="line"/>
      <point x="678.8095238095239" y="505.83333333333337" type="line"/>
      <point x="910.1666666666667" y="505.83333333333337" type="line"/>
      <point x="923.8095238095239" y="574.5" type="line"/>
      <point x="140.78571428571428" y="574.5" type="line"/>
    </contour>
    <contour>
      <point x="294.9761904761905" y="188.83333333333334" type="curve" smooth="yes"/>
      <point x="342.61904761904765" y="188.83333333333334"/>
      <point x="381.26190476190476" y="226.38095238095238"/>
      <point x="381.26190476190476" y="272.5714285714286" type="curve" smooth="yes"/>
      <point x="381.26190476190476" y="317.76190476190476"/>
      <point x="343.1666666666667" y="355.85714285714283"/>
      <point x="295.5238095238095" y="355.85714285714283" type="curve" smooth="yes"/>
      <point x="247.33333333333334" y="355.85714285714283"/>
      <point x="209.2380952380952" y="317.76190476190476"/>
      <point x="209.2380952380952" y="272.5714285714286" type="curve" smooth="yes"/>
      <point x="209.2380952380952" y="226.38095238095238"/>
      <point x="246.78571428571428" y="188.83333333333334"/>
    </contour>
    <contour>
      <point x="769.9761904761905" y="188.83333333333334" type="curve" smooth="yes"/>
      <point x="817.6190476190477" y="188.83333333333334"/>
      <point x="856.2619047619047" y="226.38095238095238"/>
      <point x="856.2619047619047" y="272.5714285714286" type="curve" smooth="yes"/>
      <point x="856.2619047619047" y="317.76190476190476"/>
      <point x="818.1666666666667" y="355.85714285714283"/>
      <point x="770.5238095238095" y="355.85714285714283" type="curve" smooth="yes"/>
      <point x="722.3333333333334" y="355.85714285714283"/>
      <point x="684.2380952380952" y="317.76190476190476"/>
      <point x="684.2380952380952" y="272.5714285714286" type="curve" smooth="yes"/>
      <point x="684.2380952380952" y="226.38095238095238"/>
      <point x="721.7857142857143" y="188.83333333333334"/>
    </contour>
  </outline>
</glyph>
<glyph name="u-tamil" format="2">
  <advance width="1010.0"/>
  <unicode hex="0B89"/>
  <note>
uni0B89
</note>
  <anchor x="447.5476190476191" y="0.0" name="bottom"/>
  <anchor x="447.5476190476191" y="0.0" name="nukta"/>
  <anchor x="573.2857142857143" y="574.5" name="top"/>
  <anchor x="572.2857142857143" y="574.5" name="vedic"/>
  <outline>
    <contour>
      <point x="89.28571428571428" y="0.0" type="curve" smooth="yes"/>
      <point x="944.1904761904761" y="0.0" type="line"/>
      <point x="958.8333333333334" y="68.66666666666667" type="line"/>
      <point x="97.0" y="68.66666666666667" type="line" smooth="yes"/>
      <point x="80.54761904761905" y="68.66666666666667"/>
      <point x="65.83333333333334" y="79.21428571428571"/>
      <point x="65.83333333333334" y="96.38095238095238" type="curve" smooth="yes"/>
      <point x="65.83333333333334" y="119.02380952380953"/>
      <point x="86.11904761904762" y="129.54761904761904"/>
      <point x="107.28571428571429" y="129.54761904761904" type="curve" smooth="yes"/>
      <point x="393.5238095238095" y="129.54761904761904" type="line" smooth="yes"/>
      <point x="591.7380952380953" y="129.54761904761904"/>
      <point x="750.4047619047619" y="194.6190476190476"/>
      <point x="750.4047619047619" y="372.0238095238095" type="curve" smooth="yes"/>
      <point x="750.4047619047619" y="513.2380952380952"/>
      <point x="610.0714285714286" y="579.5"/>
      <point x="438.4047619047619" y="579.5" type="curve" smooth="yes"/>
      <point x="260.11904761904765" y="579.5"/>
      <point x="132.42857142857144" y="492.14285714285717"/>
      <point x="132.42857142857144" y="373.0238095238096" type="curve" smooth="yes"/>
      <point x="132.42857142857144" y="295.80952380952385"/>
      <point x="190.54761904761904" y="239.83333333333331"/>
      <point x="284.45238095238096" y="239.83333333333331" type="curve" smooth="yes"/>
      <point x="396.69047619047615" y="239.83333333333331"/>
      <point x="472.85714285714283" y="301.61904761904765"/>
      <point x="472.85714285714283" y="393.59523809523813" type="curve" smooth="yes"/>
      <point x="472.85714285714283" y="457.23809523809524"/>
      <point x="425.40476190476187" y="512.2142857142858"/>
      <point x="358.07142857142856" y="535.0714285714286" type="curve"/>
      <point x="292.2857142857143" y="529.5238095238095" type="line"/>
      <point x="340.85714285714283" y="499.40476190476187"/>
      <point x="367.2142857142857" y="459.3095238095238"/>
      <point x="367.2142857142857" y="414.04761904761904" type="curve" smooth="yes"/>
      <point x="367.2142857142857" y="358.59523809523813"/>
      <point x="330.6666666666667" y="325.6904761904762"/>
      <point x="278.73809523809524" y="325.6904761904762" type="curve" smooth="yes"/>
      <point x="242.92857142857142" y="325.6904761904762"/>
      <point x="216.73809523809524" y="352.11904761904765"/>
      <point x="216.73809523809524" y="390.3095238095238" type="curve" smooth="yes"/>
      <point x="216.73809523809524" y="454.45238095238096"/>
      <point x="283.92857142857144" y="510.92857142857144"/>
      <point x="407.26190476190476" y="510.92857142857144" type="curve" smooth="yes"/>
      <point x="506.66666666666663" y="510.92857142857144"/>
      <point x="571.952380952381" y="469.1190476190476"/>
      <point x="571.952380952381" y="375.64285714285717" type="curve" smooth="yes"/>
      <point x="571.952380952381" y="266.6666666666667"/>
      <point x="500.42857142857144" y="194.57142857142858"/>
      <point x="379.07142857142856" y="194.57142857142858" type="curve" smooth="yes"/>
      <point x="119.64285714285714" y="194.57142857142858" type="line" smooth="yes"/>
      <point x="44.0952380952381" y="194.57142857142858"/>
      <point x="-7.928571428571431" y="155.11904761904762"/>
      <point x="-7.928571428571431" y="89.73809523809524" type="curve" smooth="yes"/>
      <point x="-7.928571428571431" y="36.904761904761905"/>
      <point x="28.904761904761905" y="0.0"/>
    </contour>
  </outline>
</glyph>
<glyph name="uu-tamil" format="2">
  <advance width="1885.7857142857144"/>
  <unicode hex="0B8A"/>
  <note>
uni0B8A
</note>
  <anchor x="890.6190476190476" y="0.0" name="bottom"/>
  <anchor x="890.6190476190476" y="0.0" name="nukta"/>
  <anchor x="1014.8095238095239" y="574.5" name="top"/>
  <anchor x="1015.3571428571429" y="574.5" name="vedic"/>
  <outline>
    <contour>
      <point x="89.28571428571428" y="0.0" type="curve" smooth="yes"/>
      <point x="1766.047619047619" y="0.0" type="line"/>
      <point x="1780.6904761904761" y="68.66666666666667" type="line"/>
      <point x="97.0" y="68.66666666666667" type="line" smooth="yes"/>
      <point x="80.54761904761905" y="68.66666666666667"/>
      <point x="65.83333333333334" y="79.21428571428571"/>
      <point x="65.83333333333334" y="96.38095238095238" type="curve" smooth="yes"/>
      <point x="65.83333333333334" y="119.02380952380953"/>
      <point x="86.11904761904762" y="129.54761904761904"/>
      <point x="107.28571428571429" y="129.54761904761904" type="curve" smooth="yes"/>
      <point x="393.5238095238095" y="129.54761904761904" type="line" smooth="yes"/>
      <point x="591.7380952380953" y="129.54761904761904"/>
      <point x="750.4047619047619" y="194.6190476190476"/>
      <point x="750.4047619047619" y="372.0238095238095" type="curve" smooth="yes"/>
      <point x="750.4047619047619" y="513.2380952380952"/>
      <point x="610.0714285714286" y="579.5"/>
      <point x="438.4047619047619" y="579.5" type="curve" smooth="yes"/>
      <point x="260.11904761904765" y="579.5"/>
      <point x="132.42857142857144" y="492.14285714285717"/>
      <point x="132.42857142857144" y="373.0238095238096" type="curve" smooth="yes"/>
      <point x="132.42857142857144" y="295.80952380952385"/>
      <point x="190.54761904761904" y="239.83333333333331"/>
      <point x="284.45238095238096" y="239.83333333333331" type="curve" smooth="yes"/>
      <point x="396.69047619047615" y="239.83333333333331"/>
      <point x="472.85714285714283" y="301.61904761904765"/>
      <point x="472.85714285714283" y="393.59523809523813" type="curve" smooth="yes"/>
      <point x="472.85714285714283" y="457.23809523809524"/>
      <point x="425.40476190476187" y="512.2142857142858"/>
      <point x="358.07142857142856" y="535.0714285714286" type="curve"/>
      <point x="292.2857142857143" y="529.5238095238095" type="line"/>
      <point x="340.85714285714283" y="499.40476190476187"/>
      <point x="367.2142857142857" y="459.3095238095238"/>
      <point x="367.2142857142857" y="414.04761904761904" type="curve" smooth="yes"/>
      <point x="367.2142857142857" y="358.59523809523813"/>
      <point x="330.6666666666667" y="325.6904761904762"/>
      <point x="278.73809523809524" y="325.6904761904762" type="curve" smooth="yes"/>
      <point x="242.92857142857142" y="325.6904761904762"/>
      <point x="216.73809523809524" y="352.11904761904765"/>
      <point x="216.73809523809524" y="390.3095238095238" type="curve" smooth="yes"/>
      <point x="216.73809523809524" y="454.45238095238096"/>
      <point x="283.92857142857144" y="510.92857142857144"/>
      <point x="407.26190476190476" y="510.92857142857144" type="curve" smooth="yes"/>
      <point x="506.66666666666663" y="510.92857142857144"/>
      <point x="571.952380952381" y="469.1190476190476"/>
      <point x="571.952380952381" y="375.64285714285717" type="curve" smooth="yes"/>
      <point x="571.952380952381" y="266.6666666666667"/>
      <point x="500.42857142857144" y="194.57142857142858"/>
      <point x="379.07142857142856" y="194.57142857142858" type="curve" smooth="yes"/>
      <point x="119.64285714285714" y="194.57142857142858" type="line" smooth="yes"/>
      <point x="44.0952380952381" y="194.57142857142858"/>
      <point x="-7.928571428571431" y="155.11904761904762"/>
      <point x="-7.928571428571431" y="89.73809523809524" type="curve" smooth="yes"/>
      <point x="-7.928571428571431" y="36.904761904761905"/>
      <point x="28.904761904761905" y="0.0"/>
    </contour>
    <contour>
      <point x="1016.7142857142858" y="123.45238095238096" type="curve" smooth="yes"/>
      <point x="1133.1190476190477" y="123.45238095238096"/>
      <point x="1206.952380952381" y="180.64285714285714"/>
      <point x="1206.952380952381" y="281.95238095238096" type="curve" smooth="yes"/>
      <point x="1206.952380952381" y="361.6904761904762"/>
      <point x="1146.7619047619048" y="405.23809523809524"/>
      <point x="1070.5714285714287" y="405.23809523809524" type="curve" smooth="yes"/>
      <point x="967.3809523809524" y="405.23809523809524"/>
      <point x="902.3571428571429" y="332.3095238095238"/>
      <point x="870.7142857142858" y="226.38095238095238" type="curve"/>
      <point x="906.452380952381" y="206.0952380952381" type="line"/>
      <point x="934.2857142857143" y="284.23809523809524"/>
      <point x="972.952380952381" y="333.8333333333333"/>
      <point x="1025.7380952380954" y="333.8333333333333" type="curve" smooth="yes"/>
      <point x="1059.452380952381" y="333.8333333333333"/>
      <point x="1083.8095238095239" y="311.3809523809524"/>
      <point x="1083.8095238095239" y="273.21428571428567" type="curve" smooth="yes"/>
      <point x="1083.8095238095239" y="221.47619047619048"/>
      <point x="1045.0714285714287" y="194.11904761904762"/>
      <point x="994.2619047619048" y="194.11904761904762" type="curve" smooth="yes"/>
      <point x="936.8095238095239" y="194.11904761904762"/>
      <point x="886.3333333333334" y="242.3095238095238"/>
      <point x="886.3333333333334" y="317.04761904761904" type="curve" smooth="yes"/>
      <point x="886.3333333333334" y="434.57142857142856"/>
      <point x="973.547619047619" y="511.3809523809524"/>
      <point x="1098.642857142857" y="511.3809523809524" type="curve" smooth="yes"/>
      <point x="1214.3095238095239" y="511.3809523809524"/>
      <point x="1299.142857142857" y="439.26190476190476"/>
      <point x="1277.6904761904761" y="317.07142857142856" type="curve"/>
      <point x="1352.357142857143" y="317.07142857142856" type="line"/>
      <point x="1375.1666666666667" y="484.5714285714286"/>
      <point x="1266.595238095238" y="579.5"/>
      <point x="1101.1666666666667" y="579.5" type="curve" smooth="yes"/>
      <point x="935.0476190476192" y="579.5"/>
      <point x="809.4761904761905" y="470.11904761904765"/>
      <point x="809.4761904761905" y="312.5714285714286" type="curve" smooth="yes"/>
      <point x="809.4761904761905" y="203.64285714285714"/>
      <point x="895.6904761904761" y="123.45238095238096"/>
    </contour>
    <contour>
      <point x="1236.2380952380952" y="125.0" type="line"/>
      <point x="1395.7142857142856" y="125.0" type="line"/>
      <point x="1478.357142857143" y="510.76190476190476" type="line"/>
      <point x="1616.6190476190477" y="510.76190476190476" type="line"/>
      <point x="1534.4285714285716" y="125.0" type="line"/>
      <point x="1694.904761904762" y="125.0" type="line"/>
      <point x="1776.547619047619" y="510.76190476190476" type="line"/>
      <point x="1871.952380952381" y="510.76190476190476" type="line"/>
      <point x="1885.5" y="574.5" type="line"/>
      <point x="1371.547619047619" y="574.5" type="line"/>
      <point x="1328.452380952381" y="370.3809523809524" type="line"/>
      <point x="1288.3333333333335" y="370.3809523809524" type="line"/>
    </contour>
  </outline>
</glyph>
<glyph name="e-tamil" format="2">
  <advance width="1013.8095238095237"/>
  <unicode hex="0B8E"/>
  <note>
uni0B8E
</note>
  <anchor x="475.04761904761904" y="0.0" name="bottom"/>
  <anchor x="475.5" y="0.0" name="nukta"/>
  <anchor x="600.9761904761905" y="574.5" name="top"/>
  <anchor x="599.7857142857142" y="574.5" name="vedic"/>
  <outline>
    <contour>
      <point x="277.3809523809524" y="-5.0" type="curve" smooth="yes"/>
      <point x="397.14285714285717" y="-5.0"/>
      <point x="499.8095238095238" y="63.83333333333333"/>
      <point x="499.8095238095238" y="192.95238095238096" type="curve" smooth="yes"/>
      <point x="499.8095238095238" y="283.04761904761904"/>
      <point x="436.0952380952381" y="339.9761904761905"/>
      <point x="341.1428571428571" y="339.9761904761905" type="curve" smooth="yes"/>
      <point x="221.26190476190476" y="339.9761904761905"/>
      <point x="138.14285714285714" y="242.5952380952381"/>
      <point x="110.47619047619048" y="115.30952380952381" type="curve"/>
      <point x="153.95238095238096" y="89.73809523809524" type="line"/>
      <point x="173.92857142857142" y="180.3095238095238"/>
      <point x="218.07142857142858" y="236.33333333333334"/>
      <point x="273.26190476190476" y="236.33333333333334" type="curve" smooth="yes"/>
      <point x="317.4047619047619" y="236.33333333333334"/>
      <point x="337.5" y="203.0"/>
      <point x="337.5" y="168.19047619047618" type="curve" smooth="yes"/>
      <point x="337.5" y="117.83333333333333"/>
      <point x="308.4047619047619" y="75.78571428571429"/>
      <point x="243.16666666666666" y="75.78571428571429" type="curve" smooth="yes"/>
      <point x="178.95238095238096" y="75.78571428571429"/>
      <point x="121.38095238095238" y="143.64285714285714"/>
      <point x="121.38095238095238" y="239.04761904761907" type="curve" smooth="yes"/>
      <point x="121.38095238095238" y="411.3095238095238"/>
      <point x="244.66666666666666" y="505.83333333333337"/>
      <point x="467.0952380952381" y="505.83333333333337" type="curve" smooth="yes"/>
      <point x="713.0714285714286" y="505.83333333333337" type="line"/>
      <point x="605.5238095238095" y="0.0" type="line"/>
      <point x="799.6666666666667" y="0.0" type="line"/>
      <point x="906.7619047619048" y="505.83333333333337" type="line"/>
      <point x="1045.904761904762" y="505.83333333333337" type="line"/>
      <point x="1060.547619047619" y="574.5" type="line"/>
      <point x="468.35714285714283" y="574.5" type="line" smooth="yes"/>
      <point x="203.26190476190476" y="574.5"/>
      <point x="48.976190476190474" y="445.6904761904762"/>
      <point x="48.976190476190474" y="230.66666666666666" type="curve" smooth="yes"/>
      <point x="48.976190476190474" y="99.71428571428571"/>
      <point x="138.57142857142856" y="-5.0"/>
    </contour>
  </outline>
</glyph>
<glyph name="ee-tamil" format="2">
  <advance width="1013.2619047619047"/>
  <unicode hex="0B8F"/>
  <note>
uni0B8F
</note>
  <anchor x="474.5" y="0.0" name="bottom"/>
  <anchor x="425.2142857142857" y="-233.14285714285714" name="nukta"/>
  <anchor x="598.6904761904761" y="574.5" name="top"/>
  <anchor x="599.2380952380952" y="574.5" name="vedic"/>
  <outline>
    <contour>
      <point x="341.5714285714286" y="-288.76190476190476" type="line"/>
      <point x="803.3809523809524" y="20.595238095238095" type="line"/>
      <point x="906.6666666666666" y="505.83333333333337" type="line"/>
      <point x="1045.357142857143" y="505.83333333333337" type="line"/>
      <point x="1060.0" y="574.5" type="line"/>
      <point x="468.35714285714283" y="574.5" type="line" smooth="yes"/>
      <point x="203.26190476190476" y="574.5"/>
      <point x="48.976190476190474" y="445.6904761904762"/>
      <point x="48.976190476190474" y="230.66666666666666" type="curve" smooth="yes"/>
      <point x="48.976190476190474" y="99.71428571428571"/>
      <point x="138.57142857142856" y="-5.0"/>
      <point x="277.3809523809524" y="-5.0" type="curve" smooth="yes"/>
      <point x="397.14285714285717" y="-5.0"/>
      <point x="499.8095238095238" y="63.83333333333333"/>
      <point x="499.8095238095238" y="192.95238095238096" type="curve" smooth="yes"/>
      <point x="499.8095238095238" y="283.04761904761904"/>
      <point x="436.0952380952381" y="339.9761904761905"/>
      <point x="341.1428571428571" y="339.9761904761905" type="curve" smooth="yes"/>
      <point x="221.26190476190476" y="339.9761904761905"/>
      <point x="138.14285714285714" y="242.5952380952381"/>
      <point x="110.47619047619048" y="115.30952380952381" type="curve"/>
      <point x="153.95238095238096" y="89.73809523809524" type="line"/>
      <point x="173.92857142857142" y="180.3095238095238"/>
      <point x="218.07142857142858" y="236.33333333333334"/>
      <point x="273.26190476190476" y="236.33333333333334" type="curve" smooth="yes"/>
      <point x="317.4047619047619" y="236.33333333333334"/>
      <point x="337.5" y="203.0"/>
      <point x="337.5" y="168.19047619047618" type="curve" smooth="yes"/>
      <point x="337.5" y="117.83333333333333"/>
      <point x="308.4047619047619" y="75.78571428571429"/>
      <point x="243.16666666666666" y="75.78571428571429" type="curve" smooth="yes"/>
      <point x="178.95238095238096" y="75.78571428571429"/>
      <point x="121.38095238095238" y="143.64285714285714"/>
      <point x="121.38095238095238" y="239.04761904761907" type="curve" smooth="yes"/>
      <point x="121.38095238095238" y="411.3095238095238"/>
      <point x="244.66666666666666" y="505.83333333333337"/>
      <point x="467.0952380952381" y="505.83333333333337" type="curve" smooth="yes"/>
      <point x="713.0714285714286" y="505.83333333333337" type="line"/>
      <point x="601.2380952380952" y="-23.5952380952381" type="line"/>
      <point x="302.92857142857144" y="-226.45238095238096" type="line"/>
    </contour>
  </outline>
</glyph>
<glyph name="ai-tamil" format="2">
  <advance width="1096.6904761904761"/>
  <unicode hex="0B90"/>
  <note>
uni0B90
</note>
  <anchor x="496.59523809523813" y="0.0" name="bottom"/>
  <anchor x="418.8333333333333" y="-330.0238095238096" name="nukta"/>
  <anchor x="622.8333333333333" y="574.5" name="top"/>
  <anchor x="622.1904761904761" y="574.5" name="vedic"/>
  <outline>
    <contour>
      <point x="203.2380952380952" y="-330.0238095238096" type="curve" smooth="yes"/>
      <point x="327.73809523809524" y="-330.0238095238096"/>
      <point x="425.88095238095235" y="-282.45238095238096"/>
      <point x="472.45238095238096" y="-175.52380952380955" type="curve"/>
      <point x="479.5" y="-261.5952380952381"/>
      <point x="561.6190476190476" y="-330.0238095238096"/>
      <point x="694.3809523809524" y="-330.0238095238096" type="curve" smooth="yes"/>
      <point x="850.6666666666667" y="-330.0238095238096"/>
      <point x="966.6904761904763" y="-240.85714285714286"/>
      <point x="966.6904761904763" y="-81.35714285714286" type="curve" smooth="yes"/>
      <point x="966.6904761904763" y="-25.26190476190476"/>
      <point x="951.8571428571429" y="20.761904761904766"/>
      <point x="930.3095238095239" y="66.02380952380952" type="curve"/>
      <point x="861.1666666666667" y="31.904761904761905" type="line"/>
      <point x="878.8095238095239" y="-6.547619047619049"/>
      <point x="890.0" y="-41.285714285714285"/>
      <point x="890.0" y="-80.73809523809524" type="curve" smooth="yes"/>
      <point x="890.0" y="-188.97619047619045"/>
      <point x="810.3095238095239" y="-258.6190476190476"/>
      <point x="694.0238095238095" y="-258.6190476190476" type="curve" smooth="yes"/>
      <point x="588.5476190476192" y="-258.6190476190476"/>
      <point x="552.3571428571429" y="-189.30952380952382"/>
      <point x="573.9047619047619" y="-82.40476190476191" type="curve" smooth="yes"/>
      <point x="585.7380952380953" y="-23.428571428571427" type="line"/>
      <point x="420.9047619047619" y="-23.428571428571427" type="line"/>
      <point x="406.3571428571429" y="-90.97619047619048" type="line" smooth="yes"/>
      <point x="383.0952380952381" y="-199.54761904761904"/>
      <point x="328.78571428571433" y="-257.5238095238095"/>
      <point x="244.92857142857142" y="-257.5238095238095" type="curve" smooth="yes"/>
      <point x="175.73809523809524" y="-257.5238095238095"/>
      <point x="145.04761904761907" y="-212.78571428571428"/>
      <point x="145.04761904761907" y="-145.35714285714286" type="curve" smooth="yes"/>
      <point x="145.04761904761907" y="31.904761904761905"/>
      <point x="315.35714285714283" y="53.357142857142854"/>
      <point x="551.9047619047619" y="74.07142857142857" type="curve" smooth="yes"/>
      <point x="839.2619047619047" y="99.23809523809523"/>
      <point x="1065.2380952380952" y="162.16666666666666"/>
      <point x="1065.2380952380952" y="392.64285714285717" type="curve" smooth="yes"/>
      <point x="1065.2380952380952" y="510.0952380952381"/>
      <point x="980.6190476190476" y="579.952380952381"/>
      <point x="842.7619047619047" y="579.952380952381" type="curve" smooth="yes"/>
      <point x="735.7857142857143" y="579.952380952381"/>
      <point x="650.1190476190477" y="537.5238095238095"/>
      <point x="602.8333333333334" y="444.42857142857144" type="curve"/>
      <point x="579.3809523809524" y="535.3333333333334"/>
      <point x="490.2857142857143" y="579.952380952381"/>
      <point x="368.8571428571429" y="579.952380952381" type="curve" smooth="yes"/>
      <point x="201.52380952380952" y="579.952380952381"/>
      <point x="67.97619047619047" y="481.5476190476191"/>
      <point x="67.97619047619047" y="324.26190476190476" type="curve" smooth="yes"/>
      <point x="67.97619047619047" y="227.9047619047619"/>
      <point x="136.07142857142858" y="153.52380952380952"/>
      <point x="242.45238095238093" y="153.52380952380952" type="curve" smooth="yes"/>
      <point x="337.4761904761905" y="153.52380952380952"/>
      <point x="423.2857142857143" y="201.35714285714283"/>
      <point x="423.2857142857143" y="299.0952380952381" type="curve" smooth="yes"/>
      <point x="423.2857142857143" y="368.45238095238096"/>
      <point x="373.92857142857144" y="409.4523809523809"/>
      <point x="299.3809523809524" y="409.4523809523809" type="curve" smooth="yes"/>
      <point x="214.2619047619048" y="409.4523809523809"/>
      <point x="143.35714285714286" y="357.4047619047619"/>
      <point x="109.19047619047619" y="232.33333333333331" type="curve"/>
      <point x="147.92857142857144" y="215.88095238095238" type="line"/>
      <point x="175.3095238095238" y="307.1666666666667"/>
      <point x="214.19047619047618" y="338.40476190476187"/>
      <point x="252.16666666666666" y="338.40476190476187" type="curve" smooth="yes"/>
      <point x="285.04761904761904" y="338.40476190476187"/>
      <point x="302.85714285714283" y="317.1428571428571"/>
      <point x="302.85714285714283" y="289.1666666666667" type="curve" smooth="yes"/>
      <point x="302.85714285714283" y="248.83333333333334"/>
      <point x="274.07142857142856" y="225.38095238095238"/>
      <point x="231.45238095238093" y="225.38095238095238" type="curve" smooth="yes"/>
      <point x="180.0" y="225.38095238095238"/>
      <point x="142.47619047619048" y="270.6666666666667"/>
      <point x="142.47619047619048" y="334.6428571428571" type="curve" smooth="yes"/>
      <point x="142.47619047619048" y="444.90476190476187"/>
      <point x="242.40476190476193" y="508.64285714285717"/>
      <point x="357.76190476190476" y="508.64285714285717" type="curve" smooth="yes"/>
      <point x="465.4761904761905" y="508.64285714285717"/>
      <point x="519.9047619047619" y="447.45238095238096"/>
      <point x="498.3571428571429" y="350.3571428571429" type="curve" smooth="yes"/>
      <point x="467.7142857142857" y="209.33333333333331" type="line"/>
      <point x="632.547619047619" y="209.33333333333331" type="line"/>
      <point x="669.6428571428572" y="385.6428571428571" type="line" smooth="yes"/>
      <point x="686.547619047619" y="466.3571428571429"/>
      <point x="731.547619047619" y="507.0"/>
      <point x="792.3571428571428" y="507.0" type="curve" smooth="yes"/>
      <point x="853.547619047619" y="507.0"/>
      <point x="886.5238095238095" y="469.1666666666667"/>
      <point x="886.5238095238095" y="401.26190476190476" type="curve" smooth="yes"/>
      <point x="886.5238095238095" y="190.16666666666666"/>
      <point x="743.5238095238095" y="150.42857142857142"/>
      <point x="443.35714285714283" y="121.80952380952381" type="curve" smooth="yes"/>
      <point x="192.80952380952382" y="98.0952380952381"/>
      <point x="-33.66666666666667" y="60.28571428571428"/>
      <point x="-33.66666666666667" y="-137.64285714285714" type="curve" smooth="yes"/>
      <point x="-33.66666666666667" y="-255.11904761904762"/>
      <point x="57.66666666666667" y="-330.0238095238096"/>
    </contour>
  </outline>
</glyph>
<glyph name="o-tamil" format="2">
  <advance width="1124.857142857143"/>
  <unicode hex="0B92"/>
  <note>
uni0B92
</note>
  <anchor x="497.1428571428571" y="0.0" name="bottom"/>
  <anchor x="423.5952380952381" y="-335.0" name="nukta"/>
  <anchor x="593.2857142857142" y="574.5" name="top"/>
  <anchor x="593.2857142857143" y="574.5" name="vedic"/>
  <outline>
    <contour>
      <point x="276.7857142857143" y="-386.57142857142856" type="curve" smooth="yes"/>
      <point x="534.7857142857143" y="-386.57142857142856"/>
      <point x="601.0238095238096" y="-162.0"/>
      <point x="787.4047619047619" y="-162.0" type="curve" smooth="yes"/>
      <point x="858.6190476190477" y="-162.0" type="line"/>
      <point x="873.7142857142857" y="-89.42857142857143" type="line"/>
      <point x="773.5" y="-89.42857142857143" type="line" smooth="yes"/>
      <point x="578.4761904761905" y="-89.42857142857143"/>
      <point x="524.6666666666666" y="95.33333333333333"/>
      <point x="668.4047619047619" y="237.76190476190476" type="curve"/>
      <point x="673.4047619047619" y="234.21428571428572" type="line"/>
      <point x="603.5952380952381" y="105.09523809523809"/>
      <point x="649.4285714285714" y="-3.3571428571428568"/>
      <point x="803.0952380952382" y="-3.3571428571428568" type="curve" smooth="yes"/>
      <point x="950.7380952380953" y="-3.3571428571428568"/>
      <point x="1064.952380952381" y="94.54761904761905"/>
      <point x="1064.952380952381" y="249.92857142857142" type="curve" smooth="yes"/>
      <point x="1064.952380952381" y="482.2142857142857"/>
      <point x="824.0" y="579.5"/>
      <point x="564.1666666666666" y="579.5" type="curve" smooth="yes"/>
      <point x="265.83333333333337" y="579.5"/>
      <point x="43.976190476190474" y="434.0714285714286"/>
      <point x="43.976190476190474" y="221.21428571428572" type="curve" smooth="yes"/>
      <point x="43.976190476190474" y="92.45238095238096"/>
      <point x="129.04761904761907" y="-5.0"/>
      <point x="267.8571428571429" y="-5.0" type="curve" smooth="yes"/>
      <point x="387.6190476190476" y="-5.0"/>
      <point x="491.19047619047615" y="63.83333333333333"/>
      <point x="491.19047619047615" y="192.95238095238096" type="curve" smooth="yes"/>
      <point x="491.19047619047615" y="283.04761904761904"/>
      <point x="428.3809523809524" y="339.9761904761905"/>
      <point x="333.42857142857144" y="339.9761904761905" type="curve" smooth="yes"/>
      <point x="213.54761904761904" y="339.9761904761905"/>
      <point x="129.07142857142856" y="242.5952380952381"/>
      <point x="101.40476190476191" y="115.30952380952381" type="curve"/>
      <point x="144.88095238095238" y="89.73809523809524" type="line"/>
      <point x="164.85714285714286" y="180.3095238095238"/>
      <point x="210.35714285714283" y="236.33333333333334"/>
      <point x="265.54761904761904" y="236.33333333333334" type="curve" smooth="yes"/>
      <point x="309.69047619047615" y="236.33333333333334"/>
      <point x="328.88095238095235" y="203.0"/>
      <point x="328.88095238095235" y="168.19047619047618" type="curve" smooth="yes"/>
      <point x="328.88095238095235" y="117.83333333333333"/>
      <point x="298.88095238095235" y="75.78571428571429"/>
      <point x="233.64285714285714" y="75.78571428571429" type="curve" smooth="yes"/>
      <point x="169.42857142857144" y="75.78571428571429"/>
      <point x="116.38095238095238" y="136.38095238095238"/>
      <point x="116.38095238095238" y="229.59523809523807" type="curve" smooth="yes"/>
      <point x="116.38095238095238" y="394.6666666666667"/>
      <point x="311.11904761904765" y="506.45238095238096"/>
      <point x="541.8571428571429" y="506.45238095238096" type="curve" smooth="yes"/>
      <point x="744.6904761904763" y="506.45238095238096"/>
      <point x="893.6666666666666" y="425.1666666666667"/>
      <point x="893.6666666666666" y="264.92857142857144" type="curve" smooth="yes"/>
      <point x="893.6666666666666" y="168.2619047619048"/>
      <point x="851.6904761904763" y="81.26190476190477"/>
      <point x="764.7857142857142" y="81.26190476190477" type="curve" smooth="yes"/>
      <point x="683.452380952381" y="81.26190476190477"/>
      <point x="698.9047619047619" y="205.88095238095238"/>
      <point x="765.4285714285714" y="288.04761904761904" type="curve"/>
      <point x="702.3809523809524" y="340.61904761904765" type="line"/>
      <point x="521.0714285714286" y="216.16666666666666"/>
      <point x="449.4047619047619" y="-13.928571428571432"/>
      <point x="621.3809523809524" y="-110.6190476190476" type="curve"/>
      <point x="620.3809523809524" y="-115.6190476190476" type="line"/>
      <point x="458.0238095238095" y="-137.0"/>
      <point x="382.40476190476187" y="-308.7142857142857"/>
      <point x="242.14285714285717" y="-308.7142857142857" type="curve" smooth="yes"/>
      <point x="185.88095238095238" y="-308.7142857142857"/>
      <point x="155.5952380952381" y="-273.35714285714283"/>
      <point x="155.5952380952381" y="-230.7142857142857" type="curve" smooth="yes"/>
      <point x="155.5952380952381" y="-181.16666666666666"/>
      <point x="185.7857142857143" y="-153.07142857142858"/>
      <point x="239.14285714285714" y="-119.52380952380952" type="curve"/>
      <point x="209.3095238095238" y="-71.14285714285714" type="line"/>
      <point x="138.11904761904762" y="-117.52380952380952"/>
      <point x="89.64285714285715" y="-162.61904761904762"/>
      <point x="89.64285714285715" y="-241.0952380952381" type="curve" smooth="yes"/>
      <point x="89.64285714285715" y="-320.1190476190476"/>
      <point x="152.83333333333334" y="-386.57142857142856"/>
    </contour>
  </outline>
</glyph>
<glyph name="oo-tamil" format="2">
  <advance width="1124.857142857143"/>
  <unicode hex="0B93"/>
  <note>
uni0B93
</note>
  <anchor x="496.7619047619048" y="0.0" name="bottom"/>
  <anchor x="414.92857142857144" y="-376.5238095238096" name="nukta"/>
  <anchor x="593.2857142857142" y="574.5" name="top"/>
  <anchor x="593.2857142857143" y="574.5" name="vedic"/>
  <outline>
    <contour>
      <point x="232.42857142857144" y="-424.23809523809524" type="curve" smooth="yes"/>
      <point x="521.4285714285714" y="-424.23809523809524"/>
      <point x="601.0238095238095" y="-164.1904761904762"/>
      <point x="787.4047619047619" y="-164.1904761904762" type="curve" smooth="yes"/>
      <point x="852.2857142857142" y="-164.1904761904762" type="line"/>
      <point x="867.3809523809524" y="-91.61904761904762" type="line"/>
      <point x="773.5" y="-91.61904761904762" type="line" smooth="yes"/>
      <point x="578.4761904761905" y="-91.61904761904762"/>
      <point x="524.6666666666667" y="95.33333333333333"/>
      <point x="668.4047619047619" y="237.7619047619048" type="curve"/>
      <point x="673.4047619047619" y="234.21428571428572" type="line"/>
      <point x="603.5952380952381" y="105.09523809523809"/>
      <point x="649.4285714285714" y="-3.3571428571428568"/>
      <point x="803.0952380952382" y="-3.3571428571428568" type="curve" smooth="yes"/>
      <point x="950.7380952380953" y="-3.3571428571428568"/>
      <point x="1064.952380952381" y="94.54761904761905"/>
      <point x="1064.952380952381" y="249.92857142857142" type="curve" smooth="yes"/>
      <point x="1064.952380952381" y="482.2142857142857"/>
      <point x="824.0" y="579.5"/>
      <point x="564.1666666666666" y="579.5" type="curve" smooth="yes"/>
      <point x="265.83333333333337" y="579.5"/>
      <point x="43.976190476190474" y="434.0714285714286"/>
      <point x="43.976190476190474" y="221.21428571428572" type="curve" smooth="yes"/>
      <point x="43.976190476190474" y="92.45238095238096"/>
      <point x="129.04761904761907" y="-5.0"/>
      <point x="267.8571428571429" y="-5.0" type="curve" smooth="yes"/>
      <point x="387.6190476190476" y="-5.0"/>
      <point x="491.19047619047615" y="63.83333333333333"/>
      <point x="491.19047619047615" y="192.95238095238096" type="curve" smooth="yes"/>
      <point x="491.19047619047615" y="283.04761904761904"/>
      <point x="428.3809523809524" y="339.9761904761905"/>
      <point x="333.42857142857144" y="339.9761904761905" type="curve" smooth="yes"/>
      <point x="213.54761904761904" y="339.9761904761905"/>
      <point x="129.07142857142856" y="242.5952380952381"/>
      <point x="101.40476190476191" y="115.30952380952381" type="curve"/>
      <point x="144.88095238095238" y="89.73809523809524" type="line"/>
      <point x="164.85714285714286" y="180.3095238095238"/>
      <point x="210.35714285714283" y="236.33333333333334"/>
      <point x="265.54761904761904" y="236.33333333333334" type="curve" smooth="yes"/>
      <point x="309.69047619047615" y="236.33333333333334"/>
      <point x="328.88095238095235" y="203.0"/>
      <point x="328.88095238095235" y="168.19047619047618" type="curve" smooth="yes"/>
      <point x="328.88095238095235" y="117.83333333333333"/>
      <point x="298.88095238095235" y="75.78571428571429"/>
      <point x="233.64285714285714" y="75.78571428571429" type="curve" smooth="yes"/>
      <point x="169.42857142857144" y="75.78571428571429"/>
      <point x="116.38095238095238" y="136.38095238095238"/>
      <point x="116.38095238095238" y="229.59523809523807" type="curve" smooth="yes"/>
      <point x="116.38095238095238" y="394.6666666666667"/>
      <point x="311.11904761904765" y="506.45238095238096"/>
      <point x="541.8571428571429" y="506.45238095238096" type="curve" smooth="yes"/>
      <point x="744.6904761904763" y="506.45238095238096"/>
      <point x="893.6666666666666" y="425.1666666666667"/>
      <point x="893.6666666666666" y="264.92857142857144" type="curve" smooth="yes"/>
      <point x="893.6666666666666" y="168.2619047619048"/>
      <point x="851.6904761904763" y="81.26190476190477"/>
      <point x="764.7857142857142" y="81.26190476190477" type="curve" smooth="yes"/>
      <point x="683.452380952381" y="81.26190476190477"/>
      <point x="698.9047619047619" y="205.88095238095238"/>
      <point x="765.4285714285714" y="288.04761904761904" type="curve"/>
      <point x="702.3809523809524" y="340.61904761904765" type="line"/>
      <point x="521.0714285714286" y="216.16666666666666"/>
      <point x="449.4047619047619" y="-16.119047619047624"/>
      <point x="621.3809523809524" y="-112.8095238095238" type="curve"/>
      <point x="620.3809523809524" y="-117.8095238095238" type="line"/>
      <point x="458.0238095238096" y="-139.19047619047618"/>
      <point x="365.3333333333333" y="-347.73809523809524"/>
      <point x="197.69047619047618" y="-347.73809523809524" type="curve" smooth="yes"/>
      <point x="123.5952380952381" y="-347.73809523809524"/>
      <point x="92.30952380952381" y="-304.19047619047615"/>
      <point x="92.30952380952381" y="-254.73809523809524" type="curve" smooth="yes"/>
      <point x="92.30952380952381" y="-202.28571428571428"/>
      <point x="126.66666666666666" y="-159.64285714285717"/>
      <point x="180.04761904761907" y="-159.64285714285717" type="curve" smooth="yes"/>
      <point x="228.6904761904762" y="-159.64285714285717"/>
      <point x="266.95238095238096" y="-191.66666666666669"/>
      <point x="272.6666666666667" y="-252.57142857142856" type="curve"/>
      <point x="329.4761904761905" y="-232.3095238095238"/>
      <point x="370.0476190476191" y="-195.66666666666669"/>
      <point x="370.0476190476191" y="-141.19047619047618" type="curve" smooth="yes"/>
      <point x="370.0476190476191" y="-86.35714285714286"/>
      <point x="316.3095238095238" y="-57.523809523809526"/>
      <point x="248.02380952380952" y="-57.523809523809526" type="curve" smooth="yes"/>
      <point x="123.47619047619048" y="-57.523809523809526"/>
      <point x="26.642857142857142" y="-144.2619047619048"/>
      <point x="26.642857142857142" y="-264.0238095238095" type="curve" smooth="yes"/>
      <point x="26.642857142857142" y="-361.23809523809524"/>
      <point x="104.95238095238096" y="-424.23809523809524"/>
    </contour>
  </outline>
</glyph>
<glyph name="ja-tamil" format="2">
  <advance width="1102.5"/>
  <unicode hex="0B9C"/>
  <note>
uni0B9C
</note>
  <anchor x="492.1190476190476" y="0.0" name="bottom"/>
  <anchor x="414.35714285714283" y="-330.0238095238096" name="nukta"/>
  <anchor x="605.4761904761905" y="574.5" name="top"/>
  <anchor x="601.0238095238095" y="574.5" name="vedic"/>
  <outline>
    <contour>
      <point x="179.04761904761904" y="-330.0238095238096" type="curve" smooth="yes"/>
      <point x="418.0238095238095" y="-330.0238095238096"/>
      <point x="497.0" y="-28.11904761904762"/>
      <point x="686.8809523809524" y="-28.11904761904762" type="curve" smooth="yes"/>
      <point x="755.0714285714286" y="-28.11904761904762"/>
      <point x="787.2380952380953" y="-65.28571428571429"/>
      <point x="787.2380952380953" y="-126.83333333333334" type="curve" smooth="yes"/>
      <point x="787.2380952380953" y="-204.2857142857143"/>
      <point x="730.4047619047618" y="-251.97619047619048"/>
      <point x="654.5238095238095" y="-251.97619047619048" type="curve" smooth="yes"/>
      <point x="620.3333333333334" y="-251.97619047619048"/>
      <point x="584.9761904761905" y="-240.88095238095238"/>
      <point x="551.9047619047619" y="-217.7142857142857" type="curve"/>
      <point x="511.5" y="-270.85714285714283" type="line"/>
      <point x="566.1190476190476" y="-314.4761904761905"/>
      <point x="626.5" y="-330.0238095238096"/>
      <point x="700.8809523809524" y="-330.0238095238096" type="curve" smooth="yes"/>
      <point x="844.1190476190476" y="-330.0238095238096"/>
      <point x="966.0476190476192" y="-255.64285714285714"/>
      <point x="966.0476190476192" y="-120.80952380952381" type="curve" smooth="yes"/>
      <point x="966.0476190476192" y="-10.166666666666664"/>
      <point x="880.047619047619" y="49.57142857142858"/>
      <point x="756.8809523809524" y="50.11904761904762" type="curve" smooth="yes"/>
      <point x="473.04761904761904" y="51.761904761904766"/>
      <point x="396.54761904761904" y="-249.3095238095238"/>
      <point x="236.47619047619048" y="-249.3095238095238" type="curve" smooth="yes"/>
      <point x="174.38095238095235" y="-249.3095238095238"/>
      <point x="147.85714285714286" y="-204.1190476190476"/>
      <point x="147.85714285714286" y="-131.69047619047618" type="curve" smooth="yes"/>
      <point x="147.85714285714286" y="28.047619047619044"/>
      <point x="299.21428571428567" y="57.54761904761905"/>
      <point x="547.0714285714286" y="81.16666666666666" type="curve" smooth="yes"/>
      <point x="834.4285714285714" y="108.33333333333333"/>
      <point x="1062.047619047619" y="162.16666666666669"/>
      <point x="1062.047619047619" y="392.64285714285717" type="curve" smooth="yes"/>
      <point x="1062.047619047619" y="510.0952380952381"/>
      <point x="977.4285714285714" y="579.952380952381"/>
      <point x="839.5714285714286" y="579.952380952381" type="curve" smooth="yes"/>
      <point x="732.5952380952381" y="579.952380952381"/>
      <point x="646.9285714285714" y="537.5238095238095"/>
      <point x="599.6428571428571" y="444.42857142857144" type="curve"/>
      <point x="576.1904761904761" y="535.3333333333334"/>
      <point x="487.0952380952381" y="579.952380952381"/>
      <point x="365.6666666666667" y="579.952380952381" type="curve" smooth="yes"/>
      <point x="198.33333333333334" y="579.952380952381"/>
      <point x="64.78571428571429" y="481.5476190476191"/>
      <point x="64.78571428571429" y="324.26190476190476" type="curve" smooth="yes"/>
      <point x="64.78571428571429" y="227.9047619047619"/>
      <point x="132.88095238095238" y="153.52380952380952"/>
      <point x="239.26190476190476" y="153.52380952380952" type="curve" smooth="yes"/>
      <point x="334.28571428571433" y="153.52380952380952"/>
      <point x="420.09523809523813" y="201.35714285714283"/>
      <point x="420.09523809523813" y="299.0952380952381" type="curve" smooth="yes"/>
      <point x="420.09523809523813" y="368.45238095238096"/>
      <point x="370.73809523809524" y="409.4523809523809"/>
      <point x="296.1904761904762" y="409.4523809523809" type="curve" smooth="yes"/>
      <point x="211.07142857142858" y="409.4523809523809"/>
      <point x="140.16666666666666" y="357.4047619047619"/>
      <point x="106.0" y="232.33333333333331" type="curve"/>
      <point x="144.73809523809524" y="215.88095238095238" type="line"/>
      <point x="172.11904761904762" y="307.1666666666667"/>
      <point x="211.0" y="338.40476190476187"/>
      <point x="248.97619047619048" y="338.40476190476187" type="curve" smooth="yes"/>
      <point x="281.85714285714283" y="338.40476190476187"/>
      <point x="299.6666666666667" y="317.1428571428571"/>
      <point x="299.6666666666667" y="289.1666666666667" type="curve" smooth="yes"/>
      <point x="299.6666666666667" y="248.83333333333334"/>
      <point x="270.8809523809524" y="225.38095238095238"/>
      <point x="228.26190476190476" y="225.38095238095238" type="curve" smooth="yes"/>
      <point x="176.8095238095238" y="225.38095238095238"/>
      <point x="139.28571428571428" y="270.6666666666667"/>
      <point x="139.28571428571428" y="334.6428571428571" type="curve" smooth="yes"/>
      <point x="139.28571428571428" y="444.90476190476187"/>
      <point x="239.21428571428572" y="508.64285714285717"/>
      <point x="354.57142857142856" y="508.64285714285717" type="curve" smooth="yes"/>
      <point x="462.28571428571433" y="508.64285714285717"/>
      <point x="516.7142857142858" y="447.45238095238096"/>
      <point x="495.16666666666663" y="350.3571428571429" type="curve" smooth="yes"/>
      <point x="464.5238095238095" y="209.33333333333331" type="line"/>
      <point x="629.3571428571429" y="209.33333333333331" type="line"/>
      <point x="666.452380952381" y="385.6428571428571" type="line" smooth="yes"/>
      <point x="683.3571428571429" y="466.3571428571429"/>
      <point x="728.8095238095237" y="507.0"/>
      <point x="789.6190476190477" y="507.0" type="curve" smooth="yes"/>
      <point x="850.8095238095239" y="507.0"/>
      <point x="883.3333333333334" y="469.1666666666667"/>
      <point x="883.3333333333334" y="401.26190476190476" type="curve" smooth="yes"/>
      <point x="883.3333333333334" y="190.16666666666669"/>
      <point x="738.6904761904761" y="151.35714285714286"/>
      <point x="438.5238095238095" y="121.64285714285715" type="curve" smooth="yes"/>
      <point x="173.1904761904762" y="95.73809523809523"/>
      <point x="-30.85714285714286" y="48.76190476190476"/>
      <point x="-30.85714285714286" y="-132.73809523809524" type="curve" smooth="yes"/>
      <point x="-30.85714285714286" y="-249.1904761904762"/>
      <point x="41.4047619047619" y="-330.0238095238096"/>
    </contour>
  </outline>
</glyph>
<glyph name="nya-tamil" format="2">
  <advance width="1480.142857142857"/>
  <unicode hex="0B9E"/>
  <note>
uni0B9E
</note>
  <anchor x="707.2142857142858" y="0.0" name="bottom"/>
  <anchor x="1187.0952380952383" y="574.5" name="imatra"/>
  <anchor x="627.952380952381" y="-388.11904761904765" name="nukta"/>
  <anchor x="852.4285714285714" y="574.5" name="top"/>
  <anchor x="806.0714285714287" y="574.5" name="vedic"/>
  <outline>
    <contour>
      <point x="627.952380952381" y="-388.11904761904765" type="curve" smooth="yes"/>
      <point x="1059.642857142857" y="-388.11904761904765"/>
      <point x="1399.3333333333333" y="-166.07142857142858"/>
      <point x="1399.3333333333333" y="158.0" type="curve" smooth="yes"/>
      <point x="1399.3333333333333" y="283.6666666666667"/>
      <point x="1333.4761904761904" y="346.4761904761905"/>
      <point x="1234.7619047619048" y="346.4761904761905" type="curve" smooth="yes"/>
      <point x="1127.6190476190477" y="346.4761904761905"/>
      <point x="1053.047619047619" y="252.85714285714286"/>
      <point x="1031.2142857142858" y="162.35714285714283" type="curve" smooth="yes"/>
      <point x="1025.952380952381" y="139.95238095238096" type="line"/>
      <point x="1060.4285714285716" y="139.95238095238096" type="line"/>
      <point x="1065.2380952380952" y="162.8095238095238" type="line" smooth="yes"/>
      <point x="1075.5238095238096" y="208.57142857142856"/>
      <point x="1102.8809523809523" y="236.11904761904765"/>
      <point x="1142.5238095238096" y="236.11904761904765" type="curve" smooth="yes"/>
      <point x="1185.9761904761904" y="236.11904761904765"/>
      <point x="1213.5238095238096" y="204.85714285714286"/>
      <point x="1213.5238095238096" y="134.95238095238096" type="curve" smooth="yes"/>
      <point x="1213.5238095238096" y="-115.88095238095238"/>
      <point x="982.7857142857143" y="-313.9761904761905"/>
      <point x="628.2142857142858" y="-313.9761904761905" type="curve" smooth="yes"/>
      <point x="309.45238095238096" y="-313.9761904761905"/>
      <point x="107.95238095238095" y="-124.0"/>
      <point x="107.95238095238095" y="150.42857142857144" type="curve" smooth="yes"/>
      <point x="107.95238095238095" y="342.4761904761904"/>
      <point x="193.40476190476193" y="486.0952380952381"/>
      <point x="364.26190476190476" y="641.547619047619" type="curve"/>
      <point x="315.5952380952381" y="691.4761904761905" type="line"/>
      <point x="132.64285714285714" y="526.2857142857143"/>
      <point x="28.261904761904763" y="356.40476190476187"/>
      <point x="28.261904761904763" y="139.5952380952381" type="curve" smooth="yes"/>
      <point x="28.261904761904763" y="-162.47619047619048"/>
      <point x="270.1666666666667" y="-388.11904761904765"/>
    </contour>
    <component base="e-tamil" xOffset="233.6904761904762"/>
  </outline>
</glyph>
<glyph name="tta-tamil" format="2">
  <advance width="969.8571428571429"/>
  <unicode hex="0B9F"/>
  <note>
uni0B9F
</note>
  <anchor x="428.6190476190476" y="0.0" name="bottom"/>
  <anchor x="428.6190476190476" y="0.0" name="nukta"/>
  <anchor x="586.7142857142858" y="574.5" name="top"/>
  <anchor x="583.2380952380953" y="574.5" name="vedic"/>
  <outline>
    <contour>
      <point x="18.595238095238095" y="0.0" type="line"/>
      <point x="903.5952380952381" y="0.0" type="line"/>
      <point x="918.2380952380953" y="68.66666666666667" type="line"/>
      <point x="223.16666666666666" y="68.66666666666667" type="line"/>
      <point x="331.26190476190476" y="574.5" type="line"/>
      <point x="140.78571428571428" y="574.5" type="line"/>
    </contour>
  </outline>
</glyph>
<glyph name="ta-tamil" format="2">
  <advance width="942.7142857142858"/>
  <unicode hex="0BA4"/>
  <note>
uni0BA4
</note>
  <anchor x="387.30952380952385" y="0.0" name="bottom"/>
  <anchor x="671.2142857142857" y="574.5" name="imatra"/>
  <anchor x="431.0476190476191" y="-133.64285714285714" name="nukta"/>
  <anchor x="536.7619047619047" y="574.5" name="top"/>
  <anchor x="529.6428571428571" y="574.5" name="vedic"/>
  <outline>
    <contour>
      <point x="107.14285714285715" y="-292.16666666666663" type="curve"/>
      <point x="128.42857142857144" y="-191.38095238095238"/>
      <point x="173.1904761904762" y="-131.45238095238096"/>
      <point x="299.3333333333333" y="-131.45238095238096" type="curve" smooth="yes"/>
      <point x="463.42857142857144" y="-131.45238095238096" type="line" smooth="yes"/>
      <point x="680.0238095238095" y="-131.45238095238096"/>
      <point x="857.0" y="-48.642857142857146"/>
      <point x="857.0" y="140.0" type="curve" smooth="yes"/>
      <point x="857.0" y="289.1190476190476"/>
      <point x="742.1904761904761" y="340.3095238095238"/>
      <point x="599.7857142857143" y="340.3095238095238" type="curve" smooth="yes"/>
      <point x="584.952380952381" y="340.3095238095238" type="line"/>
      <point x="619.8571428571429" y="505.28571428571433" type="line"/>
      <point x="773.8571428571429" y="505.28571428571433" type="line"/>
      <point x="788.5000000000001" y="574.5" type="line"/>
      <point x="231.35714285714286" y="574.5" type="line"/>
      <point x="174.26190476190476" y="305.0238095238095" type="line"/>
      <point x="249.57142857142858" y="305.0238095238095" type="line"/>
      <point x="292.0238095238095" y="505.28571428571433" type="line"/>
      <point x="430.1904761904762" y="505.28571428571433" type="line"/>
      <point x="394.8333333333333" y="340.3095238095238" type="line"/>
      <point x="257.92857142857144" y="340.3095238095238" type="line" smooth="yes"/>
      <point x="132.1904761904762" y="340.3095238095238"/>
      <point x="37.28571428571429" y="272.76190476190476"/>
      <point x="37.28571428571429" y="159.47619047619048" type="curve" smooth="yes"/>
      <point x="37.28571428571429" y="68.90476190476191"/>
      <point x="109.30952380952381" y="-4.0"/>
      <point x="267.1666666666667" y="-4.0" type="curve" smooth="yes"/>
      <point x="448.8333333333333" y="-4.0"/>
      <point x="527.0238095238095" y="80.28571428571428"/>
      <point x="559.3095238095239" y="222.47619047619048" type="curve" smooth="yes"/>
      <point x="570.3095238095239" y="271.09523809523813" type="line"/>
      <point x="580.2142857142858" y="271.09523809523813" type="line" smooth="yes"/>
      <point x="636.0238095238095" y="271.09523809523813"/>
      <point x="679.2619047619048" y="234.3809523809524"/>
      <point x="679.2619047619048" y="142.38095238095238" type="curve" smooth="yes"/>
      <point x="679.2619047619048" y="-3.21428571428571"/>
      <point x="585.9047619047619" y="-71.33333333333333"/>
      <point x="409.4761904761905" y="-71.33333333333333" type="curve" smooth="yes"/>
      <point x="243.5" y="-71.33333333333333" type="line" smooth="yes"/>
      <point x="92.23809523809524" y="-71.33333333333333"/>
      <point x="-22.285714285714285" y="-101.97619047619047"/>
      <point x="-22.285714285714285" y="-201.40476190476193" type="curve" smooth="yes"/>
      <point x="-22.285714285714285" y="-261.7857142857143"/>
      <point x="29.28571428571429" y="-292.16666666666663"/>
    </contour>
    <contour>
      <point x="222.47619047619048" y="73.04761904761905" type="curve" smooth="yes"/>
      <point x="155.6904761904762" y="73.04761904761905"/>
      <point x="113.11904761904762" y="108.66666666666667"/>
      <point x="113.11904761904762" y="169.02380952380952" type="curve" smooth="yes"/>
      <point x="113.11904761904762" y="235.38095238095238"/>
      <point x="159.2142857142857" y="271.09523809523813"/>
      <point x="253.0952380952381" y="271.09523809523813" type="curve" smooth="yes"/>
      <point x="380.1904761904762" y="271.09523809523813" type="line"/>
      <point x="369.73809523809524" y="221.92857142857142" type="line" smooth="yes"/>
      <point x="348.1904761904762" y="122.38095238095238"/>
      <point x="308.73809523809524" y="73.04761904761905"/>
    </contour>
  </outline>
</glyph>
<glyph name="na-tamil" format="2">
  <advance width="884.2857142857142"/>
  <unicode hex="0BA8"/>
  <note>
uni0BA8
</note>
  <anchor x="353.4761904761905" y="0.0" name="bottom"/>
  <anchor x="614.4285714285714" y="574.5" name="imatra"/>
  <anchor x="306.2619047619048" y="-248.80952380952382" name="nukta"/>
  <anchor x="481.8333333333333" y="574.5" name="top"/>
  <anchor x="515.2857142857142" y="574.5" name="vedic"/>
  <outline>
    <contour>
      <point x="103.50000000000001" y="-292.16666666666663" type="curve"/>
      <point x="124.78571428571429" y="-191.38095238095238"/>
      <point x="169.54761904761907" y="-129.26190476190476"/>
      <point x="295.6904761904762" y="-129.26190476190476" type="curve" smooth="yes"/>
      <point x="408.1666666666667" y="-129.26190476190476" type="line" smooth="yes"/>
      <point x="618.6666666666667" y="-129.26190476190476"/>
      <point x="811.1190476190476" y="-33.76190476190476"/>
      <point x="811.1190476190476" y="180.66666666666669" type="curve" smooth="yes"/>
      <point x="811.1190476190476" y="291.40476190476187"/>
      <point x="744.8333333333334" y="353.59523809523813"/>
      <point x="649.8095238095239" y="353.59523809523813" type="curve" smooth="yes"/>
      <point x="578.3333333333334" y="353.59523809523813"/>
      <point x="534.8571428571429" y="320.9523809523809"/>
      <point x="499.1904761904762" y="280.09523809523813" type="curve"/>
      <point x="547.2857142857143" y="505.83333333333337" type="line"/>
      <point x="687.7857142857142" y="505.83333333333337" type="line"/>
      <point x="702.4285714285714" y="574.5" type="line"/>
      <point x="146.80952380952382" y="574.5" type="line"/>
      <point x="24.61904761904762" y="0.0" type="line"/>
      <point x="100.73809523809524" y="0.0" type="line"/>
      <point x="207.83333333333331" y="505.83333333333337" type="line"/>
      <point x="356.16666666666663" y="505.83333333333337" type="line"/>
      <point x="249.07142857142856" y="0.0" type="line"/>
      <point x="439.73809523809524" y="0.0" type="line"/>
      <point x="475.3571428571429" y="168.83333333333331" type="line" smooth="yes"/>
      <point x="485.0" y="215.14285714285714"/>
      <point x="513.2857142857143" y="243.23809523809527"/>
      <point x="554.5714285714286" y="243.23809523809527" type="curve" smooth="yes"/>
      <point x="600.2142857142857" y="243.23809523809527"/>
      <point x="625.3095238095239" y="212.14285714285714"/>
      <point x="625.3095238095239" y="157.61904761904762" type="curve" smooth="yes"/>
      <point x="625.3095238095239" y="6.619047619047618"/>
      <point x="520.0714285714286" y="-69.69047619047619"/>
      <point x="366.95238095238096" y="-69.69047619047619" type="curve" smooth="yes"/>
      <point x="239.85714285714286" y="-69.69047619047619" type="line" smooth="yes"/>
      <point x="88.5952380952381" y="-69.69047619047619"/>
      <point x="-25.92857142857143" y="-101.97619047619047"/>
      <point x="-25.92857142857143" y="-201.40476190476193" type="curve" smooth="yes"/>
      <point x="-25.92857142857143" y="-261.7857142857143"/>
      <point x="25.642857142857146" y="-292.16666666666663"/>
    </contour>
  </outline>
</glyph>
<glyph name="nnna-tamil" format="2">
  <advance width="1474.7619047619046"/>
  <unicode hex="0BA9"/>
  <note>
uni0BA9
</note>
  <anchor x="653.6190476190476" y="0.0" name="bottom"/>
  <anchor x="1361.3809523809523" y="574.5" name="imatra"/>
  <anchor x="655.2619047619047" y="0.0" name="nukta"/>
  <anchor x="825.7619047619047" y="574.5" name="top"/>
  <anchor x="818.7380952380952" y="574.5" name="vedic"/>
  <outline>
    <contour>
      <point x="274.3809523809524" y="-5.0" type="curve" smooth="yes"/>
      <point x="394.14285714285717" y="-5.0"/>
      <point x="496.80952380952385" y="63.83333333333333"/>
      <point x="496.80952380952385" y="192.95238095238096" type="curve" smooth="yes"/>
      <point x="496.80952380952385" y="283.04761904761904"/>
      <point x="433.0952380952381" y="339.9761904761905"/>
      <point x="338.14285714285717" y="339.9761904761905" type="curve" smooth="yes"/>
      <point x="218.26190476190476" y="339.9761904761905"/>
      <point x="135.14285714285714" y="242.5952380952381"/>
      <point x="107.47619047619047" y="115.30952380952381" type="curve"/>
      <point x="150.95238095238096" y="89.73809523809524" type="line"/>
      <point x="170.92857142857144" y="180.3095238095238"/>
      <point x="215.07142857142856" y="236.33333333333334"/>
      <point x="270.26190476190476" y="236.33333333333334" type="curve" smooth="yes"/>
      <point x="314.4047619047619" y="236.33333333333334"/>
      <point x="334.49999999999994" y="203.0"/>
      <point x="334.49999999999994" y="168.19047619047618" type="curve" smooth="yes"/>
      <point x="334.49999999999994" y="117.83333333333333"/>
      <point x="305.4047619047619" y="75.78571428571429"/>
      <point x="240.16666666666669" y="75.78571428571429" type="curve" smooth="yes"/>
      <point x="175.95238095238096" y="75.78571428571429"/>
      <point x="118.38095238095238" y="143.64285714285714"/>
      <point x="118.38095238095238" y="239.04761904761907" type="curve" smooth="yes"/>
      <point x="118.38095238095238" y="397.54761904761904"/>
      <point x="293.45238095238096" y="506.45238095238096"/>
      <point x="480.1904761904762" y="506.45238095238096" type="curve" smooth="yes"/>
      <point x="661.6666666666667" y="506.45238095238096"/>
      <point x="816.5" y="416.5238095238095"/>
      <point x="816.5" y="248.14285714285714" type="curve" smooth="yes"/>
      <point x="816.5" y="144.88095238095238"/>
      <point x="775.4047619047619" y="84.16666666666667"/>
      <point x="710.3333333333334" y="84.16666666666667" type="curve" smooth="yes"/>
      <point x="667.4285714285713" y="84.16666666666667"/>
      <point x="643.6190476190476" y="124.33333333333333"/>
      <point x="643.6190476190476" y="190.4047619047619" type="curve" smooth="yes"/>
      <point x="643.6190476190476" y="396.95238095238096"/>
      <point x="876.8809523809524" y="505.83333333333337"/>
      <point x="1097.6904761904761" y="505.83333333333337" type="curve" smooth="yes"/>
      <point x="1506.857142857143" y="505.83333333333337" type="line"/>
      <point x="1521.5" y="574.5" type="line"/>
      <point x="1104.142857142857" y="574.5" type="line" smooth="yes"/>
      <point x="830.5952380952381" y="574.5"/>
      <point x="570.2142857142858" y="435.6904761904762"/>
      <point x="570.2142857142858" y="190.02380952380955" type="curve" smooth="yes"/>
      <point x="570.2142857142858" y="88.28571428571429"/>
      <point x="621.3333333333334" y="-4.4523809523809526"/>
      <point x="751.8095238095239" y="-4.4523809523809526" type="curve" smooth="yes"/>
      <point x="879.8571428571429" y="-4.4523809523809526"/>
      <point x="983.952380952381" y="75.26190476190477"/>
      <point x="983.952380952381" y="228.47619047619048" type="curve" smooth="yes"/>
      <point x="983.952380952381" y="469.35714285714283"/>
      <point x="745.0" y="579.5"/>
      <point x="502.5" y="579.5" type="curve" smooth="yes"/>
      <point x="251.64285714285714" y="579.5"/>
      <point x="45.976190476190474" y="437.85714285714283"/>
      <point x="45.976190476190474" y="230.66666666666666" type="curve" smooth="yes"/>
      <point x="45.976190476190474" y="99.71428571428571"/>
      <point x="135.57142857142858" y="-5.0"/>
    </contour>
    <contour>
      <point x="1066.4761904761904" y="0.0" type="line"/>
      <point x="1259.5238095238094" y="0.0" type="line"/>
      <point x="1374.2619047619046" y="540.4047619047619" type="line"/>
      <point x="1181.1190476190477" y="540.4047619047619" type="line"/>
    </contour>
  </outline>
</glyph>
<glyph name="pa-tamil" format="2">
  <advance width="973.8333333333334"/>
  <unicode hex="0BAA"/>
  <note>
uni0BAA
</note>
  <anchor x="429.7857142857143" y="0.0" name="bottom"/>
  <anchor x="946.6904761904763" y="574.5" name="imatra"/>
  <anchor x="429.7857142857143" y="0.0" name="nukta"/>
  <anchor x="550.8095238095239" y="574.5" name="top"/>
  <anchor x="550.4285714285714" y="574.5" name="vedic"/>
  <outline>
    <contour>
      <point x="18.595238095238095" y="0.0" type="line"/>
      <point x="833.5" y="0.0" type="line"/>
      <point x="955.2380952380952" y="574.5" type="line"/>
      <point x="765.7619047619048" y="574.5" type="line"/>
      <point x="658.2142857142858" y="68.66666666666667" type="line"/>
      <point x="222.45238095238096" y="68.66666666666667" type="line"/>
      <point x="330.0" y="574.5" type="line"/>
      <point x="140.78571428571428" y="574.5" type="line"/>
    </contour>
  </outline>
</glyph>
<glyph name="ma-tamil" format="2">
  <advance width="970.2380952380952"/>
  <unicode hex="0BAE"/>
  <note>
uni0BAE
</note>
  <anchor x="416.3571428571429" y="0.0" name="bottom"/>
  <anchor x="968.7142857142857" y="574.5" name="imatra"/>
  <anchor x="416.9047619047619" y="0.0" name="nukta"/>
  <anchor x="571.1666666666666" y="574.5" name="top"/>
  <anchor x="559.4761904761905" y="574.5" name="vedic"/>
  <outline>
    <contour>
      <point x="18.595238095238095" y="0.0" type="line"/>
      <point x="683.7619047619048" y="0.0" type="line" smooth="yes"/>
      <point x="847.5238095238095" y="0.0"/>
      <point x="910.0714285714286" y="145.1904761904762"/>
      <point x="910.0714285714286" y="326.3809523809524" type="curve" smooth="yes"/>
      <point x="910.0714285714286" y="479.38095238095235"/>
      <point x="845.2619047619048" y="579.952380952381"/>
      <point x="698.4047619047618" y="579.952380952381" type="curve" smooth="yes"/>
      <point x="573.0" y="579.952380952381"/>
      <point x="492.5476190476191" y="511.1190476190476"/>
      <point x="467.45238095238096" y="390.1904761904762" type="curve" smooth="yes"/>
      <point x="399.54761904761904" y="68.66666666666667" type="line"/>
      <point x="223.71428571428572" y="68.66666666666667" type="line"/>
      <point x="331.26190476190476" y="574.5" type="line"/>
      <point x="140.78571428571428" y="574.5" type="line"/>
    </contour>
    <contour>
      <point x="590.2142857142858" y="68.66666666666667" type="line"/>
      <point x="660.1190476190477" y="401.1904761904762" type="line" smooth="yes"/>
      <point x="674.5714285714286" y="471.09523809523813"/>
      <point x="697.5476190476192" y="499.0"/>
      <point x="742.8095238095237" y="499.0" type="curve" smooth="yes"/>
      <point x="801.7857142857142" y="499.0"/>
      <point x="836.047619047619" y="436.73809523809524"/>
      <point x="836.047619047619" y="315.1904761904762" type="curve" smooth="yes"/>
      <point x="836.047619047619" y="187.09523809523807"/>
      <point x="797.6904761904761" y="68.66666666666667"/>
      <point x="693.4047619047619" y="68.66666666666667" type="curve" smooth="yes"/>
    </contour>
  </outline>
</glyph>
<glyph name="ra-tamil" format="2">
  <advance width="691.2619047619048"/>
  <unicode hex="0BB0"/>
  <note>
uni0BB0
</note>
  <anchor x="283.38095238095235" y="0.0" name="bottom"/>
  <anchor x="646.8571428571429" y="574.5" name="imatra"/>
  <anchor x="231.0" y="-248.80952380952382" name="nukta"/>
  <anchor x="422.04761904761904" y="574.5" name="top"/>
  <anchor x="442.66666666666663" y="574.5" name="vedic"/>
  <outline>
    <contour>
      <point x="17.83333333333333" y="-288.76190476190476" type="line"/>
      <point x="479.64285714285717" y="20.59523809523809" type="line"/>
      <point x="582.3809523809524" y="505.83333333333337" type="line"/>
      <point x="723.3571428571429" y="505.83333333333337" type="line"/>
      <point x="738.0" y="574.5" type="line"/>
      <point x="146.8095238095238" y="574.5" type="line"/>
      <point x="24.61904761904762" y="0.0" type="line"/>
      <point x="100.73809523809524" y="0.0" type="line"/>
      <point x="208.28571428571428" y="505.83333333333337" type="line"/>
      <point x="391.54761904761904" y="505.83333333333337" type="line"/>
      <point x="278.9047619047619" y="-23.023809523809526" type="line"/>
      <point x="-20.80952380952381" y="-226.45238095238096" type="line"/>
    </contour>
  </outline>
</glyph>
<glyph name="rra-tamil" format="2">
  <advance width="965.047619047619"/>
  <unicode hex="0BB1"/>
  <note>
uni0BB1
</note>
  <anchor x="460.5952380952381" y="0.0" name="bottom"/>
  <anchor x="429.42857142857144" y="-157.7142857142857" name="nukta"/>
  <anchor x="534.6904761904761" y="578.3333333333334" name="top"/>
  <anchor x="530.547619047619" y="574.5" name="vedic"/>
  <outline>
    <contour>
      <point x="91.47619047619048" y="-292.6428571428571" type="curve"/>
      <point x="112.76190476190477" y="-191.85714285714286"/>
      <point x="157.52380952380955" y="-131.92857142857144"/>
      <point x="283.6666666666667" y="-131.92857142857144" type="curve" smooth="yes"/>
      <point x="424.38095238095235" y="-131.92857142857144" type="line" smooth="yes"/>
      <point x="733.9761904761905" y="-131.92857142857144"/>
      <point x="924.047619047619" y="17.904761904761905"/>
      <point x="924.047619047619" y="321.09523809523813" type="curve" smooth="yes"/>
      <point x="924.047619047619" y="489.6666666666667"/>
      <point x="827.0238095238095" y="580.5952380952381"/>
      <point x="679.7857142857143" y="580.5952380952381" type="curve" smooth="yes"/>
      <point x="571.8095238095237" y="580.5952380952381"/>
      <point x="487.9047619047619" y="523.8095238095239"/>
      <point x="451.33333333333337" y="443.7142857142857" type="curve"/>
      <point x="442.42857142857144" y="524.6904761904761"/>
      <point x="388.4761904761904" y="579.5952380952381"/>
      <point x="297.92857142857144" y="579.5952380952381" type="curve" smooth="yes"/>
      <point x="194.64285714285714" y="579.5952380952381"/>
      <point x="125.71428571428572" y="514.1428571428571"/>
      <point x="100.61904761904762" y="395.85714285714283" type="curve" smooth="yes"/>
      <point x="16.428571428571423" y="0.0" type="line"/>
      <point x="94.19047619047619" y="0.0" type="line"/>
      <point x="176.38095238095238" y="386.8571428571429" type="line" smooth="yes"/>
      <point x="193.38095238095238" y="465.8571428571429"/>
      <point x="227.11904761904762" y="504.83333333333337"/>
      <point x="278.19047619047615" y="504.83333333333337" type="curve" smooth="yes"/>
      <point x="340.8333333333333" y="504.83333333333337"/>
      <point x="358.45238095238096" y="450.90476190476187"/>
      <point x="343.0" y="377.64285714285717" type="curve" smooth="yes"/>
      <point x="262.45238095238096" y="0.0" type="line"/>
      <point x="454.2142857142857" y="0.0" type="line"/>
      <point x="532.7619047619048" y="368.80952380952385" type="line" smooth="yes"/>
      <point x="551.7619047619048" y="458.61904761904765"/>
      <point x="590.1904761904761" y="505.28571428571433"/>
      <point x="647.7619047619048" y="505.28571428571433" type="curve" smooth="yes"/>
      <point x="712.7619047619047" y="505.28571428571433"/>
      <point x="737.0238095238095" y="450.0238095238096"/>
      <point x="737.0238095238095" y="364.42857142857144" type="curve" smooth="yes"/>
      <point x="737.0238095238095" y="110.30952380952381"/>
      <point x="645.5" y="-72.35714285714286"/>
      <point x="402.11904761904765" y="-72.35714285714286" type="curve" smooth="yes"/>
      <point x="228.28571428571428" y="-72.35714285714286" type="line" smooth="yes"/>
      <point x="76.57142857142857" y="-72.35714285714286"/>
      <point x="-37.952380952380956" y="-102.45238095238095"/>
      <point x="-37.952380952380956" y="-201.88095238095238" type="curve" smooth="yes"/>
      <point x="-37.952380952380956" y="-262.26190476190476"/>
      <point x="13.619047619047619" y="-292.6428571428571"/>
    </contour>
  </outline>
</glyph>
<glyph name="la-tamil" format="2">
  <advance width="1169.5714285714287"/>
  <unicode hex="0BB2"/>
  <note>
uni0BB2
</note>
  <anchor x="525.7619047619048" y="0.0" name="bottom"/>
  <anchor x="524.1190476190477" y="0.0" name="nukta"/>
  <anchor x="638.2619047619047" y="574.5" name="top"/>
  <anchor x="647.2380952380953" y="574.5" name="vedic"/>
  <outline>
    <contour>
      <point x="275.8333333333333" y="-5.0" type="curve" smooth="yes"/>
      <point x="395.5952380952381" y="-5.0"/>
      <point x="498.2619047619048" y="63.83333333333333"/>
      <point x="498.2619047619048" y="192.95238095238096" type="curve" smooth="yes"/>
      <point x="498.2619047619048" y="283.04761904761904"/>
      <point x="434.54761904761904" y="339.9761904761905"/>
      <point x="339.59523809523813" y="339.9761904761905" type="curve" smooth="yes"/>
      <point x="219.71428571428572" y="339.9761904761905"/>
      <point x="136.59523809523807" y="242.5952380952381"/>
      <point x="108.92857142857143" y="115.30952380952381" type="curve"/>
      <point x="152.4047619047619" y="89.73809523809524" type="line"/>
      <point x="172.38095238095238" y="180.3095238095238"/>
      <point x="216.52380952380952" y="236.33333333333334"/>
      <point x="271.7142857142857" y="236.33333333333334" type="curve" smooth="yes"/>
      <point x="315.85714285714283" y="236.33333333333334"/>
      <point x="335.9523809523809" y="203.0"/>
      <point x="335.9523809523809" y="168.19047619047618" type="curve" smooth="yes"/>
      <point x="335.9523809523809" y="117.83333333333333"/>
      <point x="306.8571428571429" y="75.78571428571429"/>
      <point x="241.61904761904762" y="75.78571428571429" type="curve" smooth="yes"/>
      <point x="177.4047619047619" y="75.78571428571429"/>
      <point x="119.83333333333334" y="143.64285714285714"/>
      <point x="119.83333333333334" y="239.04761904761907" type="curve" smooth="yes"/>
      <point x="119.83333333333334" y="399.8095238095238"/>
      <point x="253.28571428571428" y="504.26190476190476"/>
      <point x="428.9047619047619" y="504.26190476190476" type="curve" smooth="yes"/>
      <point x="578.9285714285714" y="504.26190476190476"/>
      <point x="650.1428571428571" y="417.07142857142856"/>
      <point x="616.4047619047619" y="266.8095238095238" type="curve" smooth="yes"/>
      <point x="603.5" y="208.76190476190476" type="line" smooth="yes"/>
      <point x="574.1190476190476" y="78.64285714285714"/>
      <point x="661.0952380952382" y="-5.0"/>
      <point x="801.9047619047619" y="-5.0" type="curve" smooth="yes"/>
      <point x="1000.2857142857143" y="-5.0"/>
      <point x="1129.404761904762" y="161.9047619047619"/>
      <point x="1129.404761904762" y="361.9285714285714" type="curve" smooth="yes"/>
      <point x="1129.404761904762" y="451.8571428571429"/>
      <point x="1103.3095238095239" y="515.3095238095237"/>
      <point x="1067.404761904762" y="578.952380952381" type="curve"/>
      <point x="1002.547619047619" y="543.6666666666666" type="line"/>
      <point x="1033.904761904762" y="484.1190476190476"/>
      <point x="1055.547619047619" y="429.11904761904765"/>
      <point x="1055.547619047619" y="354.21428571428567" type="curve" smooth="yes"/>
      <point x="1055.547619047619" y="200.02380952380952"/>
      <point x="953.9047619047619" y="73.52380952380953"/>
      <point x="851.8809523809524" y="73.52380952380953" type="curve" smooth="yes"/>
      <point x="786.3571428571429" y="73.52380952380953"/>
      <point x="775.452380952381" y="125.95238095238095"/>
      <point x="793.0952380952381" y="199.78571428571428" type="curve" smooth="yes"/>
      <point x="810.8095238095237" y="275.1666666666667" type="line" smooth="yes"/>
      <point x="860.4761904761905" y="483.7857142857143"/>
      <point x="696.3095238095239" y="579.5"/>
      <point x="479.42857142857144" y="579.5" type="curve" smooth="yes"/>
      <point x="225.1904761904762" y="579.5"/>
      <point x="47.42857142857143" y="442.8571428571429"/>
      <point x="47.42857142857143" y="230.66666666666666" type="curve" smooth="yes"/>
      <point x="47.42857142857143" y="99.71428571428571"/>
      <point x="137.02380952380955" y="-5.0"/>
    </contour>
  </outline>
</glyph>
<glyph name="llla-tamil" format="2">
  <advance width="970.2380952380952"/>
  <unicode hex="0BB4"/>
  <note>
uni0BB4
</note>
  <anchor x="445.38095238095235" y="0.0" name="bottom"/>
  <anchor x="368.6666666666667" y="-388.2142857142857" name="nukta"/>
  <anchor x="571.1666666666666" y="574.5" name="top"/>
  <anchor x="559.4761904761905" y="574.5" name="vedic"/>
  <anchor x="968.7142857142857" y="574.5" name="imatra"/>
  <outline>
    <contour>
      <point x="226.5952380952381" y="-428.3333333333333" type="curve" smooth="yes"/>
      <point x="485.33333333333337" y="-428.3333333333333"/>
      <point x="541.6666666666666" y="-204.83333333333331"/>
      <point x="726.4761904761905" y="-204.83333333333331" type="curve" smooth="yes"/>
      <point x="762.6904761904763" y="-204.83333333333331" type="line"/>
      <point x="778.2380952380952" y="-135.54761904761904" type="line"/>
      <point x="721.5714285714287" y="-135.54761904761904" type="line" smooth="yes"/>
      <point x="628.7142857142858" y="-135.54761904761904"/>
      <point x="557.0238095238095" y="-88.73809523809524"/>
      <point x="576.7619047619047" y="5.952380952380955" type="curve" smooth="yes"/>
      <point x="601.0238095238095" y="122.0" type="line"/>
      <point x="410.9047619047619" y="122.0" type="line"/>
      <point x="388.64285714285717" y="11.500000000000004" type="line" smooth="yes"/>
      <point x="371.0" y="-74.90476190476191"/>
      <point x="448.6904761904762" y="-141.54761904761904"/>
      <point x="561.1666666666666" y="-158.19047619047618" type="curve"/>
      <point x="559.6190476190476" y="-163.73809523809524" type="line"/>
      <point x="387.6666666666667" y="-184.04761904761904"/>
      <point x="332.2857142857143" y="-347.6428571428571"/>
      <point x="190.2857142857143" y="-347.6428571428571" type="curve" smooth="yes"/>
      <point x="130.28571428571428" y="-347.6428571428571"/>
      <point x="87.38095238095238" y="-308.28571428571433"/>
      <point x="87.38095238095238" y="-252.9047619047619" type="curve" smooth="yes"/>
      <point x="87.38095238095238" y="-197.47619047619048"/>
      <point x="127.64285714285714" y="-155.9047619047619"/>
      <point x="184.83333333333334" y="-155.9047619047619" type="curve" smooth="yes"/>
      <point x="222.95238095238096" y="-155.9047619047619"/>
      <point x="256.95238095238096" y="-173.28571428571428"/>
      <point x="283.14285714285717" y="-203.02380952380952" type="curve"/>
      <point x="335.8095238095238" y="-153.45238095238096" type="line"/>
      <point x="298.6190476190476" y="-110.61904761904762"/>
      <point x="248.04761904761904" y="-87.78571428571428"/>
      <point x="185.83333333333334" y="-87.78571428571428" type="curve" smooth="yes"/>
      <point x="83.80952380952381" y="-87.78571428571428"/>
      <point x="14.523809523809518" y="-161.71428571428572"/>
      <point x="14.523809523809518" y="-259.8333333333333" type="curve" smooth="yes"/>
      <point x="14.523809523809518" y="-355.0238095238095"/>
      <point x="94.61904761904762" y="-428.3333333333333"/>
    </contour>
    <component base="ma-tamil"/>
  </outline>
</glyph>
<glyph name="va-tamil" format="2">
  <advance width="1233.857142857143"/>
  <unicode hex="0BB5"/>
  <note>
uni0BB5
</note>
  <anchor x="584.452380952381" y="0.0" name="bottom"/>
  <anchor x="1049.3095238095239" y="574.5" name="imatra"/>
  <anchor x="579.5238095238095" y="0.0" name="nukta"/>
  <anchor x="685.6428571428571" y="574.5" name="top"/>
  <anchor x="674.0238095238096" y="574.5" name="vedic"/>
  <outline>
    <contour>
      <point x="274.83333333333337" y="-5.0" type="curve" smooth="yes"/>
      <point x="394.59523809523813" y="-5.0"/>
      <point x="497.26190476190476" y="63.83333333333333"/>
      <point x="497.26190476190476" y="192.95238095238096" type="curve" smooth="yes"/>
      <point x="497.26190476190476" y="283.04761904761904"/>
      <point x="433.54761904761904" y="339.9761904761905"/>
      <point x="338.5952380952381" y="339.9761904761905" type="curve" smooth="yes"/>
      <point x="218.7142857142857" y="339.9761904761905"/>
      <point x="135.5952380952381" y="242.5952380952381"/>
      <point x="107.92857142857143" y="115.30952380952381" type="curve"/>
      <point x="151.40476190476193" y="89.73809523809524" type="line"/>
      <point x="171.38095238095238" y="180.3095238095238"/>
      <point x="215.52380952380952" y="236.33333333333334"/>
      <point x="270.7142857142857" y="236.33333333333334" type="curve" smooth="yes"/>
      <point x="314.8571428571429" y="236.33333333333334"/>
      <point x="334.9523809523809" y="203.0"/>
      <point x="334.9523809523809" y="168.19047619047618" type="curve" smooth="yes"/>
      <point x="334.9523809523809" y="117.83333333333333"/>
      <point x="305.8571428571429" y="75.78571428571429"/>
      <point x="240.61904761904762" y="75.78571428571429" type="curve" smooth="yes"/>
      <point x="176.40476190476193" y="75.78571428571429"/>
      <point x="118.83333333333333" y="143.64285714285714"/>
      <point x="118.83333333333333" y="239.04761904761907" type="curve" smooth="yes"/>
      <point x="118.83333333333333" y="386.1428571428571"/>
      <point x="268.07142857142856" y="505.3571428571429"/>
      <point x="427.5238095238095" y="505.3571428571429" type="curve" smooth="yes"/>
      <point x="564.0238095238095" y="505.3571428571429"/>
      <point x="652.3809523809524" y="431.26190476190476"/>
      <point x="652.3809523809524" y="293.3333333333333" type="curve" smooth="yes"/>
      <point x="652.3809523809524" y="196.64285714285714"/>
      <point x="606.7857142857143" y="118.38095238095238"/>
      <point x="544.452380952381" y="47.285714285714285" type="curve"/>
      <point x="557.0952380952382" y="0.0" type="line"/>
      <point x="1093.5238095238096" y="0.0" type="line"/>
      <point x="1215.2619047619046" y="574.5" type="line"/>
      <point x="1025.6904761904761" y="574.5" type="line"/>
      <point x="918.1428571428571" y="68.66666666666667" type="line"/>
      <point x="691.7857142857143" y="68.66666666666667" type="line"/>
      <point x="771.6904761904763" y="128.38095238095238"/>
      <point x="837.3333333333334" y="207.1904761904762"/>
      <point x="837.3333333333334" y="321.4761904761905" type="curve" smooth="yes"/>
      <point x="837.3333333333334" y="493.5952380952381"/>
      <point x="679.7619047619047" y="579.5"/>
      <point x="473.6190476190476" y="579.5" type="curve" smooth="yes"/>
      <point x="233.26190476190476" y="579.5"/>
      <point x="46.42857142857142" y="426.45238095238096"/>
      <point x="46.42857142857142" y="230.66666666666666" type="curve" smooth="yes"/>
      <point x="46.42857142857142" y="99.71428571428571"/>
      <point x="136.02380952380952" y="-5.0"/>
    </contour>
  </outline>
</glyph>
<glyph name="aaMatra-tamil" format="2">
  <advance width="683.4047619047619"/>
  <unicode hex="0BBE"/>
  <note>
uni0BBE
</note>
  <anchor x="300.35714285714283" y="0.0" name="bottom"/>
  <anchor x="299.35714285714283" y="0.0" name="nukta"/>
  <anchor x="415.54761904761904" y="574.5" name="top"/>
  <anchor x="415.54761904761904" y="574.5" name="vedic"/>
  <outline>
    <contour>
      <point x="18.595238095238095" y="0.0" type="line"/>
      <point x="94.71428571428572" y="0.0" type="line"/>
      <point x="202.26190476190476" y="505.83333333333337" type="line"/>
      <point x="386.5238095238095" y="505.83333333333337" type="line"/>
      <point x="278.42857142857144" y="0.0" type="line"/>
      <point x="468.7380952380953" y="0.0" type="line"/>
      <point x="576.2857142857142" y="505.83333333333337" type="line"/>
      <point x="715.5" y="505.83333333333337" type="line"/>
      <point x="729.1428571428571" y="574.5" type="line"/>
      <point x="140.78571428571428" y="574.5" type="line"/>
    </contour>
  </outline>
</glyph>
<glyph name="iMatra-tamil" format="2">
  <advance width="228.95238095238096"/>
  <unicode hex="0BBF"/>
  <note>
uni0BBF
</note>
  <anchor x="-82.76190476190476" y="891.0" name="top"/>
  <outline>
    <contour>
      <point x="12.404761904761902" y="0.0" type="line"/>
      <point x="90.26190476190476" y="0.0" type="line"/>
      <point x="205.35714285714286" y="539.2857142857143" type="line" smooth="yes"/>
      <point x="249.73809523809524" y="747.9047619047619"/>
      <point x="132.07142857142856" y="891.0"/>
      <point x="-82.76190476190476" y="891.0" type="curve" smooth="yes"/>
      <point x="-240.78571428571428" y="891.0"/>
      <point x="-364.4761904761905" y="796.0952380952382"/>
      <point x="-364.4761904761905" y="664.9523809523808" type="curve" smooth="yes"/>
      <point x="-364.4761904761905" y="570.8333333333334"/>
      <point x="-310.83333333333337" y="514.8095238095239"/>
      <point x="-211.7857142857143" y="514.8095238095239" type="curve" smooth="yes"/>
      <point x="-209.7857142857143" y="514.8095238095239" type="line"/>
      <point x="-197.5952380952381" y="573.952380952381" type="line"/>
      <point x="-199.59523809523807" y="573.952380952381" type="line" smooth="yes"/>
      <point x="-241.85714285714286" y="573.952380952381"/>
      <point x="-273.85714285714283" y="594.047619047619"/>
      <point x="-273.85714285714283" y="639.8571428571429" type="curve" smooth="yes"/>
      <point x="-273.85714285714283" y="709.6666666666667"/>
      <point x="-196.78571428571428" y="749.2142857142857"/>
      <point x="-96.04761904761904" y="749.2142857142857" type="curve" smooth="yes"/>
      <point x="57.97619047619048" y="749.2142857142857"/>
      <point x="152.5" y="657.3809523809524"/>
      <point x="120.85714285714286" y="509.2619047619048" type="curve" smooth="yes"/>
    </contour>
  </outline>
</glyph>
<glyph name="iiMatra-tamil" format="2">
  <unicode hex="0BC0"/>
  <note>
uni0BC0
</note>
  <anchor x="63.19047619047619" y="574.5" name="_imatra"/>
  <anchor x="121.97619047619048" y="926.452380952381" name="top"/>
  <outline>
    <contour>
      <point x="25.357142857142854" y="505.83333333333337" type="curve" smooth="yes"/>
      <point x="47.452380952380956" y="505.83333333333337" type="line"/>
      <point x="62.095238095238095" y="574.5" type="line"/>
      <point x="40.285714285714285" y="574.5" type="line" smooth="yes"/>
      <point x="-32.476190476190474" y="574.5"/>
      <point x="-79.40476190476191" y="624.5"/>
      <point x="-79.40476190476191" y="689.6190476190476" type="curve" smooth="yes"/>
      <point x="-79.40476190476191" y="785.1428571428571"/>
      <point x="1.690476190476188" y="853.8571428571428"/>
      <point x="108.5" y="853.8571428571428" type="curve" smooth="yes"/>
      <point x="165.5" y="853.8571428571428"/>
      <point x="204.2142857142857" y="825.6904761904763"/>
      <point x="204.2142857142857" y="779.3333333333334" type="curve" smooth="yes"/>
      <point x="204.2142857142857" y="732.0714285714286"/>
      <point x="174.3095238095238" y="700.6190476190476"/>
      <point x="128.3095238095238" y="700.6190476190476" type="curve" smooth="yes"/>
      <point x="47.595238095238095" y="700.6190476190476"/>
      <point x="54.976190476190474" y="800.0714285714286"/>
      <point x="110.59523809523809" y="878.952380952381" type="curve"/>
      <point x="56.5" y="883.5" type="line"/>
      <point x="-50.523809523809526" y="757.5"/>
      <point x="-10.952380952380956" y="610.5714285714286"/>
      <point x="149.35714285714286" y="610.5714285714286" type="curve" smooth="yes"/>
      <point x="246.1904761904762" y="610.5714285714286"/>
      <point x="335.04761904761904" y="670.1190476190476"/>
      <point x="335.04761904761904" y="772.2380952380953" type="curve" smooth="yes"/>
      <point x="335.04761904761904" y="875.547619047619"/>
      <point x="242.09523809523807" y="926.452380952381"/>
      <point x="121.97619047619048" y="926.452380952381" type="curve" smooth="yes"/>
      <point x="-28.785714285714292" y="926.452380952381"/>
      <point x="-156.90476190476193" y="826.452380952381"/>
      <point x="-156.90476190476193" y="680.5238095238095" type="curve" smooth="yes"/>
      <point x="-156.90476190476193" y="574.4761904761905"/>
      <point x="-76.66666666666667" y="505.83333333333337"/>
    </contour>
  </outline>
</glyph>
<glyph name="uMatra-tamil" format="2">
  <advance width="602.7142857142857"/>
  <unicode hex="0BC1"/>
  <note>
uni0BC1
</note>
  <anchor x="308.2857142857143" y="574.5" name="top"/>
  <outline>
    <contour>
      <point x="363.90476190476187" y="228.92857142857142" type="curve" smooth="yes"/>
      <point x="471.7857142857143" y="228.92857142857142"/>
      <point x="574.5238095238095" y="271.95238095238096"/>
      <point x="603.0714285714287" y="401.1428571428571" type="curve" smooth="yes"/>
      <point x="641.0714285714286" y="574.5" type="line"/>
      <point x="-241.21428571428572" y="574.5" type="line"/>
      <point x="-196.73809523809524" y="505.83333333333337" type="line"/>
      <point x="436.57142857142856" y="505.83333333333337" type="line"/>
      <point x="414.3095238095238" y="400.7857142857143" type="line" smooth="yes"/>
      <point x="400.85714285714283" y="338.33333333333337"/>
      <point x="367.69047619047615" y="311.6904761904762"/>
      <point x="322.7857142857143" y="311.6904761904762" type="curve" smooth="yes"/>
      <point x="270.9761904761905" y="311.6904761904762"/>
      <point x="247.9047619047619" y="350.6904761904762"/>
      <point x="264.26190476190476" y="427.0238095238096" type="curve" smooth="yes"/>
      <point x="287.16666666666663" y="534.0" type="line"/>
      <point x="211.85714285714286" y="534.0" type="line"/>
      <point x="191.5" y="437.2142857142857" type="line" smooth="yes"/>
      <point x="164.59523809523807" y="308.14285714285717"/>
      <point x="228.3095238095238" y="228.92857142857142"/>
    </contour>
  </outline>
</glyph>
<glyph name="uuMatra-tamil" format="2">
  <advance width="965.6190476190476"/>
  <unicode hex="0BC2"/>
  <note>
uni0BC2
</note>
  <anchor x="556.2142857142857" y="791.3095238095239" name="top"/>
  <outline>
    <contour>
      <point x="391.66666666666663" y="8.904761904761905" type="curve" smooth="yes"/>
      <point x="679.547619047619" y="8.904761904761905"/>
      <point x="933.1428571428571" y="175.1904761904762"/>
      <point x="933.1428571428571" y="451.26190476190476" type="curve" smooth="yes"/>
      <point x="933.1428571428571" y="695.8095238095239"/>
      <point x="752.7380952380953" y="791.3095238095239"/>
      <point x="555.7619047619047" y="791.3095238095239" type="curve" smooth="yes"/>
      <point x="342.4761904761904" y="791.3095238095239"/>
      <point x="219.64285714285717" y="668.5476190476192"/>
      <point x="190.54761904761904" y="534.6190476190476" type="curve" smooth="yes"/>
      <point x="169.28571428571428" y="437.2142857142857" type="line" smooth="yes"/>
      <point x="141.38095238095238" y="308.14285714285717"/>
      <point x="206.0952380952381" y="228.92857142857142"/>
      <point x="341.6904761904762" y="228.92857142857142" type="curve" smooth="yes"/>
      <point x="449.5714285714286" y="228.92857142857142"/>
      <point x="552.3095238095237" y="271.95238095238096"/>
      <point x="580.8571428571429" y="401.1428571428571" type="curve" smooth="yes"/>
      <point x="618.8571428571429" y="574.5" type="line"/>
      <point x="-269.33333333333337" y="574.5" type="line"/>
      <point x="-233.50000000000003" y="505.83333333333337" type="line"/>
      <point x="414.35714285714283" y="505.83333333333337" type="line"/>
      <point x="392.0952380952381" y="400.7857142857143" type="line" smooth="yes"/>
      <point x="378.6428571428571" y="338.33333333333337"/>
      <point x="345.4761904761905" y="311.6904761904762"/>
      <point x="300.57142857142856" y="311.6904761904762" type="curve" smooth="yes"/>
      <point x="248.76190476190473" y="311.6904761904762"/>
      <point x="225.14285714285714" y="350.6904761904762"/>
      <point x="242.047619047619" y="427.0238095238096" type="curve" smooth="yes"/>
      <point x="264.95238095238096" y="532.3571428571429" type="line" smooth="yes"/>
      <point x="285.40476190476187" y="625.5238095238095"/>
      <point x="369.6428571428571" y="708.547619047619"/>
      <point x="507.52380952380946" y="708.547619047619" type="curve" smooth="yes"/>
      <point x="648.4047619047619" y="708.547619047619"/>
      <point x="738.9047619047619" y="626.2380952380953"/>
      <point x="738.9047619047619" y="474.26190476190476" type="curve" smooth="yes"/>
      <point x="738.9047619047619" y="241.35714285714283"/>
      <point x="589.6190476190476" y="89.95238095238096"/>
      <point x="374.35714285714283" y="89.95238095238096" type="curve" smooth="yes"/>
      <point x="248.95238095238093" y="89.95238095238096"/>
      <point x="149.73809523809524" y="125.19047619047619"/>
      <point x="76.8095238095238" y="231.73809523809524" type="curve"/>
      <point x="10.952380952380945" y="183.33333333333331" type="line"/>
      <point x="93.07142857142856" y="66.88095238095238"/>
      <point x="211.38095238095238" y="8.904761904761905"/>
    </contour>
  </outline>
</glyph>
<glyph name="eMatra-tamil" format="2">
  <advance width="890.2857142857142"/>
  <unicode hex="0BC6"/>
  <note>
uni0BC6
</note>
  <outline>
    <contour>
      <point x="320.8571428571429" y="-5.0" type="curve" smooth="yes"/>
      <point x="440.61904761904765" y="-5.0"/>
      <point x="545.547619047619" y="63.38095238095238"/>
      <point x="545.547619047619" y="194.3095238095238" type="curve" smooth="yes"/>
      <point x="545.547619047619" y="286.2142857142857"/>
      <point x="480.0238095238095" y="342.6904761904762"/>
      <point x="384.61904761904765" y="342.6904761904762" type="curve" smooth="yes"/>
      <point x="264.73809523809524" y="342.6904761904762"/>
      <point x="181.16666666666666" y="245.3095238095238"/>
      <point x="153.5" y="118.02380952380952" type="curve"/>
      <point x="196.97619047619048" y="92.45238095238095" type="line"/>
      <point x="216.95238095238093" y="183.02380952380952"/>
      <point x="261.54761904761904" y="239.04761904761907"/>
      <point x="316.73809523809524" y="239.04761904761907" type="curve" smooth="yes"/>
      <point x="360.8809523809524" y="239.04761904761907"/>
      <point x="383.23809523809524" y="206.61904761904762"/>
      <point x="383.23809523809524" y="169.54761904761904" type="curve" smooth="yes"/>
      <point x="383.23809523809524" y="116.02380952380953"/>
      <point x="351.88095238095235" y="75.78571428571429"/>
      <point x="286.64285714285717" y="75.78571428571429" type="curve" smooth="yes"/>
      <point x="222.42857142857142" y="75.78571428571429"/>
      <point x="149.47619047619048" y="149.45238095238096"/>
      <point x="149.47619047619048" y="313.04761904761904" type="curve" smooth="yes"/>
      <point x="149.47619047619048" y="539.5"/>
      <point x="308.40476190476187" y="722.3809523809524"/>
      <point x="534.7142857142857" y="722.3809523809524" type="curve" smooth="yes"/>
      <point x="702.952380952381" y="722.3809523809524"/>
      <point x="806.1904761904761" y="623.8809523809524"/>
      <point x="763.8333333333333" y="423.35714285714283" type="curve" smooth="yes"/>
      <point x="674.3809523809524" y="0.0" type="line"/>
      <point x="752.1428571428571" y="0.0" type="line"/>
      <point x="851.1428571428572" y="464.0" type="line" smooth="yes"/>
      <point x="903.7857142857142" y="711.3095238095239"/>
      <point x="792.6666666666666" y="869.5714285714286"/>
      <point x="555.0" y="869.5714285714286" type="curve" smooth="yes"/>
      <point x="253.88095238095235" y="869.5714285714286"/>
      <point x="77.07142857142857" y="602.2857142857142"/>
      <point x="77.07142857142857" y="304.6666666666667" type="curve" smooth="yes"/>
      <point x="77.07142857142857" y="107.71428571428571"/>
      <point x="182.04761904761904" y="-5.0"/>
    </contour>
  </outline>
</glyph>
<glyph name="eeMatra-tamil" format="2">
  <advance width="696.7619047619048"/>
  <unicode hex="0BC7"/>
  <note>
uni0BC7
</note>
  <outline>
    <contour>
      <point x="382.61904761904765" y="-5.0" type="curve" smooth="yes"/>
      <point x="517.3571428571429" y="-5.0"/>
      <point x="632.7857142857143" y="63.35714285714286"/>
      <point x="632.7857142857143" y="196.4047619047619" type="curve" smooth="yes"/>
      <point x="632.7857142857143" y="286.59523809523813"/>
      <point x="568.6904761904763" y="343.1428571428571"/>
      <point x="478.04761904761904" y="343.1428571428571" type="curve" smooth="yes"/>
      <point x="349.5238095238095" y="343.1428571428571"/>
      <point x="266.0" y="235.3095238095238"/>
      <point x="229.3809523809524" y="101.69047619047619" type="curve"/>
      <point x="271.76190476190476" y="76.11904761904762" type="line"/>
      <point x="300.92857142857144" y="175.83333333333331"/>
      <point x="343.7142857142857" y="239.5"/>
      <point x="404.5238095238095" y="239.5" type="curve" smooth="yes"/>
      <point x="442.85714285714283" y="239.5"/>
      <point x="470.3809523809524" y="212.42857142857144"/>
      <point x="470.3809523809524" y="171.54761904761907" type="curve" smooth="yes"/>
      <point x="470.3809523809524" y="108.59523809523809"/>
      <point x="424.4047619047619" y="75.78571428571429"/>
      <point x="364.4285714285714" y="75.78571428571429" type="curve" smooth="yes"/>
      <point x="258.07142857142856" y="75.78571428571429"/>
      <point x="152.95238095238093" y="187.76190476190476"/>
      <point x="152.95238095238093" y="363.8333333333333" type="curve" smooth="yes"/>
      <point x="152.95238095238093" y="557.3571428571428"/>
      <point x="309.92857142857144" y="809.1428571428571"/>
      <point x="498.90476190476187" y="809.1428571428571" type="curve" smooth="yes"/>
      <point x="555.5" y="809.1428571428571"/>
      <point x="589.2142857142857" y="778.3571428571429"/>
      <point x="589.2142857142857" y="729.6428571428571" type="curve" smooth="yes"/>
      <point x="589.2142857142857" y="674.2857142857142"/>
      <point x="553.5714285714287" y="645.4285714285714"/>
      <point x="509.45238095238096" y="645.4285714285714" type="curve" smooth="yes"/>
      <point x="440.04761904761904" y="645.4285714285714"/>
      <point x="422.07142857142856" y="727.952380952381"/>
      <point x="430.04761904761904" y="811.9761904761905" type="curve"/>
      <point x="379.4761904761905" y="789.1428571428571" type="line"/>
      <point x="365.4047619047619" y="653.3571428571429"/>
      <point x="413.5" y="541.7857142857143"/>
      <point x="548.952380952381" y="541.7857142857143" type="curve" smooth="yes"/>
      <point x="657.952380952381" y="541.7857142857143"/>
      <point x="747.4285714285714" y="609.6190476190477"/>
      <point x="747.4285714285714" y="725.547619047619" type="curve" smooth="yes"/>
      <point x="747.4285714285714" y="836.0"/>
      <point x="658.9047619047619" y="889.9285714285714"/>
      <point x="548.952380952381" y="889.9285714285714" type="curve" smooth="yes"/>
      <point x="275.26190476190476" y="889.9285714285714"/>
      <point x="78.45238095238095" y="606.2857142857143"/>
      <point x="78.45238095238095" y="351.0952380952381" type="curve" smooth="yes"/>
      <point x="78.45238095238095" y="140.02380952380952"/>
      <point x="220.95238095238093" y="-5.0"/>
    </contour>
  </outline>
</glyph>
<glyph name="aiMatra-tamil" format="2">
  <advance width="1427.4761904761904"/>
  <unicode hex="0BC8"/>
  <note>
uni0BC8
</note>
  <outline>
    <contour>
      <point x="1082.857142857143" y="-19.547619047619047" type="line"/>
      <point x="1249.7142857142856" y="35.452380952380956"/>
      <point x="1377.5714285714284" y="127.19047619047619"/>
      <point x="1377.5714285714284" y="298.2857142857143" type="curve" smooth="yes"/>
      <point x="1377.5714285714284" y="496.1428571428571"/>
      <point x="1190.404761904762" y="579.5"/>
      <point x="1000.047619047619" y="579.5" type="curve" smooth="yes"/>
      <point x="792.6904761904763" y="579.5"/>
      <point x="563.2380952380952" y="421.5238095238095"/>
      <point x="563.2380952380952" y="196.0" type="curve" smooth="yes"/>
      <point x="563.2380952380952" y="94.26190476190476"/>
      <point x="609.0" y="-4.4523809523809526"/>
      <point x="738.6666666666667" y="-4.4523809523809526" type="curve" smooth="yes"/>
      <point x="871.2380952380952" y="-4.4523809523809526"/>
      <point x="976.9761904761905" y="90.38095238095238"/>
      <point x="976.9761904761905" y="238.66666666666669" type="curve" smooth="yes"/>
      <point x="976.9761904761905" y="468.4761904761905"/>
      <point x="783.0238095238095" y="579.5"/>
      <point x="523.4285714285714" y="579.5" type="curve" smooth="yes"/>
      <point x="274.11904761904765" y="579.5"/>
      <point x="43.976190476190474" y="435.8571428571429"/>
      <point x="43.976190476190474" y="220.2142857142857" type="curve" smooth="yes"/>
      <point x="43.976190476190474" y="89.26190476190476"/>
      <point x="125.30952380952381" y="-5.0"/>
      <point x="264.1190476190476" y="-5.0" type="curve" smooth="yes"/>
      <point x="383.88095238095235" y="-5.0"/>
      <point x="492.0952380952381" y="63.83333333333333"/>
      <point x="492.0952380952381" y="192.95238095238096" type="curve" smooth="yes"/>
      <point x="492.0952380952381" y="283.04761904761904"/>
      <point x="428.3809523809524" y="339.9761904761905"/>
      <point x="333.42857142857144" y="339.9761904761905" type="curve" smooth="yes"/>
      <point x="213.54761904761904" y="339.9761904761905"/>
      <point x="130.42857142857142" y="242.5952380952381"/>
      <point x="102.76190476190477" y="115.30952380952381" type="curve"/>
      <point x="146.23809523809524" y="89.73809523809524" type="line"/>
      <point x="166.21428571428572" y="180.3095238095238"/>
      <point x="210.35714285714283" y="236.33333333333334"/>
      <point x="265.54761904761904" y="236.33333333333334" type="curve" smooth="yes"/>
      <point x="309.69047619047615" y="236.33333333333334"/>
      <point x="329.7857142857143" y="203.0"/>
      <point x="329.7857142857143" y="168.19047619047618" type="curve" smooth="yes"/>
      <point x="329.7857142857143" y="117.83333333333333"/>
      <point x="297.3333333333333" y="75.78571428571429"/>
      <point x="232.0952380952381" y="75.78571428571429" type="curve" smooth="yes"/>
      <point x="167.88095238095238" y="75.78571428571429"/>
      <point x="116.38095238095238" y="133.1904761904762"/>
      <point x="116.38095238095238" y="228.5952380952381" type="curve" smooth="yes"/>
      <point x="116.38095238095238" y="399.0952380952381"/>
      <point x="310.92857142857144" y="506.45238095238096"/>
      <point x="503.8571428571429" y="506.45238095238096" type="curve" smooth="yes"/>
      <point x="698.047619047619" y="506.45238095238096"/>
      <point x="809.5238095238095" y="421.88095238095235"/>
      <point x="809.5238095238095" y="253.5" type="curve" smooth="yes"/>
      <point x="809.5238095238095" y="146.88095238095238"/>
      <point x="765.7142857142858" y="84.16666666666667"/>
      <point x="703.8095238095239" y="84.16666666666667" type="curve" smooth="yes"/>
      <point x="659.547619047619" y="84.16666666666667"/>
      <point x="636.6428571428572" y="130.30952380952382"/>
      <point x="636.6428571428572" y="198.1904761904762" type="curve" smooth="yes"/>
      <point x="636.6428571428572" y="384.59523809523813"/>
      <point x="822.2380952380952" y="506.45238095238096"/>
      <point x="983.6666666666666" y="506.45238095238096" type="curve" smooth="yes"/>
      <point x="1114.4761904761904" y="506.45238095238096"/>
      <point x="1212.1190476190475" y="439.9047619047619"/>
      <point x="1212.1190476190475" y="308.2857142857143" type="curve" smooth="yes"/>
      <point x="1212.1190476190475" y="178.47619047619048"/>
      <point x="1162.9285714285713" y="109.11904761904762"/>
      <point x="1057.5714285714284" y="28.11904761904762" type="curve"/>
    </contour>
  </outline>
</glyph>
<glyph name="halant-tamil" format="2">
  <unicode hex="0BCD"/>
  <note>
uni0BCD
</note>
  <anchor x="63.19047619047619" y="574.5" name="_top"/>
  <outline>
    <contour>
      <point x="97.19047619047619" y="649.4047619047619" type="curve" smooth="yes"/>
      <point x="150.47619047619048" y="649.4047619047619"/>
      <point x="194.85714285714286" y="692.1428571428572"/>
      <point x="194.85714285714286" y="743.9761904761905" type="curve" smooth="yes"/>
      <point x="194.85714285714286" y="794.8095238095239"/>
      <point x="151.02380952380952" y="838.0952380952381"/>
      <point x="97.73809523809524" y="838.0952380952381" type="curve" smooth="yes"/>
      <point x="43.904761904761905" y="838.0952380952381"/>
      <point x="0.0714285714285694" y="794.8095238095239"/>
      <point x="0.0714285714285694" y="743.9761904761905" type="curve" smooth="yes"/>
      <point x="0.0714285714285694" y="692.1428571428572"/>
      <point x="43.357142857142854" y="649.4047619047619"/>
    </contour>
  </outline>
</glyph>
